<svg width="44" height="44" viewBox="0 0 44 44" fill="none" xmlns="http://www.w3.org/2000/svg">
<path d="M30.7022 30.7413C31.0441 31.0754 31.5956 31.0969 31.9485 30.7413C32.3125 30.3748 32.2904 29.8575 31.9485 29.5234L13.2316 11.2546C12.8897 10.9205 12.3272 10.9098 11.9853 11.2546C11.6544 11.578 11.6544 12.1384 11.9853 12.4618L30.7022 30.7413ZM31.739 27.4432C34.9596 25.3307 37 22.4745 37 21.2027C37 19.0256 30.9449 11.966 22 11.966C20.125 11.966 18.3713 12.2786 16.7831 12.7959L19.8051 15.7491C20.489 15.4796 21.2279 15.3287 22.011 15.3287C25.3529 15.3287 28.0551 17.9262 28.0551 21.2135C28.0551 21.968 27.8897 22.7009 27.5919 23.3583L31.739 27.4432ZM22 30.4503C24.0184 30.4503 25.8934 30.0946 27.5478 29.5018L24.5037 26.5271C23.7537 26.8935 22.9044 27.0875 22.011 27.0875C18.6471 27.0875 15.9669 24.4038 15.9559 21.2135C15.9559 20.3189 16.1544 19.4783 16.5184 18.7346L12.5368 14.8222C9.10662 16.9778 7 19.9309 7 21.2027C7 23.3907 13.1654 30.4503 22 30.4503ZM25.5294 20.9872C25.5294 19.101 23.9853 17.5813 22.0441 17.5813C21.9228 17.5813 21.8015 17.5921 21.6912 17.6029L25.5074 21.3213C25.5184 21.2243 25.5294 21.1057 25.5294 20.9872ZM18.4596 21.0303C18.4596 22.9164 20.0478 24.4361 21.9669 24.4361C22.0993 24.4361 22.2206 24.4254 22.3419 24.4146L18.4816 20.6423C18.4706 20.7716 18.4596 20.901 18.4596 21.0303Z" fill="#5189F6"/>
</svg>
