<svg width="36" height="32" viewBox="0 0 36 32" fill="none" xmlns="http://www.w3.org/2000/svg">
<path fill-rule="evenodd" clip-rule="evenodd" d="M20.8342 0.484246C20.7324 -0.161416 19.8172 -0.161415 19.7155 0.484247C19.6327 1.0096 18.948 1.14228 18.6711 0.69057C18.3326 0.138357 17.484 0.481806 17.6369 1.11342C17.7616 1.62868 17.1785 2.01679 16.7535 1.70809C16.2355 1.33188 15.5791 1.97232 15.9585 2.49169C16.2689 2.91656 15.88 3.50146 15.3731 3.37946C14.7552 3.23077 14.3958 4.07622 14.9403 4.408C15.3863 4.67978 15.2527 5.36912 14.7386 5.44967C14.1101 5.54816 14.1101 6.46777 14.7386 6.56626C15.2527 6.64682 15.3863 7.33616 14.9403 7.60794C14.3958 7.93972 14.7552 8.78517 15.3731 8.63647C15.88 8.51447 16.2689 9.09938 15.9585 9.52425C15.5791 10.0436 16.2355 10.6841 16.7535 10.3078C17.1785 9.99915 17.7616 10.3873 17.6369 10.9025C17.484 11.5341 18.3326 11.8776 18.6711 11.3254C18.948 10.8737 19.6327 11.0063 19.7155 11.5317C19.8172 12.1774 20.7324 12.1774 20.8342 11.5317C20.917 11.0063 21.6017 10.8737 21.8785 11.3254C22.217 11.8776 23.0656 11.5341 22.9128 10.9025C22.788 10.3873 23.3711 9.99915 23.7961 10.3078C24.3142 10.6841 24.9706 10.0436 24.5911 9.52425C24.2808 9.09938 24.6696 8.51447 25.1766 8.63647C25.7944 8.78517 26.1538 7.93972 25.6094 7.60794C25.1634 7.33616 25.2969 6.64682 25.811 6.56626C26.4395 6.46777 26.4395 5.54816 25.811 5.44967C25.2969 5.36912 25.1634 4.67978 25.6094 4.408C26.1538 4.07622 25.7944 3.23077 25.1766 3.37946C24.6696 3.50146 24.2808 2.91656 24.5911 2.49169C24.9706 1.97232 24.3142 1.33188 23.7961 1.70809C23.3711 2.01679 22.788 1.62868 22.9128 1.11342C23.0656 0.481806 22.217 0.138357 21.8785 0.69057C21.6017 1.14228 20.917 1.0096 20.8342 0.484246ZM5.93982 6.52027C5.89911 6.262 5.53305 6.262 5.49234 6.52027C5.45922 6.73041 5.18534 6.78348 5.07459 6.6028C4.93921 6.38191 4.59974 6.51929 4.6609 6.77194C4.71079 6.97804 4.47757 7.13328 4.30754 7.0098C4.10034 6.85932 3.83778 7.1155 3.98955 7.32324C4.1137 7.49319 3.95817 7.72715 3.75538 7.67835C3.50823 7.61888 3.36447 7.95706 3.58226 8.08977C3.76066 8.19848 3.70725 8.47422 3.50161 8.50644C3.25018 8.54583 3.25018 8.91368 3.50161 8.95307C3.70725 8.9853 3.76066 9.26103 3.58226 9.36974C3.36447 9.50245 3.50823 9.84064 3.75538 9.78116C3.95817 9.73236 4.1137 9.96632 3.98955 10.1363C3.83778 10.344 4.10034 10.6002 4.30754 10.4497C4.47757 10.3262 4.71079 10.4815 4.6609 10.6876C4.59974 10.9402 4.93921 11.0776 5.07459 10.8567C5.18534 10.676 5.45922 10.7291 5.49234 10.9392C5.53305 11.1975 5.89911 11.1975 5.93982 10.9392C5.97294 10.7291 6.24682 10.676 6.35757 10.8567C6.49296 11.0776 6.83242 10.9402 6.77126 10.6876C6.72137 10.4815 6.95459 10.3262 7.12462 10.4497C7.33182 10.6002 7.59438 10.344 7.44261 10.1363C7.31846 9.96632 7.47399 9.73236 7.67678 9.78116C7.92393 9.84064 8.06769 9.50245 7.8499 9.36974C7.6715 9.26103 7.72491 8.9853 7.93055 8.95307C8.18198 8.91368 8.18198 8.54583 7.93055 8.50644C7.72491 8.47422 7.6715 8.19848 7.8499 8.08977C8.06769 7.95706 7.92393 7.61888 7.67678 7.67835C7.47399 7.72715 7.31846 7.49319 7.44261 7.32324C7.59438 7.1155 7.33182 6.85932 7.12462 7.0098C6.95459 7.13328 6.72137 6.97804 6.77126 6.77194C6.83242 6.51929 6.49296 6.38191 6.35757 6.6028C6.24682 6.78348 5.97294 6.73041 5.93982 6.52027ZM30.0603 11.0566C30.101 10.7983 30.4671 10.7983 30.5078 11.0566C30.5409 11.2667 30.8148 11.3198 30.9255 11.1391C31.0609 10.9182 31.4004 11.0556 31.3392 11.3083C31.2893 11.5144 31.5226 11.6696 31.6926 11.5461C31.8998 11.3956 32.1623 11.6518 32.0106 11.8596C31.8864 12.0295 32.042 12.2635 32.2447 12.2147C32.4919 12.1552 32.6357 12.4934 32.4179 12.6261C32.2395 12.7348 32.2929 13.0105 32.4985 13.0428C32.7499 13.0822 32.7499 13.45 32.4985 13.4894C32.2929 13.5216 32.2395 13.7974 32.4179 13.9061C32.6357 14.0388 32.4919 14.377 32.2447 14.3175C32.042 14.2687 31.8864 14.5026 32.0106 14.6726C32.1623 14.8803 31.8998 15.1365 31.6926 14.986C31.5226 14.8625 31.2893 15.0178 31.3392 15.2239C31.4004 15.4765 31.0609 15.6139 30.9255 15.393C30.8148 15.2124 30.5409 15.2654 30.5078 15.4756C30.4671 15.7338 30.101 15.7338 30.0603 15.4756C30.0272 15.2654 29.7533 15.2124 29.6426 15.393C29.5072 15.6139 29.1677 15.4765 29.2289 15.2239C29.2788 15.0178 29.0455 14.8625 28.8755 14.986C28.6683 15.1365 28.4058 14.8803 28.5575 14.6726C28.6817 14.5026 28.5261 14.2687 28.3234 14.3175C28.0762 14.377 27.9324 14.0388 28.1502 13.9061C28.3286 13.7974 28.2752 13.5216 28.0696 13.4894C27.8182 13.45 27.8182 13.0822 28.0696 13.0428C28.2752 13.0105 28.3286 12.7348 28.1502 12.6261C27.9324 12.4934 28.0762 12.1552 28.3234 12.2147C28.5261 12.2635 28.6817 12.0295 28.5575 11.8596C28.4058 11.6518 28.6683 11.3956 28.8755 11.5461C29.0455 11.6696 29.2788 11.5144 29.2289 11.3083C29.1677 11.0556 29.5072 10.9182 29.6426 11.1391C29.7533 11.3198 30.0272 11.2667 30.0603 11.0566ZM15.9489 27.3873C15.9082 27.1291 15.5421 27.1291 15.5014 27.3873C15.4683 27.5975 15.1944 27.6505 15.0837 27.4699C14.9483 27.249 14.6088 27.3863 14.67 27.639C14.7199 27.8451 14.4867 28.0003 14.3166 27.8769C14.1094 27.7264 13.8469 27.9826 13.9986 28.1903C14.1228 28.3602 13.9673 28.5942 13.7645 28.5454C13.5173 28.4859 13.3736 28.8241 13.5913 28.9568C13.7697 29.0655 13.7163 29.3413 13.5107 29.3735C13.2593 29.4129 13.2593 29.7807 13.5107 29.8201C13.7163 29.8524 13.7697 30.1281 13.5913 30.2368C13.3736 30.3695 13.5173 30.7077 13.7645 30.6482C13.9673 30.5994 14.1228 30.8334 13.9986 31.0033C13.8469 31.2111 14.1094 31.4672 14.3166 31.3168C14.4867 31.1933 14.7199 31.3485 14.67 31.5546C14.6088 31.8073 14.9483 31.9447 15.0837 31.7238C15.1944 31.5431 15.4683 31.5962 15.5014 31.8063C15.5421 32.0646 15.9082 32.0646 15.9489 31.8063C15.982 31.5962 16.2559 31.5431 16.3667 31.7238C16.502 31.9447 16.8415 31.8073 16.7803 31.5546C16.7305 31.3485 16.9637 31.1933 17.1337 31.3168C17.3409 31.4672 17.6035 31.2111 17.4517 31.0033C17.3276 30.8334 17.4831 30.5994 17.6859 30.6482C17.933 30.7077 18.0768 30.3695 17.859 30.2368C17.6806 30.1281 17.734 29.8524 17.9396 29.8201C18.1911 29.7807 18.1911 29.4129 17.9396 29.3735C17.734 29.3413 17.6806 29.0655 17.859 28.9568C18.0768 28.8241 17.933 28.4859 17.6859 28.5454C17.4831 28.5942 17.3276 28.3602 17.4517 28.1903C17.6035 27.9826 17.3409 27.7264 17.1337 27.8769C16.9637 28.0003 16.7305 27.8451 16.7803 27.639C16.8415 27.3863 16.502 27.249 16.3667 27.4699C16.2559 27.6505 15.982 27.5975 15.9489 27.3873ZM19.0293 16.3027C19.0904 15.9153 19.6395 15.9153 19.7005 16.3027C19.7502 16.6179 20.161 16.6975 20.3272 16.4265C20.5302 16.0951 21.0394 16.3012 20.9477 16.6802C20.8729 16.9893 21.2227 17.2222 21.4777 17.037C21.7885 16.8113 22.1824 17.1955 21.9547 17.5071C21.7685 17.7621 22.0018 18.113 22.306 18.0398C22.6767 17.9506 22.8924 18.4579 22.5657 18.6569C22.2981 18.82 22.3782 19.2336 22.6866 19.2819C23.0638 19.341 23.0638 19.8928 22.6866 19.9519C22.3782 20.0002 22.2981 20.4138 22.5657 20.5769C22.8924 20.776 22.6767 21.2832 22.306 21.194C22.0018 21.1208 21.7685 21.4718 21.9547 21.7267C22.1824 22.0383 21.7885 22.4226 21.4777 22.1968C21.2227 22.0116 20.8729 22.2445 20.9477 22.5536C21.0394 22.9326 20.5302 23.1387 20.3272 22.8074C20.161 22.5363 19.7502 22.6159 19.7005 22.9311C19.6395 23.3185 19.0904 23.3185 19.0293 22.9311C18.9797 22.6159 18.5688 22.5363 18.4027 22.8074C18.1996 23.1387 17.6904 22.9326 17.7822 22.5536C17.857 22.2445 17.5072 22.0116 17.2521 22.1968C16.9413 22.4226 16.5475 22.0383 16.7751 21.7267C16.9614 21.4718 16.7281 21.1208 16.4239 21.194C16.0532 21.2832 15.8375 20.776 16.1642 20.5769C16.4318 20.4138 16.3517 20.0002 16.0432 19.9519C15.6661 19.8928 15.6661 19.341 16.0432 19.2819C16.3517 19.2336 16.4318 18.82 16.1642 18.6569C15.8375 18.4579 16.0532 17.9506 16.4239 18.0398C16.7281 18.113 16.9614 17.7621 16.7751 17.5071C16.5475 17.1955 16.9413 16.8113 17.2521 17.037C17.5072 17.2222 17.857 16.9893 17.7822 16.6802C17.6904 16.3012 18.1996 16.0951 18.4027 16.4265C18.5688 16.6975 18.9797 16.6179 19.0293 16.3027ZM31.6414 19.7343C31.56 19.2177 30.8279 19.2177 30.7464 19.7343C30.6802 20.1545 30.1324 20.2607 29.9109 19.8993C29.6402 19.4575 28.9613 19.7323 29.0836 20.2376C29.1833 20.6498 28.7169 20.9603 28.3769 20.7133C27.9624 20.4124 27.4373 20.9247 27.7409 21.3402C27.9892 21.6801 27.6781 22.148 27.2725 22.0504C26.7782 21.9315 26.4907 22.6078 26.9263 22.8733C27.2831 23.0907 27.1763 23.6422 26.765 23.7066C26.2621 23.7854 26.2621 24.5211 26.765 24.5999C27.1763 24.6643 27.2831 25.2158 26.9263 25.4332C26.4907 25.6986 26.7782 26.375 27.2725 26.256C27.6781 26.1584 27.9892 26.6264 27.7409 26.9663C27.4373 27.3818 27.9624 27.8941 28.3769 27.5931C28.7169 27.3462 29.1833 27.6567 29.0836 28.0689C28.9613 28.5742 29.6402 28.8489 29.9109 28.4072C30.1324 28.0458 30.6802 28.1519 30.7464 28.5722C30.8279 29.0887 31.56 29.0887 31.6414 28.5722C31.7076 28.1519 32.2554 28.0458 32.4769 28.4072C32.7477 28.8489 33.4266 28.5742 33.3043 28.0689C33.2045 27.6567 33.6709 27.3462 34.011 27.5931C34.4254 27.8941 34.9505 27.3818 34.647 26.9663C34.3987 26.6264 34.7097 26.1584 35.1153 26.256C35.6096 26.375 35.8971 25.6986 35.4616 25.4332C35.1048 25.2158 35.2116 24.6643 35.6229 24.5999C36.1257 24.5211 36.1257 23.7854 35.6229 23.7066C35.2116 23.6422 35.1048 23.0907 35.4616 22.8733C35.8972 22.6078 35.6096 21.9315 35.1153 22.0504C34.7097 22.148 34.3987 21.6801 34.647 21.3402C34.9505 20.9247 34.4254 20.4124 34.011 20.7133C33.6709 20.9603 33.2045 20.6498 33.3043 20.2376C33.4266 19.7323 32.7477 19.4575 32.4769 19.8993C32.2554 20.2607 31.7076 20.1545 31.6414 19.7343ZM4.3586 17.0125C4.44001 16.4959 5.17214 16.4959 5.25355 17.0125C5.31979 17.4327 5.86755 17.5389 6.08905 17.1775C6.35983 16.7358 7.03875 17.0105 6.91644 17.5158C6.81666 17.928 7.28311 18.2385 7.62315 17.9915C8.03756 17.6906 8.56267 18.2029 8.25914 18.6184C8.01084 18.9583 8.3219 19.4262 8.72747 19.3286C9.22179 19.2097 9.5093 19.886 9.07372 20.1515C8.71692 20.3689 8.82375 20.9204 9.23501 20.9848C9.73787 21.0636 9.73787 21.7993 9.23501 21.8781C8.82375 21.9425 8.71692 22.494 9.07372 22.7114C9.5093 22.9768 9.22179 23.6532 8.72747 23.5342C8.3219 23.4366 8.01084 23.9046 8.25914 24.2445C8.56267 24.66 8.03756 25.1723 7.62315 24.8713C7.28311 24.6244 6.81666 24.9349 6.91644 25.3471C7.03875 25.8524 6.35983 26.1271 6.08905 25.6854C5.86755 25.324 5.31979 25.4301 5.25355 25.8504C5.17214 26.3669 4.44001 26.3669 4.3586 25.8504C4.29236 25.4301 3.7446 25.324 3.52311 25.6854C3.25233 26.1271 2.57341 25.8524 2.69572 25.3471C2.7955 24.9349 2.32905 24.6244 1.98901 24.8713C1.5746 25.1723 1.04948 24.66 1.35301 24.2445C1.60131 23.9046 1.29025 23.4366 0.884683 23.5342C0.390369 23.6532 0.102851 22.9768 0.538432 22.7114C0.895238 22.494 0.78841 21.9425 0.377141 21.8781C-0.125714 21.7993 -0.125714 21.0636 0.377141 20.9848C0.78841 20.9204 0.895238 20.3689 0.538431 20.1515C0.102851 19.886 0.390368 19.2097 0.884682 19.3286C1.29025 19.4262 1.60131 18.9583 1.35301 18.6184C1.04948 18.2029 1.5746 17.6906 1.98901 17.9915C2.32905 18.2385 2.7955 17.928 2.69572 17.5158C2.57341 17.0105 3.25233 16.7358 3.52311 17.1775C3.7446 17.5389 4.29236 17.4327 4.3586 17.0125Z" fill="white"/>
</svg>
