<svg width="66" height="44" viewBox="0 0 66 44" fill="none" xmlns="http://www.w3.org/2000/svg">
<path d="M9.39769 9.15867C10.391 7.83434 12.4982 8.50015 12.6133 10.1747L13.0792 16.9511C13.2866 19.9682 10.4595 22.216 7.59557 21.3111C4.73166 20.4062 3.5884 16.9039 5.37804 14.5179L9.39769 9.15867Z" fill="url(#paint0_linear_463_2844)" stroke="url(#paint1_linear_463_2844)" stroke-width="2"/>
<path d="M32.2134 9.15867C33.2067 7.83434 35.3139 8.50015 35.429 10.1747L35.8949 16.9511C36.1023 19.9682 33.2751 22.216 30.4112 21.3111C27.5473 20.4062 26.4041 16.9039 28.1937 14.5179L32.2134 9.15867Z" fill="url(#paint2_linear_463_2844)" stroke="url(#paint3_linear_463_2844)" stroke-width="2"/>
<path d="M55.0285 9.15867C56.0218 7.83434 58.129 8.50015 58.2441 10.1747L58.71 16.9511C58.9174 19.9682 56.0903 22.216 53.2264 21.3111C50.3625 20.4062 49.2192 16.9039 51.0088 14.5179L55.0285 9.15867Z" fill="url(#paint4_linear_463_2844)" stroke="url(#paint5_linear_463_2844)" stroke-width="2"/>
<path d="M15.417 27.9178C16.4103 26.5935 18.5175 27.2593 18.6326 28.9338L19.0985 35.7103C19.3059 38.7273 16.4788 40.9751 13.6149 40.0703C10.7509 39.1654 9.60769 35.6631 11.3973 33.277L15.417 27.9178Z" fill="url(#paint6_linear_463_2844)" stroke="url(#paint7_linear_463_2844)" stroke-width="2"/>
<path d="M34.6934 27.9178C35.6867 26.5935 37.7939 27.2593 37.9091 28.9338L38.3749 35.7103C38.5823 38.7273 35.7552 40.9751 32.8913 40.0703C30.0274 39.1654 28.8841 35.6631 30.6738 33.277L34.6934 27.9178Z" fill="url(#paint8_linear_463_2844)" stroke="url(#paint9_linear_463_2844)" stroke-width="2"/>
<defs>
<linearGradient id="paint0_linear_463_2844" x1="13.0854" y1="2.56412" x2="6.90023" y2="22.1399" gradientUnits="userSpaceOnUse">
<stop stop-color="#138EFF"/>
<stop offset="1" stop-color="#00E0FF"/>
</linearGradient>
<linearGradient id="paint1_linear_463_2844" x1="13.0854" y1="2.56412" x2="6.90023" y2="22.1399" gradientUnits="userSpaceOnUse">
<stop stop-color="white"/>
<stop offset="1" stop-color="white" stop-opacity="0"/>
</linearGradient>
<linearGradient id="paint2_linear_463_2844" x1="35.9011" y1="2.56412" x2="29.7159" y2="22.1399" gradientUnits="userSpaceOnUse">
<stop stop-color="#138EFF"/>
<stop offset="1" stop-color="#00E0FF"/>
</linearGradient>
<linearGradient id="paint3_linear_463_2844" x1="35.9011" y1="2.56412" x2="29.7159" y2="22.1399" gradientUnits="userSpaceOnUse">
<stop stop-color="white"/>
<stop offset="1" stop-color="white" stop-opacity="0"/>
</linearGradient>
<linearGradient id="paint4_linear_463_2844" x1="58.7162" y1="2.56412" x2="52.531" y2="22.1399" gradientUnits="userSpaceOnUse">
<stop stop-color="#138EFF"/>
<stop offset="1" stop-color="#00E0FF"/>
</linearGradient>
<linearGradient id="paint5_linear_463_2844" x1="58.7162" y1="2.56412" x2="52.531" y2="22.1399" gradientUnits="userSpaceOnUse">
<stop stop-color="white"/>
<stop offset="1" stop-color="white" stop-opacity="0"/>
</linearGradient>
<linearGradient id="paint6_linear_463_2844" x1="19.1047" y1="21.3233" x2="12.9195" y2="40.899" gradientUnits="userSpaceOnUse">
<stop stop-color="#138EFF"/>
<stop offset="1" stop-color="#00E0FF"/>
</linearGradient>
<linearGradient id="paint7_linear_463_2844" x1="19.1047" y1="21.3233" x2="12.9195" y2="40.899" gradientUnits="userSpaceOnUse">
<stop stop-color="white"/>
<stop offset="1" stop-color="white" stop-opacity="0"/>
</linearGradient>
<linearGradient id="paint8_linear_463_2844" x1="38.3811" y1="21.3233" x2="32.1959" y2="40.899" gradientUnits="userSpaceOnUse">
<stop stop-color="#138EFF"/>
<stop offset="1" stop-color="#00E0FF"/>
</linearGradient>
<linearGradient id="paint9_linear_463_2844" x1="38.3811" y1="21.3233" x2="32.1959" y2="40.899" gradientUnits="userSpaceOnUse">
<stop stop-color="white"/>
<stop offset="1" stop-color="white" stop-opacity="0"/>
</linearGradient>
</defs>
</svg>
