<svg width="34" height="30" viewBox="0 0 34 30" fill="none" xmlns="http://www.w3.org/2000/svg">
<path d="M1.75862 10.8C1.29221 10.8 0.844894 10.6104 0.515088 10.2728C0.185283 9.93523 0 9.47739 0 9C0 8.52261 0.185283 8.06477 0.515088 7.72721C0.844894 7.38964 1.29221 7.2 1.75862 7.2H15.8276C16.294 7.2 16.7413 7.01036 17.0711 6.67279C17.4009 6.33523 17.5862 5.87739 17.5862 5.4C17.5862 4.92261 17.4009 4.46477 17.0711 4.12721C16.7413 3.78964 16.294 3.6 15.8276 3.6C15.5806 3.59704 15.336 3.64918 15.1108 3.7528C14.8855 3.85642 14.6851 4.00903 14.5233 4.2C14.3688 4.37695 14.1816 4.52088 13.9725 4.62351C13.7634 4.72613 13.5366 4.78542 13.305 4.79797C13.0735 4.81052 12.8418 4.77607 12.6233 4.69662C12.4048 4.61716 12.2038 4.49426 12.0319 4.335C11.8595 4.17816 11.7192 3.98786 11.6191 3.77513C11.519 3.56239 11.4612 3.33145 11.4489 3.09568C11.4366 2.85991 11.4702 2.62399 11.5476 2.40158C11.6251 2.17917 11.7448 1.9747 11.9 1.8C12.4868 1.12846 13.2285 0.617882 14.0574 0.314772C14.8864 0.0116628 15.7762 -0.0743419 16.646 0.0645929C17.5157 0.203528 18.3376 0.562986 19.0369 1.11022C19.7362 1.65746 20.2906 2.37508 20.6496 3.19771C21.0086 4.02034 21.1607 4.92183 21.0923 5.82006C21.0238 6.7183 20.7368 7.58472 20.2575 8.3404C19.7782 9.09608 19.1218 9.717 18.348 10.1466C17.5743 10.5762 16.7078 10.8008 15.8276 10.8H1.75862ZM28.7241 6C27.9828 6.00163 27.2501 6.16271 26.5735 6.4728C25.8969 6.78289 25.2915 7.23506 24.7966 7.8C24.6414 7.9747 24.5216 8.17917 24.4442 8.40158C24.3667 8.62399 24.3332 8.85991 24.3455 9.09568C24.3577 9.33145 24.4156 9.56239 24.5156 9.77513C24.6157 9.98786 24.756 10.1782 24.9284 10.335C25.1004 10.4943 25.3013 10.6172 25.5198 10.6966C25.7383 10.7761 25.97 10.8105 26.2016 10.798C26.4331 10.7854 26.66 10.7261 26.869 10.6235C27.0781 10.5209 27.2653 10.377 27.4198 10.2C27.5816 10.009 27.7821 9.85642 28.0073 9.7528C28.2326 9.64919 28.4772 9.59704 28.7241 9.6C29.1906 9.6 29.6379 9.78964 29.9677 10.1272C30.2975 10.4648 30.4828 10.9226 30.4828 11.4C30.4828 11.8774 30.2975 12.3352 29.9677 12.6728C29.6379 13.0104 29.1906 13.2 28.7241 13.2H2.93103C2.46462 13.2 2.01731 13.3896 1.6875 13.7272C1.3577 14.0648 1.17241 14.5226 1.17241 15C1.17241 15.4774 1.3577 15.9352 1.6875 16.2728C2.01731 16.6104 2.46462 16.8 2.93103 16.8H28.7241C30.1234 16.8 31.4653 16.2311 32.4547 15.2184C33.4442 14.2057 34 12.8322 34 11.4C34 9.96783 33.4442 8.59432 32.4547 7.58162C31.4653 6.56893 30.1234 6 28.7241 6ZM20.5172 19.2H4.10345C3.63703 19.2 3.18972 19.3896 2.85992 19.7272C2.53011 20.0648 2.34483 20.5226 2.34483 21C2.34483 21.4774 2.53011 21.9352 2.85992 22.2728C3.18972 22.6104 3.63703 22.8 4.10345 22.8H20.5172C20.9837 22.8 21.431 22.9896 21.7608 23.3272C22.0906 23.6648 22.2759 24.1226 22.2759 24.6C22.2759 25.0774 22.0906 25.5352 21.7608 25.8728C21.431 26.2104 20.9837 26.4 20.5172 26.4C20.2703 26.403 20.0257 26.3508 19.8005 26.2472C19.5752 26.1436 19.3747 25.991 19.2129 25.8C19.0584 25.623 18.8712 25.4791 18.6621 25.3765C18.4531 25.2739 18.2262 25.2146 17.9947 25.202C17.7631 25.1895 17.5314 25.2239 17.3129 25.3034C17.0944 25.3828 16.8935 25.5057 16.7216 25.665C16.5491 25.8218 16.4088 26.0121 16.3087 26.2249C16.2087 26.4376 16.1508 26.6685 16.1386 26.9043C16.1263 27.1401 16.1598 27.376 16.2373 27.5984C16.3147 27.8208 16.4345 28.0253 16.5897 28.2C17.1765 28.8715 17.9182 29.3821 18.7471 29.6852C19.576 29.9883 20.4659 30.0743 21.3356 29.9354C22.2053 29.7965 23.0273 29.437 23.7266 28.8898C24.4258 28.3425 24.9802 27.6249 25.3392 26.8023C25.6982 25.9797 25.8504 25.0782 25.7819 24.1799C25.7135 23.2817 25.4265 22.4153 24.9472 21.6596C24.4679 20.9039 23.8114 20.283 23.0377 19.8534C22.264 19.4238 21.3975 19.1992 20.5172 19.2Z" fill="white"/>
</svg>
