<svg width="289" height="270" viewBox="0 0 289 270" fill="none" xmlns="http://www.w3.org/2000/svg">
<path fill-rule="evenodd" clip-rule="evenodd" d="M70.7976 250.044C67.7186 254.085 61.9755 255.002 58.015 251.82C24.571 224.956 4.21585 182.837 6.96994 136.756C11.484 61.2277 76.3712 3.6594 151.899 8.17349C227.428 12.6876 284.996 77.5747 280.482 153.103C278.061 193.615 258.27 228.96 228.783 252.329C224.729 255.542 218.88 254.493 215.873 250.284C212.782 245.958 213.877 239.964 218.007 236.616C242.84 216.486 259.458 186.394 261.516 151.969C265.404 86.9159 215.819 31.0277 150.766 27.1396C85.7123 23.2516 29.8241 72.836 25.9361 137.89C23.5919 177.111 40.6854 213.001 68.8875 236.172C73.0645 239.604 74.0741 245.744 70.7976 250.044Z" fill="url(#paint0_linear_1176_3095)" fill-opacity="0.9"/>
<g filter="url(#filter0_di_1176_3095)">
<circle cx="144.363" cy="144" r="120" fill="white"/>
</g>
<path d="M229.774 247.298L231.187 245.996L229.721 244.405L230.841 243.372L229.713 242.149L228.593 243.181L223.548 237.706L221.462 239.628C221.546 240.18 221.64 240.742 221.742 241.314C221.844 241.879 221.949 242.451 222.058 243.03C222.168 243.602 222.281 244.182 222.397 244.769C222.513 245.349 222.633 245.929 222.757 246.509C222.884 247.085 223.01 247.66 223.134 248.233L224.251 249.445L228.307 245.707L229.774 247.298ZM224.534 246.985L224.455 246.899C224.354 246.467 224.258 246.028 224.166 245.582C224.07 245.132 223.978 244.682 223.889 244.233C223.797 243.779 223.709 243.326 223.624 242.873C223.539 242.42 223.458 241.974 223.38 241.536C223.306 241.094 223.233 240.666 223.162 240.25L223.248 240.171L227.234 244.497L224.534 246.985ZM236.336 241.634C236.995 241.027 237.397 240.33 237.544 239.544C237.69 238.757 237.589 237.922 237.242 237.038C236.895 236.154 236.31 235.265 235.488 234.373L235.477 234.362C234.655 233.469 233.819 232.816 232.97 232.401C232.117 231.983 231.293 231.815 230.497 231.897C229.701 231.979 228.974 232.323 228.315 232.93C227.656 233.537 227.254 234.234 227.107 235.02C226.965 235.803 227.067 236.637 227.414 237.521C227.758 238.401 228.341 239.288 229.163 240.18L229.174 240.191C229.996 241.084 230.834 241.739 231.687 242.157C232.54 242.575 233.362 242.745 234.154 242.667C234.95 242.585 235.677 242.241 236.336 241.634ZM235.229 240.433C234.877 240.758 234.46 240.909 233.978 240.885C233.5 240.858 232.978 240.673 232.414 240.329C231.849 239.978 231.266 239.475 230.662 238.82L230.651 238.809C230.048 238.154 229.596 237.533 229.296 236.945C228.995 236.351 228.853 235.816 228.869 235.341C228.885 234.859 229.069 234.456 229.422 234.131C229.774 233.806 230.191 233.655 230.673 233.679C231.151 233.698 231.673 233.884 232.237 234.235C232.802 234.579 233.386 235.078 233.989 235.733L234 235.744C234.603 236.399 235.055 237.024 235.355 237.619C235.656 238.206 235.798 238.741 235.782 239.223C235.766 239.705 235.582 240.109 235.229 240.433Z" fill="#1916BB" fill-opacity="0.2"/>
<path d="M237.213 231.353C237.492 231.096 237.682 230.804 237.781 230.479C237.878 230.151 237.89 229.821 237.818 229.488C237.745 229.156 237.586 228.857 237.341 228.591L237.334 228.583C237.089 228.317 236.804 228.134 236.478 228.035C236.156 227.933 235.827 227.92 235.492 227.995C235.154 228.067 234.847 228.23 234.571 228.485C234.294 228.74 234.106 229.033 234.007 229.363C233.907 229.688 233.894 230.017 233.966 230.35C234.041 230.68 234.202 230.978 234.447 231.244L234.454 231.252C234.699 231.517 234.983 231.701 235.306 231.803C235.628 231.905 235.959 231.92 236.296 231.848C236.631 231.773 236.937 231.608 237.213 231.353ZM236.54 230.622C236.406 230.746 236.258 230.823 236.097 230.855C235.939 230.884 235.783 230.871 235.631 230.817C235.479 230.762 235.343 230.671 235.224 230.542L235.217 230.534C235.093 230.4 235.01 230.254 234.969 230.098C234.927 229.942 234.928 229.787 234.972 229.634C235.017 229.477 235.106 229.336 235.24 229.212C235.372 229.091 235.517 229.016 235.675 228.987C235.834 228.952 235.991 228.961 236.146 229.013C236.301 229.065 236.44 229.158 236.564 229.293L236.571 229.301C236.69 229.43 236.77 229.575 236.812 229.736C236.854 229.892 236.852 230.049 236.808 230.207C236.763 230.36 236.674 230.498 236.54 230.622ZM244.861 229.578C245.301 229.173 245.619 228.734 245.816 228.26C246.01 227.784 246.084 227.305 246.038 226.821C245.992 226.338 245.819 225.884 245.52 225.458L245.491 225.427L244.496 226.344L244.509 226.375C244.654 226.627 244.732 226.891 244.743 227.167C244.755 227.439 244.702 227.707 244.585 227.971C244.47 228.232 244.292 228.474 244.05 228.698C243.726 228.996 243.366 229.169 242.972 229.216C242.577 229.263 242.17 229.188 241.749 228.991C241.332 228.792 240.924 228.476 240.526 228.044L240.519 228.036C240.121 227.605 239.841 227.174 239.678 226.744C239.516 226.309 239.475 225.897 239.554 225.507C239.633 225.118 239.834 224.775 240.155 224.479C240.394 224.258 240.655 224.105 240.938 224.021C241.217 223.933 241.501 223.913 241.788 223.96C242.072 224.005 242.341 224.117 242.595 224.297L242.617 224.313L243.612 223.396L243.587 223.361C243.186 223.015 242.739 222.794 242.246 222.698C241.751 222.599 241.252 222.626 240.749 222.778C240.244 222.927 239.775 223.2 239.343 223.598C238.803 224.096 238.45 224.645 238.284 225.246C238.117 225.848 238.134 226.471 238.333 227.115C238.532 227.754 238.916 228.381 239.484 228.998L239.491 229.006C240.056 229.619 240.651 230.053 241.274 230.306C241.897 230.555 242.515 230.62 243.128 230.504C243.744 230.384 244.322 230.076 244.861 229.578Z" fill="#1916BB" fill-opacity="0.2"/>
<path d="M35.3718 220.377L38.8917 224.23L40.1953 223.039L36.6754 219.186L35.3718 220.377ZM37.1402 227.745L42.4147 233.519L43.6433 232.397L39.8442 228.238L39.9429 228.867L40.6005 228.266L39.5846 228.475L43.4673 228.706C44.4158 228.763 45.1969 228.773 45.8107 228.734C46.4279 228.699 46.939 228.606 47.344 228.455C47.7528 228.3 48.113 228.081 48.4245 227.796L48.4418 227.78C48.9109 227.352 49.2154 226.855 49.3552 226.29C49.495 225.725 49.4736 225.138 49.291 224.528C49.1119 223.923 48.7765 223.351 48.2847 222.813C47.7542 222.232 47.1755 221.823 46.5485 221.584C45.9215 221.346 45.2958 221.282 44.6714 221.394C44.047 221.506 43.4752 221.799 42.9561 222.273L42.9441 222.295L44.2029 223.685L44.2313 223.669C44.5197 223.406 44.8277 223.237 45.1555 223.164C45.4832 223.09 45.8086 223.11 46.1315 223.224C46.4583 223.335 46.7552 223.536 47.0222 223.829C47.2857 224.117 47.4546 224.418 47.5289 224.731C47.6071 225.04 47.5971 225.342 47.499 225.636C47.4009 225.93 47.225 226.194 46.9712 226.425L46.9539 226.441C46.7424 226.634 46.5019 226.776 46.2323 226.868C45.9666 226.955 45.6122 227.007 45.169 227.024C44.7333 227.041 44.1529 227.035 43.4279 227.006L38.1439 226.828L37.1402 227.745ZM45.8271 237.671C46.4313 238.333 47.1263 238.738 47.9121 238.888C48.698 239.038 49.5337 238.941 50.4193 238.598C51.3048 238.254 52.1956 237.673 53.0915 236.855L53.1031 236.844C53.999 236.026 54.656 235.193 55.0741 234.345C55.4959 233.494 55.6677 232.671 55.5894 231.875C55.5111 231.079 55.1698 230.35 54.5656 229.688C53.9614 229.027 53.2664 228.621 52.4805 228.472C51.6982 228.326 50.8642 228.424 49.9787 228.768C49.097 229.108 48.2081 229.687 47.3122 230.505L47.3006 230.516C46.4047 231.334 45.7458 232.169 45.3239 233.02C44.902 233.871 44.7285 234.693 44.8033 235.485C44.8816 236.281 45.2228 237.01 45.8271 237.671ZM47.0326 236.57C46.7094 236.216 46.5605 235.798 46.586 235.317C46.615 234.839 46.8025 234.318 47.1487 233.755C47.5023 233.192 48.0078 232.61 48.6654 232.01L48.6769 231.999C49.3345 231.398 49.9575 230.949 50.5461 230.651C51.142 230.354 51.6774 230.214 52.1521 230.232C52.6343 230.25 53.0369 230.436 53.3601 230.79C53.6833 231.143 53.8321 231.561 53.8067 232.043C53.7851 232.521 53.5975 233.042 53.244 233.605C52.8978 234.168 52.3959 234.75 51.7383 235.35L51.7268 235.361C51.0693 235.962 50.4425 236.411 49.8466 236.708C49.258 237.006 48.7227 237.146 48.2405 237.128C47.7584 237.11 47.3558 236.924 47.0326 236.57Z" fill="#3D009F" fill-opacity="0.2"/>
<path d="M56.9894 239.562C57.2454 239.843 57.5359 240.033 57.8608 240.134C58.1884 240.232 58.5185 240.246 58.8512 240.175C59.1839 240.104 59.4838 239.946 59.7508 239.702L59.7587 239.695C60.0257 239.451 60.2097 239.167 60.3105 238.842C60.4138 238.519 60.4287 238.191 60.3551 237.855C60.2842 237.518 60.122 237.21 59.8684 236.932C59.6148 236.655 59.323 236.465 58.993 236.364C58.6681 236.263 58.3393 236.249 58.0066 236.32C57.6763 236.393 57.3776 236.552 57.1106 236.796L57.1027 236.803C56.8357 237.047 56.6505 237.331 56.5473 237.653C56.444 237.975 56.4278 238.305 56.4987 238.643C56.5723 238.978 56.7358 239.285 56.9894 239.562ZM57.723 238.892C57.5999 238.757 57.5229 238.609 57.4922 238.448C57.4638 238.29 57.4772 238.135 57.5322 237.982C57.5873 237.83 57.6795 237.695 57.8091 237.577L57.817 237.57C57.9518 237.446 58.0975 237.364 58.254 237.323C58.4104 237.282 58.5649 237.284 58.7175 237.329C58.8752 237.374 59.0156 237.464 59.1387 237.599C59.2595 237.731 59.334 237.876 59.3623 238.035C59.3957 238.193 59.3861 238.35 59.3335 238.505C59.2809 238.66 59.1872 238.799 59.0523 238.922L59.0444 238.929C58.9149 239.047 58.7693 239.127 58.6078 239.168C58.4513 239.209 58.2943 239.207 58.1367 239.162C57.9841 239.117 57.8462 239.027 57.723 238.892ZM58.7306 247.218C59.134 247.659 59.5719 247.98 60.0445 248.178C60.5197 248.375 60.9991 248.451 61.4827 248.407C61.9662 248.363 62.4213 248.192 62.8478 247.894L62.8796 247.865L61.9667 246.866L61.9356 246.88C61.6833 247.023 61.4188 247.1 61.1421 247.11C60.8704 247.121 60.6029 247.067 60.3396 246.949C60.0787 246.833 59.8371 246.653 59.615 246.41C59.3179 246.085 59.1466 245.725 59.1011 245.33C59.0556 244.935 59.1323 244.528 59.3312 244.109C59.5325 243.692 59.8499 243.286 60.2835 242.889L60.2914 242.882C60.725 242.486 61.157 242.208 61.5876 242.047C62.0231 241.887 62.4355 241.847 62.8247 241.928C63.2139 242.009 63.5558 242.211 63.8505 242.534C64.0702 242.774 64.2219 243.036 64.3054 243.318C64.3916 243.598 64.4105 243.882 64.3621 244.169C64.3163 244.453 64.2027 244.722 64.0215 244.974L64.0053 244.997L64.9182 245.996L64.9535 245.971C65.3011 245.571 65.524 245.125 65.6223 244.632C65.7232 244.138 65.6989 243.639 65.5493 243.135C65.4024 242.629 65.1309 242.159 64.7348 241.726C64.2397 241.184 63.6918 240.828 63.0912 240.659C62.4905 240.49 61.8677 240.504 61.2226 240.7C60.5826 240.897 59.9533 241.278 59.3347 241.843L59.3268 241.85C58.7108 242.413 58.2747 243.005 58.0185 243.627C57.7673 244.25 57.6989 244.867 57.8131 245.481C57.9297 246.097 58.2356 246.676 58.7306 247.218Z" fill="#3D009F" fill-opacity="0.2"/>
<defs>
<filter id="filter0_di_1176_3095" x="20.3632" y="24" width="244" height="244" filterUnits="userSpaceOnUse" color-interpolation-filters="sRGB">
<feFlood flood-opacity="0" result="BackgroundImageFix"/>
<feColorMatrix in="SourceAlpha" type="matrix" values="0 0 0 0 0 0 0 0 0 0 0 0 0 0 0 0 0 0 127 0" result="hardAlpha"/>
<feOffset dx="-2" dy="2"/>
<feGaussianBlur stdDeviation="1"/>
<feComposite in2="hardAlpha" operator="out"/>
<feColorMatrix type="matrix" values="0 0 0 0 0 0 0 0 0 0 0 0 0 0 0 0 0 0 0.2 0"/>
<feBlend mode="normal" in2="BackgroundImageFix" result="effect1_dropShadow_1176_3095"/>
<feBlend mode="normal" in="SourceGraphic" in2="effect1_dropShadow_1176_3095" result="shape"/>
<feColorMatrix in="SourceAlpha" type="matrix" values="0 0 0 0 0 0 0 0 0 0 0 0 0 0 0 0 0 0 127 0" result="hardAlpha"/>
<feOffset dx="-1" dy="2"/>
<feGaussianBlur stdDeviation="1"/>
<feComposite in2="hardAlpha" operator="arithmetic" k2="-1" k3="1"/>
<feColorMatrix type="matrix" values="0 0 0 0 0.6375 0 0 0 0 0.6375 0 0 0 0 0.6375 0 0 0 0.1 0"/>
<feBlend mode="normal" in2="shape" result="effect2_innerShadow_1176_3095"/>
</filter>
<linearGradient id="paint0_linear_1176_3095" x1="76.1519" y1="35.2025" x2="217.2" y2="256.512" gradientUnits="userSpaceOnUse">
<stop stop-color="#D6C2FF"/>
<stop offset="1" stop-color="#5189F6" stop-opacity="0.67"/>
</linearGradient>
</defs>
</svg>
