<svg width="272" height="218" viewBox="0 0 272 218" fill="none" xmlns="http://www.w3.org/2000/svg">
<g filter="url(#filter0_f_654_3893)">
<ellipse cx="136" cy="81.9999" rx="36" ry="35.9999" fill="#FFC701" fill-opacity="0.35"/>
</g>
<path d="M169.82 83.1803C169.82 101.858 154.678 117 136 117C117.322 117 102.18 101.858 102.18 83.1803C102.18 64.5022 117.322 49.3606 136 49.3606C154.678 49.3606 169.82 64.5022 169.82 83.1803Z" fill="url(#paint0_linear_654_3893)" stroke="url(#paint1_linear_654_3893)" stroke-width="2"/>
<mask id="mask0_654_3893" style="mask-type:alpha" maskUnits="userSpaceOnUse" x="101" y="67" width="70" height="51">
<path d="M170.82 83.1803C170.82 102.411 155.23 118 136 118C116.769 118 101.18 102.411 101.18 83.1803C101.18 63.9499 114.114 68.4262 133.344 68.4262C152.575 68.4262 170.82 63.9499 170.82 83.1803Z" fill="url(#paint2_linear_654_3893)"/>
</mask>
<g mask="url(#mask0_654_3893)">
<g filter="url(#filter1_f_654_3893)">
<path fill-rule="evenodd" clip-rule="evenodd" d="M189.115 146.918C189.115 160.933 177.753 172.295 163.738 172.295C163.639 172.295 163.541 172.294 163.443 172.293V172.295H74.3278L74.3287 172.294C74.2302 172.295 74.1314 172.295 74.0326 172.295C60.0172 172.295 48.6555 160.934 48.6555 146.918C48.6555 132.903 60.0172 121.541 74.0326 121.541C86.1133 121.541 96.2225 129.983 98.7831 141.289L107.377 130.393L134.23 121.541H163.443V121.542C163.541 121.541 163.639 121.541 163.738 121.541C177.753 121.541 189.115 132.902 189.115 146.918Z" fill="#E18700"/>
</g>
</g>
<defs>
<filter id="filter0_f_654_3893" x="0" y="-54" width="272" height="272" filterUnits="userSpaceOnUse" color-interpolation-filters="sRGB">
<feFlood flood-opacity="0" result="BackgroundImageFix"/>
<feBlend mode="normal" in="SourceGraphic" in2="BackgroundImageFix" result="shape"/>
<feGaussianBlur stdDeviation="50" result="effect1_foregroundBlur_654_3893"/>
</filter>
<filter id="filter1_f_654_3893" x="34.6555" y="107.541" width="168.459" height="78.7545" filterUnits="userSpaceOnUse" color-interpolation-filters="sRGB">
<feFlood flood-opacity="0" result="BackgroundImageFix"/>
<feBlend mode="normal" in="SourceGraphic" in2="BackgroundImageFix" result="shape"/>
<feGaussianBlur stdDeviation="7" result="effect1_foregroundBlur_654_3893"/>
</filter>
<linearGradient id="paint0_linear_654_3893" x1="136" y1="48.3606" x2="136" y2="118" gradientUnits="userSpaceOnUse">
<stop stop-color="#FFE600"/>
<stop offset="1" stop-color="#FF7A00"/>
</linearGradient>
<linearGradient id="paint1_linear_654_3893" x1="136" y1="48.3606" x2="136" y2="118" gradientUnits="userSpaceOnUse">
<stop stop-color="white"/>
<stop offset="1" stop-color="white" stop-opacity="0"/>
</linearGradient>
<linearGradient id="paint2_linear_654_3893" x1="136" y1="48.3606" x2="136" y2="118" gradientUnits="userSpaceOnUse">
<stop stop-color="#FFD600"/>
<stop offset="1" stop-color="#FF7A00"/>
</linearGradient>
</defs>
</svg>
