<svg width="14" height="21" viewBox="0 0 14 21" fill="none" xmlns="http://www.w3.org/2000/svg">
<path d="M7.03125 13.2413V5.75988H4.03125V13.2399C2.979 13.7404 2.25075 14.7386 2.25075 15.9005C2.26368 16.6904 2.61506 17.444 3.229 17.9985C3.84294 18.5529 4.67016 18.8638 5.53201 18.8639C6.39385 18.864 7.22116 18.5533 7.83523 17.999C8.44931 17.4446 8.80088 16.6911 8.814 15.9012C8.814 14.7393 8.0865 13.7411 7.032 13.2419L7.03125 13.2413ZM9.28125 3.4375C9.28125 1.54275 7.59825 0 5.53125 0C3.46425 0 1.78125 1.54344 1.78125 3.4375V12.1873C1.21938 12.6588 0.770813 13.2324 0.464133 13.8716C0.157454 14.5108 -0.00061438 15.2015 1.79454e-06 15.8998C1.79454e-06 18.6952 2.4825 20.9715 5.532 20.9715C8.5815 20.9715 11.0633 18.6959 11.0633 15.8998C11.0633 14.4657 10.4048 13.1292 9.282 12.1859V3.43888L9.28125 3.4375ZM9.5625 15.9019C9.56111 16.8814 9.13587 17.8203 8.3801 18.5127C7.62433 19.2051 6.59977 19.5944 5.53125 19.5951C4.46292 19.5939 3.43875 19.2043 2.68332 18.5118C1.9279 17.8193 1.50289 16.8805 1.5015 15.9012C1.5015 14.6671 2.1735 13.5341 3.2835 12.8501V3.43888C3.2835 2.30244 4.29075 1.37638 5.53125 1.37638C6.77175 1.37638 7.78125 2.30175 7.78125 3.43888V12.8508C8.32918 13.1855 8.77845 13.6391 9.08919 14.1712C9.39993 14.7034 9.56251 15.2976 9.5625 15.9012V15.9019ZM10.47 5.75988L13.845 7.546V3.97513L10.47 5.75988V5.75988Z" fill="#F8F8F8"/>
</svg>
