<svg width="44" height="44" viewBox="0 0 44 44" fill="none" xmlns="http://www.w3.org/2000/svg">
<path d="M21.9923 38C30.7617 38 38 30.7617 38 21.9923C38 13.2383 30.7463 6 21.9768 6C13.2228 6 6 13.2383 6 21.9923C6 30.7617 13.2383 38 21.9923 38ZM21.9923 22.7347C21.7139 22.7347 21.42 22.6264 21.0952 22.3171L14.3519 15.5428C14.5684 15.3881 15.0324 15.2489 15.682 15.2489H28.2871C28.9522 15.2489 29.4161 15.3881 29.6327 15.5428L22.8739 22.3171C22.5645 22.6109 22.2861 22.7347 21.9923 22.7347ZM18.9145 21.9768L13.5167 27.3746C13.3929 27.1735 13.3311 26.7869 13.3311 26.2301V17.7545C13.3311 17.1822 13.4084 16.7956 13.5167 16.5945L18.9145 21.9768ZM25.0391 21.9768L30.4369 16.5945C30.5452 16.7956 30.6071 17.1822 30.6071 17.7545V26.2301C30.6071 26.7869 30.5452 27.1735 30.4369 27.3746L25.0391 21.9768ZM21.9768 24.0648C22.5645 24.0648 23.0131 23.8482 23.6008 23.3069L24.0648 22.8739L29.6327 28.4418C29.4161 28.6274 28.9522 28.7356 28.2871 28.7356H15.682C15.0015 28.7356 14.5529 28.6274 14.3364 28.4418L19.8888 22.8739L20.3683 23.3069C20.956 23.8482 21.4045 24.0648 21.9768 24.0648Z" fill="#5189F6"/>
</svg>
