<svg width="175" height="188" viewBox="0 0 175 188" fill="none" xmlns="http://www.w3.org/2000/svg">
<g filter="url(#filter0_f_654_3768)">
<ellipse cx="95.146" cy="61.6758" rx="23.6758" ry="23.6758" fill="#FFC701" fill-opacity="0.5"/>
</g>
<circle cx="95.1461" cy="62.452" r="21.8995" fill="url(#paint0_linear_654_3768)" stroke="url(#paint1_linear_654_3768)" stroke-width="2"/>
<mask id="mask0_654_3768" style="mask-type:alpha" maskUnits="userSpaceOnUse" x="72" y="52" width="47" height="34">
<path d="M118.046 62.452C118.046 75.0991 107.793 85.3516 95.1461 85.3516C82.4991 85.3516 72.2466 75.0991 72.2466 62.452C72.2466 49.805 80.7525 52.7488 93.3995 52.7488C106.047 52.7488 118.046 49.805 118.046 62.452Z" fill="url(#paint2_linear_654_3768)"/>
</mask>
<g mask="url(#mask0_654_3768)">
<g filter="url(#filter1_f_654_3768)">
<path fill-rule="evenodd" clip-rule="evenodd" d="M113.194 121.058C113.259 121.059 113.323 121.059 113.388 121.059C122.605 121.059 130.078 113.587 130.078 104.37C130.078 95.1525 122.605 87.6803 113.388 87.6803C113.323 87.6803 113.259 87.6807 113.194 87.6814V87.6803H102.555C102.787 86.2919 102.909 84.8656 102.909 83.411C102.909 69.2634 91.4398 57.7945 77.2923 57.7945C63.1447 57.7945 51.6758 69.2634 51.6758 83.411C51.6758 84.9222 51.8067 86.403 52.0577 87.8424C43.9458 88.978 37.7032 95.9449 37.7032 104.37C37.7032 113.587 45.1753 121.059 54.3926 121.059C54.4577 121.059 54.5227 121.059 54.5876 121.058L54.5868 121.059H113.194V121.058Z" fill="#E18700"/>
</g>
</g>
<g filter="url(#filter2_bd_654_3768)">
<mask id="path-5-inside-1_654_3768" fill="white">
<path fill-rule="evenodd" clip-rule="evenodd" d="M103.491 122.999C103.556 123 103.62 123 103.685 123C112.902 123 120.374 115.528 120.374 106.311C120.374 97.0932 112.902 89.621 103.685 89.621C103.62 89.621 103.556 89.6214 103.491 89.6221V89.621H99.1793C99.335 88.4789 99.4155 87.3127 99.4155 86.1278C99.4155 71.9802 87.9466 60.5114 73.799 60.5114C59.6515 60.5114 48.1826 71.9802 48.1826 86.1278C48.1826 87.4628 48.2847 88.7738 48.4816 90.0537C47.2633 89.7707 45.9939 89.621 44.6895 89.621C35.4721 89.621 28 97.0932 28 106.311C28 115.528 35.4721 123 44.6895 123C44.7546 123 44.8196 123 44.8845 122.999L44.8836 123H103.491V122.999Z"/>
</mask>
<path fill-rule="evenodd" clip-rule="evenodd" d="M103.491 122.999C103.556 123 103.62 123 103.685 123C112.902 123 120.374 115.528 120.374 106.311C120.374 97.0932 112.902 89.621 103.685 89.621C103.62 89.621 103.556 89.6214 103.491 89.6221V89.621H99.1793C99.335 88.4789 99.4155 87.3127 99.4155 86.1278C99.4155 71.9802 87.9466 60.5114 73.799 60.5114C59.6515 60.5114 48.1826 71.9802 48.1826 86.1278C48.1826 87.4628 48.2847 88.7738 48.4816 90.0537C47.2633 89.7707 45.9939 89.621 44.6895 89.621C35.4721 89.621 28 97.0932 28 106.311C28 115.528 35.4721 123 44.6895 123C44.7546 123 44.8196 123 44.8845 122.999L44.8836 123H103.491V122.999Z" fill="url(#paint3_linear_654_3768)" shape-rendering="crispEdges"/>
<path d="M103.491 122.999L103.514 120.999C102.979 120.993 102.465 121.201 102.085 121.577C101.705 121.952 101.491 122.465 101.491 122.999H103.491ZM103.491 89.6221H101.491C101.491 90.1565 101.705 90.6686 102.085 91.0444C102.465 91.4201 102.979 91.6281 103.514 91.622L103.491 89.6221ZM103.491 89.621H105.491C105.491 88.5164 104.595 87.621 103.491 87.621V89.621ZM99.1793 89.621L97.1976 89.3508C97.1196 89.9231 97.2928 90.5011 97.6726 90.9362C98.0524 91.3713 98.6017 91.621 99.1793 91.621V89.621ZM48.4815 90.0537L48.0289 92.0018C48.6755 92.152 49.3545 91.9717 49.8412 91.5204C50.328 91.0691 50.5592 90.4057 50.4583 89.7497L48.4815 90.0537ZM44.8845 122.999L46.4543 124.238C46.9318 123.633 47.0193 122.808 46.6792 122.116C46.3392 121.425 45.6321 120.99 44.8616 120.999L44.8845 122.999ZM44.8836 123L43.3138 121.761C42.8389 122.362 42.7496 123.182 43.0838 123.872C43.4181 124.562 44.1172 125 44.8836 125V123ZM103.491 123V125C104.595 125 105.491 124.105 105.491 123H103.491ZM103.468 124.999C103.54 125 103.613 125 103.685 125V121C103.628 121 103.571 121 103.514 120.999L103.468 124.999ZM103.685 125C114.007 125 122.374 116.632 122.374 106.31H118.374C118.374 114.423 111.798 121 103.685 121V125ZM122.374 106.31C122.374 95.9886 114.007 87.621 103.685 87.621V91.621C111.798 91.621 118.374 98.1977 118.374 106.31H122.374ZM103.685 87.621C103.613 87.621 103.54 87.6214 103.468 87.6222L103.514 91.622C103.571 91.6213 103.628 91.621 103.685 91.621V87.621ZM101.491 89.621V89.6221H105.491V89.621H101.491ZM99.1793 91.621H103.491V87.621H99.1793V91.621ZM101.161 89.8912C101.329 88.6597 101.415 87.4033 101.415 86.1278H97.4155C97.4155 87.2221 97.3412 88.2979 97.1976 89.3508L101.161 89.8912ZM101.415 86.1278C101.415 70.8756 89.0512 58.5114 73.799 58.5114V62.5114C86.842 62.5114 97.4155 73.0848 97.4155 86.1278H101.415ZM73.799 58.5114C58.5469 58.5114 46.1826 70.8757 46.1826 86.1278H50.1826C50.1826 73.0848 60.756 62.5114 73.799 62.5114V58.5114ZM46.1826 86.1278C46.1826 87.5649 46.2925 88.9776 46.5048 90.3577L50.4583 89.7497C50.2769 88.5701 50.1826 87.3606 50.1826 86.1278H46.1826ZM48.9342 88.1056C47.5686 87.7883 46.1473 87.621 44.6895 87.621V91.621C45.8404 91.621 46.958 91.753 48.0289 92.0018L48.9342 88.1056ZM44.6895 87.621C34.3676 87.621 26 95.9886 26 106.31H30C30 98.1977 36.5767 91.621 44.6895 91.621V87.621ZM26 106.31C26 116.632 34.3676 125 44.6895 125V121C36.5767 121 30 114.423 30 106.31H26ZM44.6895 125C44.7622 125 44.8348 125 44.9074 124.999L44.8616 120.999C44.8044 121 44.747 121 44.6895 121V125ZM46.4534 124.239L46.4543 124.238L43.3147 121.76L43.3138 121.761L46.4534 124.239ZM103.491 121H44.8836V125H103.491V121ZM101.491 122.999V123H105.491V122.999H101.491Z" fill="url(#paint4_linear_654_3768)" mask="url(#path-5-inside-1_654_3768)"/>
</g>
<g filter="url(#filter3_bd_654_3768)">
<mask id="path-7-inside-2_654_3768" fill="white">
<path fill-rule="evenodd" clip-rule="evenodd" d="M133.789 105.67C133.836 105.671 133.883 105.671 133.93 105.671C140.591 105.671 145.991 100.271 145.991 93.6099C145.991 86.9486 140.591 81.5486 133.93 81.5486C133.883 81.5486 133.836 81.5488 133.789 81.5494V81.5486H130.673C130.786 80.7231 130.844 79.8804 130.844 79.0241C130.844 68.7998 122.556 60.5114 112.331 60.5114C102.107 60.5114 93.8187 68.7998 93.8187 79.0241C93.8187 79.9888 93.8925 80.9363 94.0348 81.8613C93.1544 81.6567 92.2369 81.5486 91.2942 81.5486C84.633 81.5486 79.2329 86.9486 79.2329 93.6099C79.2329 100.271 84.633 105.671 91.2942 105.671C91.3413 105.671 91.3883 105.671 91.4352 105.67L91.4345 105.671H133.789V105.67Z"/>
</mask>
<path fill-rule="evenodd" clip-rule="evenodd" d="M133.789 105.67C133.836 105.671 133.883 105.671 133.93 105.671C140.591 105.671 145.991 100.271 145.991 93.6099C145.991 86.9486 140.591 81.5486 133.93 81.5486C133.883 81.5486 133.836 81.5488 133.789 81.5494V81.5486H130.673C130.786 80.7231 130.844 79.8804 130.844 79.0241C130.844 68.7998 122.556 60.5114 112.331 60.5114C102.107 60.5114 93.8187 68.7998 93.8187 79.0241C93.8187 79.9888 93.8925 80.9363 94.0348 81.8613C93.1544 81.6567 92.2369 81.5486 91.2942 81.5486C84.633 81.5486 79.2329 86.9486 79.2329 93.6099C79.2329 100.271 84.633 105.671 91.2942 105.671C91.3413 105.671 91.3883 105.671 91.4352 105.67L91.4345 105.671H133.789V105.67Z" fill="url(#paint5_linear_654_3768)" shape-rendering="crispEdges"/>
<path d="M133.789 105.67L133.812 103.671C133.278 103.664 132.763 103.872 132.383 104.248C132.003 104.624 131.789 105.136 131.789 105.67H133.789ZM133.789 81.5493H131.789C131.789 82.0837 132.003 82.5959 132.383 82.9716C132.763 83.3473 133.278 83.5553 133.812 83.5492L133.789 81.5493ZM133.789 81.5485H135.789C135.789 80.444 134.894 79.5485 133.789 79.5485V81.5485ZM130.673 81.5485L128.692 81.2783C128.614 81.8506 128.787 82.4287 129.167 82.8638C129.547 83.2989 130.096 83.5485 130.673 83.5485V81.5485ZM94.0348 81.8613L93.5822 83.8094C94.2287 83.9596 94.9077 83.7792 95.3945 83.328C95.8813 82.8767 96.1124 82.2133 96.0115 81.5572L94.0348 81.8613ZM91.4352 105.67L93.0043 106.91C93.4822 106.306 93.5701 105.48 93.2302 104.788C92.8902 104.097 92.183 103.662 91.4122 103.671L91.4352 105.67ZM91.4345 105.671L89.8654 104.431C89.39 105.033 89.3003 105.853 89.6345 106.543C89.9687 107.233 90.6679 107.671 91.4345 107.671V105.671ZM133.789 105.671V107.671C134.894 107.671 135.789 106.776 135.789 105.671H133.789ZM133.767 107.67C133.821 107.671 133.875 107.671 133.93 107.671V103.671C133.89 103.671 133.851 103.671 133.812 103.671L133.767 107.67ZM133.93 107.671C141.695 107.671 147.991 101.376 147.991 93.6099H143.991C143.991 99.1666 139.486 103.671 133.93 103.671V107.671ZM147.991 93.6099C147.991 85.844 141.695 79.5485 133.93 79.5485V83.5485C139.486 83.5485 143.991 88.0532 143.991 93.6099H147.991ZM133.93 79.5485C133.875 79.5485 133.821 79.5489 133.767 79.5495L133.812 83.5492C133.851 83.5488 133.89 83.5485 133.93 83.5485V79.5485ZM131.789 81.5485V81.5493H135.789V81.5485H131.789ZM130.673 83.5485H133.789V79.5485H130.673V83.5485ZM132.655 81.8188C132.78 80.904 132.844 79.971 132.844 79.0241H128.844C128.844 79.7898 128.792 80.5422 128.692 81.2783L132.655 81.8188ZM132.844 79.0241C132.844 67.6952 123.66 58.5114 112.331 58.5114V62.5114C121.451 62.5114 128.844 69.9043 128.844 79.0241H132.844ZM112.331 58.5114C101.003 58.5114 91.8187 67.6952 91.8187 79.0241H95.8187C95.8187 69.9043 103.212 62.5114 112.331 62.5114V58.5114ZM91.8187 79.0241C91.8187 80.091 91.9004 81.1401 92.058 82.1653L96.0115 81.5572C95.8847 80.7326 95.8187 79.8867 95.8187 79.0241H91.8187ZM94.4874 79.9132C93.4596 79.6744 92.3904 79.5485 91.2942 79.5485V83.5485C92.0835 83.5485 92.8491 83.639 93.5822 83.8094L94.4874 79.9132ZM91.2942 79.5485C83.5284 79.5485 77.2329 85.844 77.2329 93.6099H81.2329C81.2329 88.0532 85.7375 83.5485 91.2942 83.5485V79.5485ZM77.2329 93.6099C77.2329 101.376 83.5284 107.671 91.2942 107.671V103.671C85.7375 103.671 81.2329 99.1666 81.2329 93.6099H77.2329ZM91.2942 107.671C91.3488 107.671 91.4035 107.671 91.4581 107.67L91.4122 103.671C91.373 103.671 91.3337 103.671 91.2942 103.671V107.671ZM93.0037 106.911L93.0043 106.91L89.866 104.43L89.8654 104.431L93.0037 106.911ZM133.789 103.671H91.4345V107.671H133.789V103.671ZM131.789 105.67V105.671H135.789V105.67H131.789Z" fill="url(#paint6_linear_654_3768)" mask="url(#path-7-inside-2_654_3768)"/>
</g>
<defs>
<filter id="filter0_f_654_3768" x="27.4702" y="-6" width="135.352" height="135.352" filterUnits="userSpaceOnUse" color-interpolation-filters="sRGB">
<feFlood flood-opacity="0" result="BackgroundImageFix"/>
<feBlend mode="normal" in="SourceGraphic" in2="BackgroundImageFix" result="shape"/>
<feGaussianBlur stdDeviation="22" result="effect1_foregroundBlur_654_3768"/>
</filter>
<filter id="filter1_f_654_3768" x="23.7031" y="43.7946" width="120.375" height="91.2648" filterUnits="userSpaceOnUse" color-interpolation-filters="sRGB">
<feFlood flood-opacity="0" result="BackgroundImageFix"/>
<feBlend mode="normal" in="SourceGraphic" in2="BackgroundImageFix" result="shape"/>
<feGaussianBlur stdDeviation="7" result="effect1_foregroundBlur_654_3768"/>
</filter>
<filter id="filter2_bd_654_3768" x="-43" y="25.5114" width="192.375" height="162.489" filterUnits="userSpaceOnUse" color-interpolation-filters="sRGB">
<feFlood flood-opacity="0" result="BackgroundImageFix"/>
<feGaussianBlur in="BackgroundImageFix" stdDeviation="7"/>
<feComposite in2="SourceAlpha" operator="in" result="effect1_backgroundBlur_654_3768"/>
<feColorMatrix in="SourceAlpha" type="matrix" values="0 0 0 0 0 0 0 0 0 0 0 0 0 0 0 0 0 0 127 0" result="hardAlpha"/>
<feOffset dx="-21" dy="15"/>
<feGaussianBlur stdDeviation="25"/>
<feComposite in2="hardAlpha" operator="out"/>
<feColorMatrix type="matrix" values="0 0 0 0 0.113725 0 0 0 0 0.14902 0 0 0 0 0.27451 0 0 0 0.25 0"/>
<feBlend mode="normal" in2="effect1_backgroundBlur_654_3768" result="effect2_dropShadow_654_3768"/>
<feBlend mode="normal" in="SourceGraphic" in2="effect2_dropShadow_654_3768" result="shape"/>
</filter>
<filter id="filter3_bd_654_3768" x="8.23291" y="25.5114" width="166.758" height="145.16" filterUnits="userSpaceOnUse" color-interpolation-filters="sRGB">
<feFlood flood-opacity="0" result="BackgroundImageFix"/>
<feGaussianBlur in="BackgroundImageFix" stdDeviation="7"/>
<feComposite in2="SourceAlpha" operator="in" result="effect1_backgroundBlur_654_3768"/>
<feColorMatrix in="SourceAlpha" type="matrix" values="0 0 0 0 0 0 0 0 0 0 0 0 0 0 0 0 0 0 127 0" result="hardAlpha"/>
<feOffset dx="-21" dy="15"/>
<feGaussianBlur stdDeviation="25"/>
<feComposite in2="hardAlpha" operator="out"/>
<feColorMatrix type="matrix" values="0 0 0 0 0.113438 0 0 0 0 0.148981 0 0 0 0 0.275 0 0 0 0.25 0"/>
<feBlend mode="normal" in2="effect1_backgroundBlur_654_3768" result="effect2_dropShadow_654_3768"/>
<feBlend mode="normal" in="SourceGraphic" in2="effect2_dropShadow_654_3768" result="shape"/>
</filter>
<linearGradient id="paint0_linear_654_3768" x1="95.1461" y1="39.5525" x2="95.1461" y2="85.3516" gradientUnits="userSpaceOnUse">
<stop stop-color="#FFE600"/>
<stop offset="1" stop-color="#FF7A00"/>
</linearGradient>
<linearGradient id="paint1_linear_654_3768" x1="95.1461" y1="39.5525" x2="95.1461" y2="85.3516" gradientUnits="userSpaceOnUse">
<stop stop-color="white"/>
<stop offset="1" stop-color="white" stop-opacity="0"/>
</linearGradient>
<linearGradient id="paint2_linear_654_3768" x1="95.1461" y1="39.5525" x2="95.1461" y2="85.3516" gradientUnits="userSpaceOnUse">
<stop stop-color="#FFD600"/>
<stop offset="1" stop-color="#FF7A00"/>
</linearGradient>
<linearGradient id="paint3_linear_654_3768" x1="74.1872" y1="40.5228" x2="74.1872" y2="131.733" gradientUnits="userSpaceOnUse">
<stop stop-color="white"/>
<stop offset="1" stop-color="white" stop-opacity="0"/>
</linearGradient>
<linearGradient id="paint4_linear_654_3768" x1="74.1872" y1="60.5114" x2="74.1872" y2="123" gradientUnits="userSpaceOnUse">
<stop stop-color="white"/>
<stop offset="1" stop-color="white" stop-opacity="0"/>
</linearGradient>
<linearGradient id="paint5_linear_654_3768" x1="115.717" y1="61.8698" x2="115.717" y2="110.774" gradientUnits="userSpaceOnUse">
<stop stop-color="white"/>
<stop offset="1" stop-color="white" stop-opacity="0"/>
</linearGradient>
<linearGradient id="paint6_linear_654_3768" x1="112.612" y1="60.5114" x2="112.612" y2="105.671" gradientUnits="userSpaceOnUse">
<stop stop-color="white"/>
<stop offset="1" stop-color="white" stop-opacity="0"/>
</linearGradient>
</defs>
</svg>
