<svg width="24" height="25" viewBox="0 0 24 25" fill="none" xmlns="http://www.w3.org/2000/svg">
<path d="M17.7 8.20005C17.9927 7.91821 18.3497 7.71196 18.7401 7.59917C19.1304 7.48637 19.5424 7.47043 19.9403 7.55272C20.3383 7.63501 20.7101 7.81306 21.0237 8.07144C21.3373 8.32982 21.5832 8.66075 21.7401 9.03557C21.897 9.4104 21.9602 9.81781 21.9242 10.2226C21.8882 10.6273 21.754 11.0171 21.5334 11.3584C21.3128 11.6996 21.0123 11.9819 20.658 12.1808C20.3037 12.3798 19.9062 12.4893 19.5 12.5H2M9.6 5.10005C9.83168 4.86375 10.1184 4.68864 10.4344 4.5904C10.7504 4.49216 11.0858 4.47387 11.4106 4.53717C11.7355 4.60047 12.0395 4.74338 12.2955 4.95309C12.5515 5.16279 12.7514 5.43275 12.8774 5.73874C13.0034 6.04474 13.0515 6.37723 13.0174 6.70639C12.9833 7.03555 12.8681 7.35111 12.682 7.62477C12.4959 7.89843 12.2449 8.12164 11.9513 8.2744C11.6578 8.42716 11.3309 8.5047 11 8.50005H2M12.6 19.9C12.8317 20.1363 13.1184 20.3115 13.4344 20.4097C13.7504 20.5079 14.0858 20.5262 14.4106 20.4629C14.7355 20.3996 15.0395 20.2567 15.2955 20.047C15.5515 19.8373 15.7514 19.5673 15.8774 19.2613C16.0034 18.9554 16.0515 18.6229 16.0174 18.2937C15.9833 17.9645 15.8681 17.649 15.682 17.3753C15.4959 17.1017 15.2449 16.8785 14.9513 16.7257C14.6578 16.5729 14.3309 16.4954 14 16.5H2" stroke="#5189F6" stroke-width="2" stroke-linecap="round" stroke-linejoin="round"/>
</svg>
