<svg width="232" height="175" viewBox="0 0 232 175" fill="none" xmlns="http://www.w3.org/2000/svg">
<g filter="url(#filter0_bd_654_3941)">
<mask id="path-1-inside-1_654_3941" fill="white">
<path fill-rule="evenodd" clip-rule="evenodd" d="M124.937 79.522C124.983 79.5225 125.029 79.5228 125.076 79.5228C131.661 79.5228 137 74.1989 137 67.6316C137 61.0643 131.661 55.7404 125.076 55.7404C125.029 55.7404 124.983 55.7407 124.937 55.7412V55.7404H121.856C121.968 54.9266 122.025 54.0958 122.025 53.2516C122.025 43.1715 113.831 35 103.723 35C93.6145 35 85.4202 43.1715 85.4202 53.2516C85.4202 54.2027 85.4931 55.1368 85.6338 56.0487C84.7633 55.847 83.8563 55.7404 82.9244 55.7404C76.3387 55.7404 71 61.0643 71 67.6316C71 74.1989 76.3387 79.5228 82.9244 79.5228C82.9708 79.5228 83.0173 79.5225 83.0636 79.522L83.063 79.5228H124.937V79.522Z"/>
</mask>
<path fill-rule="evenodd" clip-rule="evenodd" d="M124.937 79.522C124.983 79.5225 125.029 79.5228 125.076 79.5228C131.661 79.5228 137 74.1989 137 67.6316C137 61.0643 131.661 55.7404 125.076 55.7404C125.029 55.7404 124.983 55.7407 124.937 55.7412V55.7404H121.856C121.968 54.9266 122.025 54.0958 122.025 53.2516C122.025 43.1715 113.831 35 103.723 35C93.6145 35 85.4202 43.1715 85.4202 53.2516C85.4202 54.2027 85.4931 55.1368 85.6338 56.0487C84.7633 55.847 83.8563 55.7404 82.9244 55.7404C76.3387 55.7404 71 61.0643 71 67.6316C71 74.1989 76.3387 79.5228 82.9244 79.5228C82.9708 79.5228 83.0173 79.5225 83.0636 79.522L83.063 79.5228H124.937V79.522Z" fill="url(#paint0_linear_654_3941)" shape-rendering="crispEdges"/>
<path d="M124.937 79.522L124.96 77.5221C124.425 77.5161 123.911 77.7241 123.531 78.0998C123.151 78.4755 122.937 78.9876 122.937 79.522H124.937ZM124.937 55.7412H122.937C122.937 56.2756 123.151 56.7877 123.531 57.1634C123.911 57.5391 124.425 57.7471 124.96 57.7411L124.937 55.7412ZM124.937 55.7404H126.937C126.937 54.6358 126.042 53.7404 124.937 53.7404V55.7404ZM121.856 55.7404L119.875 55.4695C119.797 56.0418 119.97 56.6201 120.35 57.0553C120.729 57.4906 121.279 57.7404 121.856 57.7404V55.7404ZM85.6338 56.0487L85.1823 57.9971C85.8289 58.1469 86.5077 57.9662 86.9942 57.5147C87.4807 57.0632 87.7116 56.3998 87.6104 55.7438L85.6338 56.0487ZM83.0636 79.522L84.6314 80.7638C85.1102 80.1592 85.1988 79.3333 84.8591 78.6409C84.5194 77.9486 83.8119 77.5133 83.0407 77.5221L83.0636 79.522ZM83.063 79.5228L81.4952 78.281C81.0189 78.8823 80.9285 79.703 81.2625 80.3935C81.5965 81.0841 82.2959 81.5228 83.063 81.5228V79.5228ZM124.937 79.5228V81.5228C126.042 81.5228 126.937 80.6273 126.937 79.5228H124.937ZM124.914 81.5218C124.968 81.5225 125.022 81.5228 125.076 81.5228V77.5228C125.037 77.5228 124.998 77.5225 124.96 77.5221L124.914 81.5218ZM125.076 81.5228C132.761 81.5228 139 75.3087 139 67.6316H135C135 73.0891 130.562 77.5228 125.076 77.5228V81.5228ZM139 67.6316C139 59.9544 132.761 53.7404 125.076 53.7404V57.7404C130.562 57.7404 135 62.1741 135 67.6316H139ZM125.076 53.7404C125.022 53.7404 124.968 53.7407 124.914 53.7413L124.96 57.7411C124.998 57.7406 125.037 57.7404 125.076 57.7404V53.7404ZM122.937 55.7404V55.7412H126.937V55.7404H122.937ZM121.856 57.7404H124.937V53.7404H121.856V57.7404ZM123.838 56.0113C123.962 55.108 124.025 54.1867 124.025 53.2516H120.025C120.025 54.0049 119.974 54.7452 119.875 55.4695L123.838 56.0113ZM124.025 53.2516C124.025 42.0617 114.93 33 103.723 33V37C112.732 37 120.025 44.2813 120.025 53.2516H124.025ZM103.723 33C92.5152 33 83.4202 42.0617 83.4202 53.2516H87.4202C87.4202 44.2813 94.7138 37 103.723 37V33ZM83.4202 53.2516C83.4202 54.3051 83.501 55.3412 83.6571 56.3535L87.6104 55.7438C87.4853 54.9325 87.4202 54.1003 87.4202 53.2516H83.4202ZM86.0852 54.1003C85.0678 53.8646 84.0093 53.7404 82.9244 53.7404V57.7404C83.7033 57.7404 84.4589 57.8295 85.1823 57.9971L86.0852 54.1003ZM82.9244 53.7404C75.2394 53.7404 69 59.9544 69 67.6316H73C73 62.1741 77.438 57.7404 82.9244 57.7404V53.7404ZM69 67.6316C69 75.3087 75.2394 81.5228 82.9244 81.5228V77.5228C77.438 77.5228 73 73.0891 73 67.6316H69ZM82.9244 81.5228C82.9784 81.5228 83.0324 81.5225 83.0865 81.5218L83.0407 77.5221C83.0021 77.5225 82.9633 77.5228 82.9244 77.5228V81.5228ZM84.6308 80.7646L84.6314 80.7638L81.4958 78.2802L81.4952 78.281L84.6308 80.7646ZM124.937 77.5228H83.063V81.5228H124.937V77.5228ZM122.937 79.522V79.5228H126.937V79.522H122.937Z" fill="url(#paint1_linear_654_3941)" mask="url(#path-1-inside-1_654_3941)"/>
</g>
<g filter="url(#filter1_bd_654_3941)">
<mask id="path-3-inside-2_654_3941" fill="white">
<path fill-rule="evenodd" clip-rule="evenodd" d="M160.983 109.999C161.047 110 161.11 110 161.175 110C170.287 110 177.675 102.633 177.675 93.546C177.675 84.4586 170.287 77.0919 161.175 77.0919C161.11 77.0919 161.047 77.0922 160.983 77.093V77.0919H156.72C156.874 75.9658 156.954 74.8161 156.954 73.6479C156.954 59.6999 145.615 48.3928 131.628 48.3928C117.641 48.3928 106.302 59.6999 106.302 73.6479C106.302 74.9641 106.403 76.2567 106.598 77.5185C105.394 77.2394 104.138 77.0919 102.849 77.0919C93.7362 77.0919 86.3489 84.4586 86.3489 93.546C86.3489 102.633 93.7362 110 102.849 110C102.913 110 102.977 110 103.042 109.999L103.041 110H160.983V109.999Z"/>
</mask>
<path fill-rule="evenodd" clip-rule="evenodd" d="M160.983 109.999C161.047 110 161.11 110 161.175 110C170.287 110 177.675 102.633 177.675 93.546C177.675 84.4586 170.287 77.0919 161.175 77.0919C161.11 77.0919 161.047 77.0922 160.983 77.093V77.0919H156.72C156.874 75.9658 156.954 74.8161 156.954 73.6479C156.954 59.6999 145.615 48.3928 131.628 48.3928C117.641 48.3928 106.302 59.6999 106.302 73.6479C106.302 74.9641 106.403 76.2567 106.598 77.5185C105.394 77.2394 104.138 77.0919 102.849 77.0919C93.7362 77.0919 86.3489 84.4586 86.3489 93.546C86.3489 102.633 93.7362 110 102.849 110C102.913 110 102.977 110 103.042 109.999L103.041 110H160.983V109.999Z" fill="url(#paint2_linear_654_3941)" shape-rendering="crispEdges"/>
<path d="M160.983 109.999L161.005 107.999C160.471 107.993 159.956 108.201 159.576 108.577C159.196 108.952 158.983 109.465 158.983 109.999H160.983ZM160.983 77.0929H158.983C158.983 77.6273 159.196 78.1395 159.576 78.5152C159.956 78.8909 160.471 79.0989 161.005 79.0928L160.983 77.0929ZM160.983 77.0919H162.983C162.983 75.9873 162.087 75.0919 160.983 75.0919V77.0919ZM156.72 77.0919L154.739 76.8209C154.66 77.3933 154.833 77.9715 155.213 78.4068C155.593 78.8421 156.142 79.0919 156.72 79.0919V77.0919ZM106.598 77.5185L106.147 79.4668C106.793 79.6167 107.472 79.4359 107.958 78.9845C108.445 78.533 108.676 77.8696 108.575 77.2136L106.598 77.5185ZM103.042 109.999L104.61 111.24C105.088 110.636 105.177 109.81 104.837 109.118C104.497 108.425 103.79 107.99 103.019 107.999L103.042 109.999ZM103.041 110L101.473 108.759C100.997 109.36 100.906 110.181 101.24 110.871C101.574 111.561 102.274 112 103.041 112V110ZM160.983 110V112C162.087 112 162.983 111.105 162.983 110H160.983ZM160.96 111.999C161.031 112 161.103 112 161.175 112V108C161.118 108 161.062 108 161.005 107.999L160.96 111.999ZM161.175 112C171.387 112 179.675 103.743 179.675 93.5459H175.675C175.675 101.523 169.188 108 161.175 108V112ZM179.675 93.5459C179.675 83.3488 171.387 75.0919 161.175 75.0919V79.0919C169.188 79.0919 175.675 85.5684 175.675 93.5459H179.675ZM161.175 75.0919C161.103 75.0919 161.031 75.0923 160.96 75.0931L161.005 79.0928C161.062 79.0922 161.118 79.0919 161.175 79.0919V75.0919ZM158.983 77.0919V77.0929H162.983V77.0919H158.983ZM156.72 79.0919H160.983V75.0919H156.72V79.0919ZM158.702 77.3628C158.868 76.1472 158.954 74.907 158.954 73.6479H154.954C154.954 74.7252 154.88 75.7844 154.739 76.8209L158.702 77.3628ZM158.954 73.6479C158.954 58.5901 146.714 46.3928 131.628 46.3928V50.3928C144.516 50.3928 154.954 60.8097 154.954 73.6479H158.954ZM131.628 46.3928C116.542 46.3928 104.302 58.5901 104.302 73.6479H108.302C108.302 60.8097 118.74 50.3928 131.628 50.3928V46.3928ZM104.302 73.6479C104.302 75.0665 104.411 76.461 104.621 77.8233L108.575 77.2136C108.396 76.0523 108.302 74.8616 108.302 73.6479H104.302ZM107.049 75.5701C105.698 75.2569 104.291 75.0919 102.849 75.0919V79.0919C103.985 79.0919 105.089 79.2218 106.147 79.4668L107.049 75.5701ZM102.849 75.0919C92.6369 75.0919 84.3489 83.3488 84.3489 93.5459H88.3489C88.3489 85.5684 94.8355 79.0919 102.849 79.0919V75.0919ZM84.3489 93.5459C84.3489 103.743 92.6369 112 102.849 112V108C94.8355 108 88.3489 101.523 88.3489 93.5459H84.3489ZM102.849 112C102.921 112 102.993 112 103.064 111.999L103.019 107.999C102.962 108 102.906 108 102.849 108V112ZM104.609 111.241L104.61 111.24L101.474 108.757L101.473 108.759L104.609 111.241ZM160.983 108H103.041V112H160.983V108ZM158.983 109.999V110H162.983V109.999H158.983Z" fill="url(#paint3_linear_654_3941)" mask="url(#path-3-inside-2_654_3941)"/>
</g>
<g filter="url(#filter2_bd_654_3941)">
<mask id="path-5-inside-3_654_3941" fill="white">
<path fill-rule="evenodd" clip-rule="evenodd" d="M190.937 92.9149C190.983 92.9154 191.029 92.9157 191.076 92.9157C197.661 92.9157 203 87.5918 203 81.0245C203 74.4572 197.661 69.1333 191.076 69.1333C191.029 69.1333 190.983 69.1336 190.937 69.1341V69.1333H187.857C187.968 68.3195 188.025 67.4887 188.025 66.6444C188.025 56.5644 179.831 48.3928 169.723 48.3928C159.615 48.3928 151.42 56.5644 151.42 66.6444C151.42 67.5956 151.493 68.5297 151.634 69.4416C150.763 69.24 149.856 69.1333 148.924 69.1333C142.339 69.1333 137 74.4572 137 81.0245C137 87.5918 142.339 92.9157 148.924 92.9157C148.971 92.9157 149.017 92.9154 149.064 92.9149L149.063 92.9157H190.937V92.9149Z"/>
</mask>
<path fill-rule="evenodd" clip-rule="evenodd" d="M190.937 92.9149C190.983 92.9154 191.029 92.9157 191.076 92.9157C197.661 92.9157 203 87.5918 203 81.0245C203 74.4572 197.661 69.1333 191.076 69.1333C191.029 69.1333 190.983 69.1336 190.937 69.1341V69.1333H187.857C187.968 68.3195 188.025 67.4887 188.025 66.6444C188.025 56.5644 179.831 48.3928 169.723 48.3928C159.615 48.3928 151.42 56.5644 151.42 66.6444C151.42 67.5956 151.493 68.5297 151.634 69.4416C150.763 69.24 149.856 69.1333 148.924 69.1333C142.339 69.1333 137 74.4572 137 81.0245C137 87.5918 142.339 92.9157 148.924 92.9157C148.971 92.9157 149.017 92.9154 149.064 92.9149L149.063 92.9157H190.937V92.9149Z" fill="url(#paint4_linear_654_3941)" shape-rendering="crispEdges"/>
<path d="M190.937 92.9149L190.96 90.915C190.425 90.909 189.911 91.117 189.531 91.4927C189.151 91.8684 188.937 92.3805 188.937 92.9149H190.937ZM190.937 69.1341H188.937C188.937 69.6685 189.151 70.1806 189.531 70.5563C189.911 70.932 190.425 71.14 190.96 71.134L190.937 69.1341ZM190.937 69.1333H192.937C192.937 68.0287 192.042 67.1333 190.937 67.1333V69.1333ZM187.856 69.1333L185.875 68.8624C185.797 69.4347 185.97 70.013 186.35 70.4482C186.729 70.8835 187.279 71.1333 187.856 71.1333V69.1333ZM151.634 69.4416L151.182 71.39C151.829 71.5398 152.508 71.3591 152.994 70.9076C153.481 70.4561 153.712 69.7927 153.61 69.1368L151.634 69.4416ZM149.064 92.9149L150.632 94.1567C151.11 93.5521 151.199 92.7262 150.859 92.0339C150.519 91.3415 149.812 90.9062 149.041 90.915L149.064 92.9149ZM149.063 92.9157L147.495 91.6739C147.019 92.2752 146.929 93.0959 147.263 93.7864C147.597 94.477 148.296 94.9157 149.063 94.9157V92.9157ZM190.937 92.9157V94.9157C192.042 94.9157 192.937 94.0202 192.937 92.9157H190.937ZM190.914 94.9148C190.968 94.9154 191.022 94.9157 191.076 94.9157V90.9157C191.037 90.9157 190.998 90.9155 190.96 90.915L190.914 94.9148ZM191.076 94.9157C198.761 94.9157 205 88.7016 205 81.0245H201C201 86.482 196.562 90.9157 191.076 90.9157V94.9157ZM205 81.0245C205 73.3474 198.761 67.1333 191.076 67.1333V71.1333C196.562 71.1333 201 75.567 201 81.0245H205ZM191.076 67.1333C191.022 67.1333 190.968 67.1336 190.914 67.1342L190.96 71.134C190.998 71.1335 191.037 71.1333 191.076 71.1333V67.1333ZM188.937 69.1333V69.1341H192.937V69.1333H188.937ZM187.856 71.1333H190.937V67.1333H187.856V71.1333ZM189.838 69.4043C189.962 68.5009 190.025 67.5795 190.025 66.6444H186.025C186.025 67.3978 185.974 68.1381 185.875 68.8624L189.838 69.4043ZM190.025 66.6444C190.025 55.4545 180.93 46.3928 169.723 46.3928V50.3928C178.732 50.3928 186.025 57.6742 186.025 66.6444H190.025ZM169.723 46.3928C158.515 46.3928 149.42 55.4545 149.42 66.6444H153.42C153.42 57.6742 160.714 50.3928 169.723 50.3928V46.3928ZM149.42 66.6444C149.42 67.698 149.501 68.7341 149.657 69.7465L153.61 69.1368C153.485 68.3254 153.42 67.4931 153.42 66.6444H149.42ZM152.085 67.4932C151.068 67.2575 150.009 67.1333 148.924 67.1333V71.1333C149.703 71.1333 150.459 71.2224 151.182 71.39L152.085 67.4932ZM148.924 67.1333C141.239 67.1333 135 73.3474 135 81.0245H139C139 75.567 143.438 71.1333 148.924 71.1333V67.1333ZM135 81.0245C135 88.7016 141.239 94.9157 148.924 94.9157V90.9157C143.438 90.9157 139 86.482 139 81.0245H135ZM148.924 94.9157C148.978 94.9157 149.032 94.9154 149.087 94.9148L149.041 90.915C149.002 90.9155 148.963 90.9157 148.924 90.9157V94.9157ZM150.631 94.1575L150.632 94.1567L147.496 91.6731L147.495 91.6739L150.631 94.1575ZM190.937 90.9157H149.063V94.9157H190.937V90.9157ZM188.937 92.9149V92.9157H192.937V92.9149H188.937Z" fill="url(#paint5_linear_654_3941)" mask="url(#path-5-inside-3_654_3941)"/>
</g>
<defs>
<filter id="filter0_bd_654_3941" x="0" y="0" width="166" height="144.523" filterUnits="userSpaceOnUse" color-interpolation-filters="sRGB">
<feFlood flood-opacity="0" result="BackgroundImageFix"/>
<feGaussianBlur in="BackgroundImageFix" stdDeviation="7"/>
<feComposite in2="SourceAlpha" operator="in" result="effect1_backgroundBlur_654_3941"/>
<feColorMatrix in="SourceAlpha" type="matrix" values="0 0 0 0 0 0 0 0 0 0 0 0 0 0 0 0 0 0 127 0" result="hardAlpha"/>
<feOffset dx="-21" dy="15"/>
<feGaussianBlur stdDeviation="25"/>
<feComposite in2="hardAlpha" operator="out"/>
<feColorMatrix type="matrix" values="0 0 0 0 0.113438 0 0 0 0 0.148981 0 0 0 0 0.275 0 0 0 0.25 0"/>
<feBlend mode="normal" in2="effect1_backgroundBlur_654_3941" result="effect2_dropShadow_654_3941"/>
<feBlend mode="normal" in="SourceGraphic" in2="effect2_dropShadow_654_3941" result="shape"/>
</filter>
<filter id="filter1_bd_654_3941" x="15.3489" y="13.3928" width="191.326" height="161.607" filterUnits="userSpaceOnUse" color-interpolation-filters="sRGB">
<feFlood flood-opacity="0" result="BackgroundImageFix"/>
<feGaussianBlur in="BackgroundImageFix" stdDeviation="7"/>
<feComposite in2="SourceAlpha" operator="in" result="effect1_backgroundBlur_654_3941"/>
<feColorMatrix in="SourceAlpha" type="matrix" values="0 0 0 0 0 0 0 0 0 0 0 0 0 0 0 0 0 0 127 0" result="hardAlpha"/>
<feOffset dx="-21" dy="15"/>
<feGaussianBlur stdDeviation="25"/>
<feComposite in2="hardAlpha" operator="out"/>
<feColorMatrix type="matrix" values="0 0 0 0 0.113725 0 0 0 0 0.14902 0 0 0 0 0.27451 0 0 0 0.25 0"/>
<feBlend mode="normal" in2="effect1_backgroundBlur_654_3941" result="effect2_dropShadow_654_3941"/>
<feBlend mode="normal" in="SourceGraphic" in2="effect2_dropShadow_654_3941" result="shape"/>
</filter>
<filter id="filter2_bd_654_3941" x="66" y="13.3928" width="166" height="144.523" filterUnits="userSpaceOnUse" color-interpolation-filters="sRGB">
<feFlood flood-opacity="0" result="BackgroundImageFix"/>
<feGaussianBlur in="BackgroundImageFix" stdDeviation="7"/>
<feComposite in2="SourceAlpha" operator="in" result="effect1_backgroundBlur_654_3941"/>
<feColorMatrix in="SourceAlpha" type="matrix" values="0 0 0 0 0 0 0 0 0 0 0 0 0 0 0 0 0 0 127 0" result="hardAlpha"/>
<feOffset dx="-21" dy="15"/>
<feGaussianBlur stdDeviation="25"/>
<feComposite in2="hardAlpha" operator="out"/>
<feColorMatrix type="matrix" values="0 0 0 0 0.113438 0 0 0 0 0.148981 0 0 0 0 0.275 0 0 0 0.25 0"/>
<feBlend mode="normal" in2="effect1_backgroundBlur_654_3941" result="effect2_dropShadow_654_3941"/>
<feBlend mode="normal" in="SourceGraphic" in2="effect2_dropShadow_654_3941" result="shape"/>
</filter>
<linearGradient id="paint0_linear_654_3941" x1="107.07" y1="36.3393" x2="107.07" y2="84.5535" gradientUnits="userSpaceOnUse">
<stop stop-color="white"/>
<stop offset="1" stop-color="white" stop-opacity="0"/>
</linearGradient>
<linearGradient id="paint1_linear_654_3941" x1="104" y1="35" x2="104" y2="79.5228" gradientUnits="userSpaceOnUse">
<stop stop-color="white"/>
<stop offset="1" stop-color="white" stop-opacity="0"/>
</linearGradient>
<linearGradient id="paint2_linear_654_3941" x1="132.012" y1="28.6862" x2="132.012" y2="118.61" gradientUnits="userSpaceOnUse">
<stop stop-color="white"/>
<stop offset="1" stop-color="white" stop-opacity="0"/>
</linearGradient>
<linearGradient id="paint3_linear_654_3941" x1="132.012" y1="48.3928" x2="132.012" y2="110" gradientUnits="userSpaceOnUse">
<stop stop-color="white"/>
<stop offset="1" stop-color="white" stop-opacity="0"/>
</linearGradient>
<linearGradient id="paint4_linear_654_3941" x1="173.07" y1="49.7321" x2="173.07" y2="97.9464" gradientUnits="userSpaceOnUse">
<stop stop-color="white"/>
<stop offset="1" stop-color="white" stop-opacity="0"/>
</linearGradient>
<linearGradient id="paint5_linear_654_3941" x1="170" y1="48.3928" x2="170" y2="92.9156" gradientUnits="userSpaceOnUse">
<stop stop-color="white"/>
<stop offset="1" stop-color="white" stop-opacity="0"/>
</linearGradient>
</defs>
</svg>
