<svg width="219" height="221" viewBox="0 0 219 221" fill="none" xmlns="http://www.w3.org/2000/svg">
<g filter="url(#filter0_f_654_3902)">
<circle cx="138.272" cy="67.831" r="23.7201" fill="#FFC701" fill-opacity="0.5"/>
</g>
<circle cx="138.272" cy="68.6087" r="21.9424" fill="url(#paint0_linear_654_3902)" stroke="url(#paint1_linear_654_3902)" stroke-width="2"/>
<mask id="mask0_654_3902" style="mask-type:alpha" maskUnits="userSpaceOnUse" x="115" y="58" width="47" height="34">
<path d="M161.214 68.6086C161.214 81.2794 150.943 91.551 138.272 91.551C125.601 91.551 115.329 81.2794 115.329 68.6086C115.329 55.9379 123.851 58.8873 136.522 58.8873C149.193 58.8873 161.214 55.9379 161.214 68.6086Z" fill="url(#paint2_linear_654_3902)"/>
</mask>
<g mask="url(#mask0_654_3902)">
<g filter="url(#filter1_f_654_3902)">
<path fill-rule="evenodd" clip-rule="evenodd" d="M156.353 127.325C156.418 127.325 156.483 127.326 156.548 127.326C165.782 127.326 173.269 119.84 173.269 110.605C173.269 101.37 165.782 93.8842 156.548 93.8842C156.483 93.8842 156.418 93.8846 156.353 93.8853V93.8842H145.694C145.927 92.4931 146.049 91.0641 146.049 89.6068C146.049 75.4327 134.558 63.9424 120.384 63.9424C106.21 63.9424 94.7199 75.4327 94.7199 89.6068C94.7199 91.1209 94.8511 92.6044 95.1026 94.0465C86.9754 95.1843 80.7212 102.164 80.7212 110.605C80.7212 119.84 88.2073 127.326 97.4419 127.326C97.5071 127.326 97.5722 127.325 97.6372 127.325L97.6364 127.326H156.353V127.325Z" fill="#E18700"/>
</g>
</g>
<g filter="url(#filter2_bd_654_3902)">
<mask id="path-5-inside-1_654_3902" fill="white">
<path fill-rule="evenodd" clip-rule="evenodd" d="M146.632 129.269C146.697 129.27 146.762 129.27 146.827 129.27C156.061 129.27 163.547 121.784 163.547 112.549C163.547 103.315 156.061 95.8285 146.827 95.8285C146.762 95.8285 146.697 95.8288 146.632 95.8296V95.8285H142.313C142.469 94.6842 142.549 93.5159 142.549 92.3288C142.549 78.1547 131.059 66.6644 116.885 66.6644C102.711 66.6644 91.2204 78.1547 91.2204 92.3288C91.2204 93.6662 91.3228 94.9797 91.52 96.262C90.2994 95.9784 89.0276 95.8285 87.7207 95.8285C78.4861 95.8285 71 103.315 71 112.549C71 121.784 78.4861 129.27 87.7207 129.27C87.7859 129.27 87.851 129.27 87.916 129.269L87.9152 129.27H146.632V129.269Z"/>
</mask>
<path fill-rule="evenodd" clip-rule="evenodd" d="M146.632 129.269C146.697 129.27 146.762 129.27 146.827 129.27C156.061 129.27 163.547 121.784 163.547 112.549C163.547 103.315 156.061 95.8285 146.827 95.8285C146.762 95.8285 146.697 95.8288 146.632 95.8296V95.8285H142.313C142.469 94.6842 142.549 93.5159 142.549 92.3288C142.549 78.1547 131.059 66.6644 116.885 66.6644C102.711 66.6644 91.2204 78.1547 91.2204 92.3288C91.2204 93.6662 91.3228 94.9797 91.52 96.262C90.2994 95.9784 89.0276 95.8285 87.7207 95.8285C78.4861 95.8285 71 103.315 71 112.549C71 121.784 78.4861 129.27 87.7207 129.27C87.7859 129.27 87.851 129.27 87.916 129.269L87.9152 129.27H146.632V129.269Z" fill="url(#paint3_linear_654_3902)" shape-rendering="crispEdges"/>
<path d="M146.632 129.269L146.655 127.269C146.121 127.263 145.606 127.471 145.226 127.847C144.846 128.222 144.632 128.734 144.632 129.269H146.632ZM146.632 95.8296H144.632C144.632 96.3639 144.846 96.8761 145.226 97.2518C145.606 97.6275 146.121 97.8355 146.655 97.8294L146.632 95.8296ZM146.632 95.8285H148.632C148.632 94.7239 147.737 93.8285 146.632 93.8285V95.8285ZM142.313 95.8285L140.331 95.5583C140.253 96.1305 140.426 96.7086 140.806 97.1437C141.186 97.5788 141.735 97.8285 142.313 97.8285V95.8285ZM91.52 96.262L91.0673 98.2101C91.7139 98.3603 92.3929 98.1799 92.8796 97.7287C93.3664 97.2774 93.5976 96.614 93.4967 95.9579L91.52 96.262ZM87.916 129.269L89.4866 130.507C89.9636 129.902 90.0507 129.077 89.7105 128.386C89.3704 127.695 88.6635 127.26 87.8932 127.269L87.916 129.269ZM87.9152 129.27L86.3446 128.032C85.8702 128.633 85.7813 129.453 86.1157 130.143C86.45 130.832 87.1489 131.27 87.9152 131.27V129.27ZM146.632 129.27V131.27C147.737 131.27 148.632 130.375 148.632 129.27H146.632ZM146.609 131.269C146.682 131.27 146.754 131.27 146.827 131.27V127.27C146.769 127.27 146.712 127.27 146.655 127.269L146.609 131.269ZM146.827 131.27C157.166 131.27 165.547 122.888 165.547 112.549H161.547C161.547 120.679 154.957 127.27 146.827 127.27V131.27ZM165.547 112.549C165.547 102.21 157.166 93.8285 146.827 93.8285V97.8285C154.957 97.8285 161.547 104.419 161.547 112.549H165.547ZM146.827 93.8285C146.754 93.8285 146.682 93.8289 146.609 93.8297L146.655 97.8294C146.712 97.8288 146.769 97.8285 146.827 97.8285V93.8285ZM144.632 95.8285V95.8296H148.632V95.8285H144.632ZM142.313 97.8285H146.632V93.8285H142.313V97.8285ZM144.294 96.0986C144.462 94.8651 144.549 93.6065 144.549 92.3288H140.549C140.549 93.4252 140.475 94.5033 140.331 95.5583L144.294 96.0986ZM144.549 92.3288C144.549 77.0501 132.163 64.6644 116.885 64.6644V68.6644C129.954 68.6644 140.549 79.2593 140.549 92.3288H144.549ZM116.885 64.6644C101.606 64.6644 89.2204 77.0501 89.2204 92.3288H93.2204C93.2204 79.2593 103.815 68.6644 116.885 68.6644V64.6644ZM89.2204 92.3288C89.2204 93.7683 89.3306 95.1835 89.5432 96.566L93.4967 95.9579C93.3149 94.7759 93.2204 93.564 93.2204 92.3288H89.2204ZM91.9726 94.3138C90.6047 93.996 89.181 93.8285 87.7207 93.8285V97.8285C88.8741 97.8285 89.9941 97.9607 91.0673 98.2101L91.9726 94.3138ZM87.7207 93.8285C77.3816 93.8285 69 102.21 69 112.549H73C73 104.419 79.5907 97.8285 87.7207 97.8285V93.8285ZM69 112.549C69 122.888 77.3816 131.27 87.7207 131.27V127.27C79.5907 127.27 73 120.679 73 112.549H69ZM87.7207 131.27C87.7936 131.27 87.8663 131.27 87.9389 131.269L87.8932 127.269C87.8358 127.27 87.7783 127.27 87.7207 127.27V131.27ZM89.4858 130.508L89.4866 130.507L86.3455 128.031L86.3446 128.032L89.4858 130.508ZM146.632 127.27H87.9152V131.27H146.632V127.27ZM144.632 129.269V129.27H148.632V129.269H144.632Z" fill="url(#paint4_linear_654_3902)" mask="url(#path-5-inside-1_654_3902)"/>
</g>
<g filter="url(#filter3_bd_654_3902)">
<mask id="path-7-inside-2_654_3902" fill="white">
<path fill-rule="evenodd" clip-rule="evenodd" d="M176.987 111.908C177.034 111.908 177.081 111.909 177.128 111.909C183.802 111.909 189.212 106.499 189.212 99.8248C189.212 93.1511 183.802 87.7409 177.128 87.7409C177.081 87.7409 177.034 87.7412 176.987 87.7417V87.7409H173.866C173.978 86.914 174.037 86.0697 174.037 85.2118C174.037 74.9683 165.733 66.6644 155.489 66.6644C145.246 66.6644 136.942 74.9683 136.942 85.2118C136.942 86.1783 137.016 87.1276 137.158 88.0542C136.276 87.8493 135.357 87.7409 134.413 87.7409C127.739 87.7409 122.329 93.1511 122.329 99.8248C122.329 106.499 127.739 111.909 134.413 111.909C134.46 111.909 134.507 111.908 134.554 111.908L134.553 111.909H176.987V111.908Z"/>
</mask>
<path fill-rule="evenodd" clip-rule="evenodd" d="M176.987 111.908C177.034 111.908 177.081 111.909 177.128 111.909C183.802 111.909 189.212 106.499 189.212 99.8248C189.212 93.1511 183.802 87.7409 177.128 87.7409C177.081 87.7409 177.034 87.7412 176.987 87.7417V87.7409H173.866C173.978 86.914 174.037 86.0697 174.037 85.2118C174.037 74.9683 165.733 66.6644 155.489 66.6644C145.246 66.6644 136.942 74.9683 136.942 85.2118C136.942 86.1783 137.016 87.1276 137.158 88.0542C136.276 87.8493 135.357 87.7409 134.413 87.7409C127.739 87.7409 122.329 93.1511 122.329 99.8248C122.329 106.499 127.739 111.909 134.413 111.909C134.46 111.909 134.507 111.908 134.554 111.908L134.553 111.909H176.987V111.908Z" fill="url(#paint5_linear_654_3902)" shape-rendering="crispEdges"/>
<path d="M176.987 111.908L177.01 109.908C176.476 109.902 175.961 110.11 175.581 110.486C175.201 110.861 174.987 111.374 174.987 111.908H176.987ZM176.987 87.7417H174.987C174.987 88.2761 175.201 88.7883 175.581 89.164C175.961 89.5397 176.476 89.7477 177.01 89.7416L176.987 87.7417ZM176.987 87.7409H178.987C178.987 86.6364 178.092 85.7409 176.987 85.7409V87.7409ZM173.866 87.7409L171.884 87.4707C171.806 88.043 171.979 88.621 172.359 89.0562C172.739 89.4913 173.288 89.7409 173.866 89.7409V87.7409ZM137.158 88.0542L136.706 90.0023C137.352 90.1525 138.031 89.9722 138.518 89.5209C139.005 89.0697 139.236 88.4063 139.135 87.7502L137.158 88.0542ZM134.554 111.908L136.125 113.145C136.602 112.54 136.688 111.715 136.348 111.024C136.008 110.333 135.301 109.899 134.531 109.908L134.554 111.908ZM134.553 111.909L132.982 110.671C132.508 111.273 132.419 112.093 132.754 112.782C133.088 113.471 133.787 113.909 134.553 113.909V111.909ZM176.987 111.909V113.909C178.092 113.909 178.987 113.013 178.987 111.909H176.987ZM176.965 113.908C177.019 113.908 177.073 113.909 177.128 113.909V109.909C177.089 109.909 177.049 109.909 177.01 109.908L176.965 113.908ZM177.128 113.909C184.906 113.909 191.212 107.603 191.212 99.8248H187.212C187.212 105.394 182.697 109.909 177.128 109.909V113.909ZM191.212 99.8248C191.212 92.0465 184.906 85.7409 177.128 85.7409V89.7409C182.697 89.7409 187.212 94.2556 187.212 99.8248H191.212ZM177.128 85.7409C177.073 85.7409 177.019 85.7412 176.965 85.7419L177.01 89.7416C177.049 89.7412 177.089 89.7409 177.128 89.7409V85.7409ZM174.987 87.7409V87.7417H178.987V87.7409H174.987ZM173.866 89.7409H176.987V85.7409H173.866V89.7409ZM175.847 88.0111C175.972 87.0949 176.037 86.1603 176.037 85.2117H172.037C172.037 85.979 171.985 86.7331 171.884 87.4707L175.847 88.0111ZM176.037 85.2117C176.037 73.8637 166.837 64.6644 155.489 64.6644V68.6644C164.628 68.6644 172.037 76.0729 172.037 85.2117H176.037ZM155.489 64.6644C144.141 64.6644 134.942 73.8637 134.942 85.2117H138.942C138.942 76.0729 146.35 68.6644 155.489 68.6644V64.6644ZM134.942 85.2117C134.942 86.2804 135.024 87.3313 135.182 88.3582L139.135 87.7502C139.008 86.9238 138.942 86.0761 138.942 85.2117H134.942ZM137.611 86.1061C136.582 85.8669 135.511 85.7409 134.413 85.7409V89.7409C135.204 89.7409 135.971 89.8316 136.706 90.0023L137.611 86.1061ZM134.413 85.7409C126.634 85.7409 120.329 92.0465 120.329 99.8248H124.329C124.329 94.2556 128.844 89.7409 134.413 89.7409V85.7409ZM120.329 99.8248C120.329 107.603 126.634 113.909 134.413 113.909V109.909C128.844 109.909 124.329 105.394 124.329 99.8248H120.329ZM134.413 113.909C134.468 113.909 134.522 113.908 134.577 113.908L134.531 109.908C134.492 109.909 134.452 109.909 134.413 109.909V113.909ZM136.124 113.146L136.125 113.145L132.983 110.67L132.982 110.671L136.124 113.146ZM176.987 109.909H134.553V113.909H176.987V109.909ZM174.987 111.908V111.909H178.987V111.908H174.987Z" fill="url(#paint6_linear_654_3902)" mask="url(#path-7-inside-2_654_3902)"/>
</g>
<g filter="url(#filter4_bdd_654_3902)">
<path d="M97.2918 126.392L97.7481 132.782C97.9544 135.67 95.1997 137.868 92.4289 137.025C89.6582 136.182 88.5939 132.823 90.3738 130.539L94.311 125.485C95.2508 124.279 97.1829 124.866 97.2918 126.392Z" fill="url(#paint7_linear_654_3902)" stroke="url(#paint8_linear_654_3902)" stroke-width="2"/>
<path d="M119.654 126.392L120.11 132.782C120.316 135.67 117.561 137.868 114.791 137.025C112.02 136.182 110.956 132.823 112.736 130.539L116.673 125.485C117.613 124.279 119.545 124.866 119.654 126.392Z" fill="url(#paint9_linear_654_3902)" stroke="url(#paint10_linear_654_3902)" stroke-width="2"/>
<path d="M142.016 126.392L142.472 132.782C142.678 135.67 139.924 137.868 137.153 137.025C134.382 136.182 133.318 132.823 135.098 130.539L139.035 125.485C139.975 124.279 141.907 124.866 142.016 126.392Z" fill="url(#paint11_linear_654_3902)" stroke="url(#paint12_linear_654_3902)" stroke-width="2"/>
</g>
<g filter="url(#filter5_bdd_654_3902)">
<path d="M103.192 144.092L103.648 150.482C103.855 153.371 101.1 155.569 98.3291 154.726C95.5584 153.883 94.494 150.524 96.2739 148.239L100.211 143.186C101.151 141.979 103.083 142.567 103.192 144.092Z" fill="url(#paint13_linear_654_3902)" stroke="url(#paint14_linear_654_3902)" stroke-width="2"/>
<path d="M122.085 144.092L122.542 150.482C122.748 153.371 119.993 155.569 117.222 154.726C114.452 153.883 113.387 150.524 115.167 148.239L119.104 143.186C120.044 141.979 121.976 142.567 122.085 144.092Z" fill="url(#paint15_linear_654_3902)" stroke="url(#paint16_linear_654_3902)" stroke-width="2"/>
</g>
<defs>
<filter id="filter0_f_654_3902" x="70.5518" y="0.11084" width="135.44" height="135.44" filterUnits="userSpaceOnUse" color-interpolation-filters="sRGB">
<feFlood flood-opacity="0" result="BackgroundImageFix"/>
<feBlend mode="normal" in="SourceGraphic" in2="BackgroundImageFix" result="shape"/>
<feGaussianBlur stdDeviation="22" result="effect1_foregroundBlur_654_3902"/>
</filter>
<filter id="filter1_f_654_3902" x="66.7212" y="49.9424" width="120.547" height="91.3833" filterUnits="userSpaceOnUse" color-interpolation-filters="sRGB">
<feFlood flood-opacity="0" result="BackgroundImageFix"/>
<feBlend mode="normal" in="SourceGraphic" in2="BackgroundImageFix" result="shape"/>
<feGaussianBlur stdDeviation="7" result="effect1_foregroundBlur_654_3902"/>
</filter>
<filter id="filter2_bd_654_3902" x="0" y="31.6644" width="192.547" height="162.606" filterUnits="userSpaceOnUse" color-interpolation-filters="sRGB">
<feFlood flood-opacity="0" result="BackgroundImageFix"/>
<feGaussianBlur in="BackgroundImageFix" stdDeviation="7"/>
<feComposite in2="SourceAlpha" operator="in" result="effect1_backgroundBlur_654_3902"/>
<feColorMatrix in="SourceAlpha" type="matrix" values="0 0 0 0 0 0 0 0 0 0 0 0 0 0 0 0 0 0 127 0" result="hardAlpha"/>
<feOffset dx="-21" dy="15"/>
<feGaussianBlur stdDeviation="25"/>
<feComposite in2="hardAlpha" operator="out"/>
<feColorMatrix type="matrix" values="0 0 0 0 0.113725 0 0 0 0 0.14902 0 0 0 0 0.27451 0 0 0 0.25 0"/>
<feBlend mode="normal" in2="effect1_backgroundBlur_654_3902" result="effect2_dropShadow_654_3902"/>
<feBlend mode="normal" in="SourceGraphic" in2="effect2_dropShadow_654_3902" result="shape"/>
</filter>
<filter id="filter3_bd_654_3902" x="51.3289" y="31.6644" width="166.883" height="145.244" filterUnits="userSpaceOnUse" color-interpolation-filters="sRGB">
<feFlood flood-opacity="0" result="BackgroundImageFix"/>
<feGaussianBlur in="BackgroundImageFix" stdDeviation="7"/>
<feComposite in2="SourceAlpha" operator="in" result="effect1_backgroundBlur_654_3902"/>
<feColorMatrix in="SourceAlpha" type="matrix" values="0 0 0 0 0 0 0 0 0 0 0 0 0 0 0 0 0 0 127 0" result="hardAlpha"/>
<feOffset dx="-21" dy="15"/>
<feGaussianBlur stdDeviation="25"/>
<feComposite in2="hardAlpha" operator="out"/>
<feColorMatrix type="matrix" values="0 0 0 0 0.113438 0 0 0 0 0.148981 0 0 0 0 0.275 0 0 0 0.25 0"/>
<feBlend mode="normal" in2="effect1_backgroundBlur_654_3902" result="effect2_dropShadow_654_3902"/>
<feBlend mode="normal" in="SourceGraphic" in2="effect2_dropShadow_654_3902" result="shape"/>
</filter>
<filter id="filter4_bdd_654_3902" x="17.4993" y="75.838" width="166.984" height="127.37" filterUnits="userSpaceOnUse" color-interpolation-filters="sRGB">
<feFlood flood-opacity="0" result="BackgroundImageFix"/>
<feGaussianBlur in="BackgroundImageFix" stdDeviation="7"/>
<feComposite in2="SourceAlpha" operator="in" result="effect1_backgroundBlur_654_3902"/>
<feColorMatrix in="SourceAlpha" type="matrix" values="0 0 0 0 0 0 0 0 0 0 0 0 0 0 0 0 0 0 127 0" result="hardAlpha"/>
<feOffset dx="-21" dy="15"/>
<feGaussianBlur stdDeviation="25"/>
<feComposite in2="hardAlpha" operator="out"/>
<feColorMatrix type="matrix" values="0 0 0 0 0.113438 0 0 0 0 0.148981 0 0 0 0 0.275 0 0 0 0.25 0"/>
<feBlend mode="normal" in2="effect1_backgroundBlur_654_3902" result="effect2_dropShadow_654_3902"/>
<feColorMatrix in="SourceAlpha" type="matrix" values="0 0 0 0 0 0 0 0 0 0 0 0 0 0 0 0 0 0 127 0" result="hardAlpha"/>
<feOffset dy="-7"/>
<feGaussianBlur stdDeviation="20.5"/>
<feComposite in2="hardAlpha" operator="out"/>
<feColorMatrix type="matrix" values="0 0 0 0 0.1375 0 0 0 0 0.74125 0 0 0 0 1 0 0 0 0.3 0"/>
<feBlend mode="normal" in2="effect2_dropShadow_654_3902" result="effect3_dropShadow_654_3902"/>
<feBlend mode="normal" in="SourceGraphic" in2="effect3_dropShadow_654_3902" result="shape"/>
</filter>
<filter id="filter5_bdd_654_3902" x="23.3994" y="93.5387" width="141.153" height="127.37" filterUnits="userSpaceOnUse" color-interpolation-filters="sRGB">
<feFlood flood-opacity="0" result="BackgroundImageFix"/>
<feGaussianBlur in="BackgroundImageFix" stdDeviation="7"/>
<feComposite in2="SourceAlpha" operator="in" result="effect1_backgroundBlur_654_3902"/>
<feColorMatrix in="SourceAlpha" type="matrix" values="0 0 0 0 0 0 0 0 0 0 0 0 0 0 0 0 0 0 127 0" result="hardAlpha"/>
<feOffset dx="-21" dy="15"/>
<feGaussianBlur stdDeviation="25"/>
<feComposite in2="hardAlpha" operator="out"/>
<feColorMatrix type="matrix" values="0 0 0 0 0.113438 0 0 0 0 0.148981 0 0 0 0 0.275 0 0 0 0.25 0"/>
<feBlend mode="normal" in2="effect1_backgroundBlur_654_3902" result="effect2_dropShadow_654_3902"/>
<feColorMatrix in="SourceAlpha" type="matrix" values="0 0 0 0 0 0 0 0 0 0 0 0 0 0 0 0 0 0 127 0" result="hardAlpha"/>
<feOffset dy="-7"/>
<feGaussianBlur stdDeviation="20.5"/>
<feComposite in2="hardAlpha" operator="out"/>
<feColorMatrix type="matrix" values="0 0 0 0 0.1375 0 0 0 0 0.74125 0 0 0 0 1 0 0 0 0.3 0"/>
<feBlend mode="normal" in2="effect2_dropShadow_654_3902" result="effect3_dropShadow_654_3902"/>
<feBlend mode="normal" in="SourceGraphic" in2="effect3_dropShadow_654_3902" result="shape"/>
</filter>
<linearGradient id="paint0_linear_654_3902" x1="138.272" y1="45.6663" x2="138.272" y2="91.5511" gradientUnits="userSpaceOnUse">
<stop stop-color="#FFE600"/>
<stop offset="1" stop-color="#FF7A00"/>
</linearGradient>
<linearGradient id="paint1_linear_654_3902" x1="138.272" y1="45.6663" x2="138.272" y2="91.5511" gradientUnits="userSpaceOnUse">
<stop stop-color="white"/>
<stop offset="1" stop-color="white" stop-opacity="0"/>
</linearGradient>
<linearGradient id="paint2_linear_654_3902" x1="138.272" y1="45.6662" x2="138.272" y2="91.5511" gradientUnits="userSpaceOnUse">
<stop stop-color="#FFD600"/>
<stop offset="1" stop-color="#FF7A00"/>
</linearGradient>
<linearGradient id="paint3_linear_654_3902" x1="117.274" y1="46.6384" x2="117.274" y2="138.019" gradientUnits="userSpaceOnUse">
<stop stop-color="white"/>
<stop offset="1" stop-color="white" stop-opacity="0"/>
</linearGradient>
<linearGradient id="paint4_linear_654_3902" x1="117.274" y1="66.6644" x2="117.274" y2="129.27" gradientUnits="userSpaceOnUse">
<stop stop-color="white"/>
<stop offset="1" stop-color="white" stop-opacity="0"/>
</linearGradient>
<linearGradient id="paint5_linear_654_3902" x1="158.881" y1="68.0254" x2="158.881" y2="117.021" gradientUnits="userSpaceOnUse">
<stop stop-color="white"/>
<stop offset="1" stop-color="white" stop-opacity="0"/>
</linearGradient>
<linearGradient id="paint6_linear_654_3902" x1="155.77" y1="66.6644" x2="155.77" y2="111.909" gradientUnits="userSpaceOnUse">
<stop stop-color="white"/>
<stop offset="1" stop-color="white" stop-opacity="0"/>
</linearGradient>
<linearGradient id="paint7_linear_654_3902" x1="97.7941" y1="119.387" x2="92.1379" y2="137.982" gradientUnits="userSpaceOnUse">
<stop stop-color="#138EFF"/>
<stop offset="1" stop-color="#00E0FF"/>
</linearGradient>
<linearGradient id="paint8_linear_654_3902" x1="97.7941" y1="119.387" x2="92.1379" y2="137.982" gradientUnits="userSpaceOnUse">
<stop stop-color="white"/>
<stop offset="1" stop-color="white" stop-opacity="0"/>
</linearGradient>
<linearGradient id="paint9_linear_654_3902" x1="120.156" y1="119.387" x2="114.5" y2="137.982" gradientUnits="userSpaceOnUse">
<stop stop-color="#138EFF"/>
<stop offset="1" stop-color="#00E0FF"/>
</linearGradient>
<linearGradient id="paint10_linear_654_3902" x1="120.156" y1="119.387" x2="114.5" y2="137.982" gradientUnits="userSpaceOnUse">
<stop stop-color="white"/>
<stop offset="1" stop-color="white" stop-opacity="0"/>
</linearGradient>
<linearGradient id="paint11_linear_654_3902" x1="142.518" y1="119.387" x2="136.862" y2="137.982" gradientUnits="userSpaceOnUse">
<stop stop-color="#138EFF"/>
<stop offset="1" stop-color="#00E0FF"/>
</linearGradient>
<linearGradient id="paint12_linear_654_3902" x1="142.518" y1="119.387" x2="136.862" y2="137.982" gradientUnits="userSpaceOnUse">
<stop stop-color="white"/>
<stop offset="1" stop-color="white" stop-opacity="0"/>
</linearGradient>
<linearGradient id="paint13_linear_654_3902" x1="103.694" y1="137.088" x2="98.0381" y2="155.683" gradientUnits="userSpaceOnUse">
<stop stop-color="#138EFF"/>
<stop offset="1" stop-color="#00E0FF"/>
</linearGradient>
<linearGradient id="paint14_linear_654_3902" x1="103.694" y1="137.088" x2="98.0381" y2="155.683" gradientUnits="userSpaceOnUse">
<stop stop-color="white"/>
<stop offset="1" stop-color="white" stop-opacity="0"/>
</linearGradient>
<linearGradient id="paint15_linear_654_3902" x1="122.588" y1="137.088" x2="116.931" y2="155.683" gradientUnits="userSpaceOnUse">
<stop stop-color="#138EFF"/>
<stop offset="1" stop-color="#00E0FF"/>
</linearGradient>
<linearGradient id="paint16_linear_654_3902" x1="122.588" y1="137.088" x2="116.931" y2="155.683" gradientUnits="userSpaceOnUse">
<stop stop-color="white"/>
<stop offset="1" stop-color="white" stop-opacity="0"/>
</linearGradient>
</defs>
</svg>
