<svg width="24" height="25" viewBox="0 0 24 25" fill="none" xmlns="http://www.w3.org/2000/svg">
<path d="M3.5 9.5C3.69778 9.5 3.89112 9.44135 4.05557 9.33147C4.22002 9.22159 4.34819 9.06541 4.42388 8.88268C4.49957 8.69996 4.51937 8.49889 4.48079 8.30491C4.4422 8.11093 4.34696 7.93275 4.20711 7.79289C4.06725 7.65304 3.88907 7.5578 3.69509 7.51921C3.50111 7.48063 3.30004 7.50043 3.11732 7.57612C2.93459 7.65181 2.77841 7.77998 2.66853 7.94443C2.55865 8.10888 2.5 8.30222 2.5 8.5C2.5 8.76522 2.60536 9.01957 2.79289 9.20711C2.98043 9.39464 3.23478 9.5 3.5 9.5ZM7.5 9.5H14.5C15.2956 9.5 16.0587 9.18393 16.6213 8.62132C17.1839 8.05871 17.5 7.29565 17.5 6.5C17.5 5.70435 17.1839 4.94129 16.6213 4.37868C16.0587 3.81607 15.2956 3.5 14.5 3.5C13.9739 3.50218 13.4573 3.63994 13 3.9C12.8854 3.96533 12.7849 4.05268 12.7042 4.15703C12.6235 4.26138 12.5643 4.38066 12.5299 4.508C12.4955 4.63534 12.4866 4.76822 12.5038 4.899C12.521 5.02978 12.5639 5.15587 12.63 5.27C12.6962 5.38375 12.7841 5.48333 12.8889 5.56302C12.9936 5.64271 13.113 5.70094 13.2403 5.73439C13.3675 5.76783 13.5002 5.77583 13.6305 5.75791C13.7609 5.74 13.8865 5.69653 14 5.63C14.1538 5.54722 14.3253 5.50264 14.5 5.5C14.7652 5.5 15.0196 5.60536 15.2071 5.79289C15.3946 5.98043 15.5 6.23478 15.5 6.5C15.5 6.76522 15.3946 7.01957 15.2071 7.20711C15.0196 7.39464 14.7652 7.5 14.5 7.5H7.5C7.23478 7.5 6.98043 7.60536 6.79289 7.79289C6.60536 7.98043 6.5 8.23478 6.5 8.5C6.5 8.76522 6.60536 9.01957 6.79289 9.20711C6.98043 9.39464 7.23478 9.5 7.5 9.5ZM3.5 13.5H10.5C10.7652 13.5 11.0196 13.3946 11.2071 13.2071C11.3946 13.0196 11.5 12.7652 11.5 12.5C11.5 12.2348 11.3946 11.9804 11.2071 11.7929C11.0196 11.6054 10.7652 11.5 10.5 11.5H3.5C3.23478 11.5 2.98043 11.6054 2.79289 11.7929C2.60536 11.9804 2.5 12.2348 2.5 12.5C2.5 12.7652 2.60536 13.0196 2.79289 13.2071C2.98043 13.3946 3.23478 13.5 3.5 13.5V13.5ZM20.5 9.5C20.6978 9.5 20.8911 9.44135 21.0556 9.33147C21.22 9.22159 21.3482 9.06541 21.4239 8.88268C21.4996 8.69996 21.5194 8.49889 21.4808 8.30491C21.4422 8.11093 21.347 7.93275 21.2071 7.79289C21.0673 7.65304 20.8891 7.5578 20.6951 7.51921C20.5011 7.48063 20.3 7.50043 20.1173 7.57612C19.9346 7.65181 19.7784 7.77998 19.6685 7.94443C19.5586 8.10888 19.5 8.30222 19.5 8.5C19.5 8.76522 19.6054 9.01957 19.7929 9.20711C19.9804 9.39464 20.2348 9.5 20.5 9.5ZM18.5 11.5H14.5C14.2348 11.5 13.9804 11.6054 13.7929 11.7929C13.6054 11.9804 13.5 12.2348 13.5 12.5C13.5 12.7652 13.6054 13.0196 13.7929 13.2071C13.9804 13.3946 14.2348 13.5 14.5 13.5H18.5C18.7652 13.5 19.0196 13.6054 19.2071 13.7929C19.3946 13.9804 19.5 14.2348 19.5 14.5C19.5 14.7652 19.3946 15.0196 19.2071 15.2071C19.0196 15.3946 18.7652 15.5 18.5 15.5C18.2348 15.5 17.9804 15.6054 17.7929 15.7929C17.6054 15.9804 17.5 16.2348 17.5 16.5C17.5 16.7652 17.6054 17.0196 17.7929 17.2071C17.9804 17.3946 18.2348 17.5 18.5 17.5C19.2956 17.5 20.0587 17.1839 20.6213 16.6213C21.1839 16.0587 21.5 15.2956 21.5 14.5C21.5 13.7044 21.1839 12.9413 20.6213 12.3787C20.0587 11.8161 19.2956 11.5 18.5 11.5V11.5ZM12.5 15.5H8.5C8.23478 15.5 7.98043 15.6054 7.79289 15.7929C7.60536 15.9804 7.5 16.2348 7.5 16.5C7.5 16.7652 7.60536 17.0196 7.79289 17.2071C7.98043 17.3946 8.23478 17.5 8.5 17.5H12.5C12.7652 17.5 13.0196 17.6054 13.2071 17.7929C13.3946 17.9804 13.5 18.2348 13.5 18.5C13.5 18.7652 13.3946 19.0196 13.2071 19.2071C13.0196 19.3946 12.7652 19.5 12.5 19.5C12.3253 19.4974 12.1538 19.4528 12 19.37C11.8862 19.2976 11.7589 19.2491 11.6258 19.2272C11.4927 19.2053 11.3566 19.2105 11.2256 19.2426C11.0946 19.2747 10.9715 19.333 10.8636 19.4139C10.7557 19.4948 10.6652 19.5967 10.5978 19.7135C10.5303 19.8302 10.4871 19.9594 10.4708 20.0933C10.4546 20.2272 10.4655 20.363 10.5031 20.4925C10.5407 20.6221 10.6041 20.7427 10.6895 20.847C10.7749 20.9514 10.8805 21.0375 11 21.1C11.4573 21.3601 11.9739 21.4978 12.5 21.5C13.2956 21.5 14.0587 21.1839 14.6213 20.6213C15.1839 20.0587 15.5 19.2956 15.5 18.5C15.5 17.7044 15.1839 16.9413 14.6213 16.3787C14.0587 15.8161 13.2956 15.5 12.5 15.5V15.5ZM4.5 15.5H3.5C3.23478 15.5 2.98043 15.6054 2.79289 15.7929C2.60536 15.9804 2.5 16.2348 2.5 16.5C2.5 16.7652 2.60536 17.0196 2.79289 17.2071C2.98043 17.3946 3.23478 17.5 3.5 17.5H4.5C4.76522 17.5 5.01957 17.3946 5.20711 17.2071C5.39464 17.0196 5.5 16.7652 5.5 16.5C5.5 16.2348 5.39464 15.9804 5.20711 15.7929C5.01957 15.6054 4.76522 15.5 4.5 15.5Z" fill="#A5A8B0"/>
</svg>
