<svg width="18" height="22" viewBox="0 0 18 22" fill="none" xmlns="http://www.w3.org/2000/svg">
<path d="M16 12.6653V8.9C16 5.52215 13.815 2.67665 10.855 1.8209C10.562 1.046 9.846 0.5 9 0.5C8.154 0.5 7.438 1.046 7.145 1.8209C4.185 2.6777 2 5.52215 2 8.9V12.6653L0.293001 14.4576C0.199958 14.555 0.126171 14.6707 0.0758854 14.7981C0.0256001 14.9255 -0.000189449 15.0621 1.04767e-06 15.2V17.3C1.04767e-06 17.5785 0.105358 17.8455 0.292894 18.0425C0.48043 18.2394 0.734784 18.35 1 18.35H17C17.2652 18.35 17.5196 18.2394 17.7071 18.0425C17.8946 17.8455 18 17.5785 18 17.3V15.2C18.0002 15.0621 17.9744 14.9255 17.9241 14.7981C17.8738 14.6707 17.8 14.555 17.707 14.4576L16 12.6653ZM16 16.25H2V15.6347L3.707 13.8423C3.80004 13.745 3.87383 13.6293 3.92412 13.5019C3.9744 13.3745 4.00019 13.2379 4 13.1V8.9C4 6.00515 6.243 3.65 9 3.65C11.757 3.65 14 6.00515 14 8.9V13.1C14 13.3793 14.105 13.646 14.293 13.8423L16 15.6347V16.25ZM9 21.5C9.6193 21.5008 10.2235 21.299 10.7285 20.9227C11.2335 20.5463 11.6143 20.0141 11.818 19.4H6.182C6.38566 20.0141 6.76648 20.5463 7.27151 20.9227C7.77654 21.299 8.3807 21.5008 9 21.5Z" fill="white"/>
<path d="M18 3.65C18 5.09975 16.8487 6.275 15.4286 6.275C14.0084 6.275 12.8571 5.09975 12.8571 3.65C12.8571 2.20025 14.0084 1.025 15.4286 1.025C16.8487 1.025 18 2.20025 18 3.65Z" fill="#FF4E00"/>
</svg>
