<svg width="16" height="16" viewBox="0 0 16 16" fill="none" xmlns="http://www.w3.org/2000/svg">
<g clip-path="url(#clip0_1091_4222)">
<path fill-rule="evenodd" clip-rule="evenodd" d="M8 16C12.4183 16 16 12.4183 16 8C16 3.58172 12.4183 0 8 0C3.58172 0 0 3.58172 0 8C0 12.4183 3.58172 16 8 16ZM6.89213 9.26V10.415H8.64713V9.41C8.64713 9.2 8.69213 9.015 8.78213 8.855C8.88213 8.685 8.99213 8.55 9.11213 8.45C9.24213 8.34 9.47213 8.16 9.80213 7.91C10.3721 7.47 10.7621 7.085 10.9721 6.755C11.1921 6.415 11.3021 5.935 11.3021 5.315C11.3021 4.435 11.0121 3.785 10.4321 3.365C9.85213 2.935 9.08213 2.72 8.12213 2.72C7.14213 2.72 6.30713 2.87 5.61713 3.17V4.64C6.25713 4.41 6.89713 4.295 7.53713 4.295C8.10713 4.295 8.52713 4.39 8.79713 4.58C9.06713 4.76 9.20213 5.065 9.20213 5.495C9.20213 5.845 9.13713 6.13 9.00713 6.35C8.87713 6.56 8.65213 6.79 8.33213 7.04C7.78213 7.48 7.40213 7.84 7.19213 8.12C6.99213 8.4 6.89213 8.78 6.89213 9.26ZM6.78713 11.765V13.67H8.81213V11.765H6.78713Z" fill="#5189F6"/>
</g>
<defs>
<clipPath id="clip0_1091_4222">
<rect width="16" height="16" fill="white"/>
</clipPath>
</defs>
</svg>
