<svg width="219" height="184" viewBox="0 0 219 184" fill="none" xmlns="http://www.w3.org/2000/svg">
<g filter="url(#filter0_bd_654_3788)">
<mask id="path-1-inside-1_654_3788" fill="white">
<path fill-rule="evenodd" clip-rule="evenodd" d="M146.66 97.6278C146.725 97.6286 146.79 97.629 146.855 97.629C156.093 97.629 163.582 90.14 163.582 80.902C163.582 71.6639 156.093 64.175 146.855 64.175C146.79 64.175 146.725 64.1753 146.66 64.1761V64.175H142.339C142.495 63.0303 142.576 61.8615 142.576 60.674C142.576 46.4946 131.081 35 116.902 35C102.723 35 91.2279 46.4946 91.2279 60.674C91.2279 62.0119 91.3302 63.3259 91.5275 64.6086C90.3065 64.3249 89.0343 64.175 87.727 64.175C78.4889 64.175 71 71.6639 71 80.902C71 90.14 78.4889 97.629 87.727 97.629C87.7922 97.629 87.8573 97.6286 87.9223 97.6278L87.9214 97.629H146.66V97.6278Z"/>
</mask>
<path fill-rule="evenodd" clip-rule="evenodd" d="M146.66 97.6278C146.725 97.6286 146.79 97.629 146.855 97.629C156.093 97.629 163.582 90.14 163.582 80.902C163.582 71.6639 156.093 64.175 146.855 64.175C146.79 64.175 146.725 64.1753 146.66 64.1761V64.175H142.339C142.495 63.0303 142.576 61.8615 142.576 60.674C142.576 46.4946 131.081 35 116.902 35C102.723 35 91.2279 46.4946 91.2279 60.674C91.2279 62.0119 91.3302 63.3259 91.5275 64.6086C90.3065 64.3249 89.0343 64.175 87.727 64.175C78.4889 64.175 71 71.6639 71 80.902C71 90.14 78.4889 97.629 87.727 97.629C87.7922 97.629 87.8573 97.6286 87.9223 97.6278L87.9214 97.629H146.66V97.6278Z" fill="url(#paint0_linear_654_3788)" shape-rendering="crispEdges"/>
<path d="M146.66 97.6278L146.683 95.628C146.149 95.6219 145.634 95.8299 145.254 96.2056C144.874 96.5813 144.66 97.0935 144.66 97.6278H146.66ZM146.66 64.1761H144.66C144.66 64.7105 144.874 65.2226 145.254 65.5983C145.634 65.974 146.149 66.182 146.683 66.176L146.66 64.1761ZM146.66 64.175H148.66C148.66 63.0704 147.765 62.175 146.66 62.175V64.175ZM142.339 64.175L140.358 63.9048C140.279 64.477 140.453 65.0551 140.832 65.4902C141.212 65.9253 141.762 66.175 142.339 66.175V64.175ZM91.5275 64.6086L91.0749 66.5567C91.7215 66.707 92.4005 66.5266 92.8872 66.0753C93.374 65.6241 93.6052 64.9607 93.5043 64.3046L91.5275 64.6086ZM87.9223 97.6278L89.4929 98.8661C89.9699 98.2611 90.057 97.436 89.7168 96.7448C89.3767 96.0536 88.6698 95.6192 87.8995 95.628L87.9223 97.6278ZM87.9214 97.6289L86.3509 96.3907C85.8765 96.9924 85.7876 97.8123 86.1219 98.5017C86.4563 99.1912 87.1552 99.629 87.9214 99.629V97.6289ZM146.66 97.6289V99.629C147.765 99.629 148.66 98.7335 148.66 97.6289H146.66ZM146.638 99.6277C146.71 99.6285 146.782 99.629 146.855 99.629V95.6289C146.798 95.6289 146.74 95.6286 146.683 95.628L146.638 99.6277ZM146.855 99.629C157.197 99.629 165.582 91.2446 165.582 80.902H161.582C161.582 89.0355 154.988 95.6289 146.855 95.6289V99.629ZM165.582 80.902C165.582 70.5593 157.197 62.175 146.855 62.175V66.175C154.988 66.175 161.582 72.7685 161.582 80.902H165.582ZM146.855 62.175C146.782 62.175 146.71 62.1754 146.638 62.1762L146.683 66.176C146.74 66.1753 146.798 66.175 146.855 66.175V62.175ZM144.66 64.175V64.1761H148.66V64.175H144.66ZM142.339 66.175H146.66V62.175H142.339V66.175ZM144.321 64.4452C144.489 63.2112 144.576 61.9522 144.576 60.674H140.576C140.576 61.7709 140.501 62.8494 140.358 63.9048L144.321 64.4452ZM144.576 60.674C144.576 45.3901 132.186 33 116.902 33V37C129.977 37 140.576 47.5992 140.576 60.674H144.576ZM116.902 33C101.618 33 89.2279 45.3901 89.2279 60.674H93.2279C93.2279 47.5992 103.827 37 116.902 37V33ZM89.2279 60.674C89.2279 62.114 89.3381 63.5297 89.5508 64.9126L93.5043 64.3046C93.3224 63.1221 93.2279 61.9098 93.2279 60.674H89.2279ZM91.9802 62.6605C90.6118 62.3426 89.1877 62.175 87.727 62.175V66.175C88.8809 66.175 90.0013 66.3073 91.0749 66.5567L91.9802 62.6605ZM87.727 62.175C77.3844 62.175 69 70.5593 69 80.902H73C73 72.7685 79.5935 66.175 87.727 66.175V62.175ZM69 80.902C69 91.2446 77.3844 99.629 87.727 99.629V95.6289C79.5935 95.6289 73 89.0355 73 80.902H69ZM87.727 99.629C87.7998 99.629 87.8726 99.6285 87.9452 99.6277L87.8995 95.628C87.842 95.6286 87.7845 95.6289 87.727 95.6289V99.629ZM89.492 98.8672L89.4929 98.8661L86.3517 96.3896L86.3509 96.3907L89.492 98.8672ZM146.66 95.6289H87.9214V99.629H146.66V95.6289ZM144.66 97.6278V97.6289H148.66V97.6278H144.66Z" fill="url(#paint1_linear_654_3788)" mask="url(#path-1-inside-1_654_3788)"/>
</g>
<g filter="url(#filter1_bd_654_3788)">
<mask id="path-3-inside-2_654_3788" fill="white">
<path fill-rule="evenodd" clip-rule="evenodd" d="M177.027 80.2604C177.074 80.261 177.12 80.2612 177.167 80.2612C183.844 80.2612 189.256 74.8491 189.256 68.1728C189.256 61.4966 183.844 56.0844 177.167 56.0844C177.12 56.0844 177.074 56.0847 177.027 56.0852V56.0844H173.904C174.017 55.2571 174.075 54.4125 174.075 53.5543C174.075 43.307 165.768 35 155.521 35C145.274 35 136.966 43.307 136.966 53.5543C136.966 54.5212 137.04 55.4708 137.183 56.3978C136.301 56.1928 135.381 56.0844 134.436 56.0844C127.76 56.0844 122.348 61.4966 122.348 68.1728C122.348 74.8491 127.76 80.2612 134.436 80.2612C134.483 80.2612 134.53 80.261 134.577 80.2604L134.577 80.2612H177.027V80.2604Z"/>
</mask>
<path fill-rule="evenodd" clip-rule="evenodd" d="M177.027 80.2604C177.074 80.261 177.12 80.2612 177.167 80.2612C183.844 80.2612 189.256 74.8491 189.256 68.1728C189.256 61.4966 183.844 56.0844 177.167 56.0844C177.12 56.0844 177.074 56.0847 177.027 56.0852V56.0844H173.904C174.017 55.2571 174.075 54.4125 174.075 53.5543C174.075 43.307 165.768 35 155.521 35C145.274 35 136.966 43.307 136.966 53.5543C136.966 54.5212 137.04 55.4708 137.183 56.3978C136.301 56.1928 135.381 56.0844 134.436 56.0844C127.76 56.0844 122.348 61.4966 122.348 68.1728C122.348 74.8491 127.76 80.2612 134.436 80.2612C134.483 80.2612 134.53 80.261 134.577 80.2604L134.577 80.2612H177.027V80.2604Z" fill="url(#paint2_linear_654_3788)" shape-rendering="crispEdges"/>
<path d="M177.027 80.2604L177.05 78.2606C176.515 78.2545 176.001 78.4625 175.621 78.8382C175.241 79.2139 175.027 79.726 175.027 80.2604H177.027ZM177.027 56.0852H175.027C175.027 56.6196 175.241 57.1318 175.621 57.5075C176.001 57.8832 176.515 58.0912 177.05 58.0851L177.027 56.0852ZM177.027 56.0844H179.027C179.027 54.9798 178.131 54.0844 177.027 54.0844V56.0844ZM173.904 56.0844L171.922 55.8142C171.844 56.3865 172.018 56.9645 172.397 57.3996C172.777 57.8347 173.326 58.0844 173.904 58.0844V56.0844ZM137.183 56.3978L136.73 58.3459C137.377 58.4962 138.056 58.3158 138.543 57.8645C139.029 57.4133 139.261 56.7499 139.16 56.0938L137.183 56.3978ZM134.577 80.2604L136.149 81.498C136.625 80.893 136.712 80.068 136.372 79.377C136.032 78.686 135.325 78.2517 134.555 78.2606L134.577 80.2604ZM134.577 80.2612L133.006 79.0236C132.532 79.6254 132.443 80.4452 132.778 81.1344C133.112 81.8236 133.811 82.2612 134.577 82.2612V80.2612ZM177.027 80.2612V82.2612C178.131 82.2612 179.027 81.3658 179.027 80.2612H177.027ZM177.004 82.2603C177.058 82.2609 177.113 82.2612 177.167 82.2612V78.2612C177.128 78.2612 177.089 78.261 177.05 78.2606L177.004 82.2603ZM177.167 82.2612C184.948 82.2612 191.256 75.9536 191.256 68.1728H187.256C187.256 73.7445 182.739 78.2612 177.167 78.2612V82.2612ZM191.256 68.1728C191.256 60.392 184.948 54.0844 177.167 54.0844V58.0844C182.739 58.0844 187.256 62.6011 187.256 68.1728H191.256ZM177.167 54.0844C177.113 54.0844 177.058 54.0847 177.004 54.0853L177.05 58.0851C177.089 58.0846 177.128 58.0844 177.167 58.0844V54.0844ZM175.027 56.0844V56.0852H179.027V56.0844H175.027ZM173.904 58.0844H177.027V54.0844H173.904V58.0844ZM175.886 56.3546C176.011 55.438 176.075 54.5032 176.075 53.5543H172.075C172.075 54.3219 172.023 55.0762 171.922 55.8142L175.886 56.3546ZM176.075 53.5543C176.075 42.2025 166.873 33 155.521 33V37C164.663 37 172.075 44.4116 172.075 53.5543H176.075ZM155.521 33C144.169 33 134.966 42.2025 134.966 53.5543H138.966C138.966 44.4116 146.378 37 155.521 37V33ZM134.966 53.5543C134.966 54.6233 135.048 55.6746 135.206 56.7018L139.16 56.0938C139.033 55.2671 138.966 54.4191 138.966 53.5543H134.966ZM137.636 54.4497C136.606 54.2105 135.535 54.0844 134.436 54.0844V58.0844C135.228 58.0844 135.995 58.1751 136.73 58.3459L137.636 54.4497ZM134.436 54.0844C126.655 54.0844 120.348 60.392 120.348 68.1728H124.348C124.348 62.6011 128.865 58.0844 134.436 58.0844V54.0844ZM120.348 68.1728C120.348 75.9536 126.655 82.2612 134.436 82.2612V78.2612C128.865 78.2612 124.348 73.7445 124.348 68.1728H120.348ZM134.436 82.2612C134.491 82.2612 134.546 82.2609 134.6 82.2603L134.555 78.2606C134.515 78.261 134.476 78.2612 134.436 78.2612V82.2612ZM136.148 81.4988L136.149 81.498L133.006 79.0228L133.006 79.0236L136.148 81.4988ZM177.027 78.2612H134.577V82.2612H177.027V78.2612ZM175.027 80.2604V80.2612H179.027V80.2604H175.027Z" fill="url(#paint3_linear_654_3788)" mask="url(#path-3-inside-2_654_3788)"/>
</g>
<g filter="url(#filter2_bdd_654_3788)">
<path d="M111.306 88.5254L111.762 94.9179C111.969 97.808 109.213 100.007 106.441 99.1635C103.669 98.3203 102.604 94.9594 104.385 92.6737L108.323 87.6182C109.264 86.4113 111.197 86.9994 111.306 88.5254Z" fill="url(#paint4_linear_654_3788)" stroke="url(#paint5_linear_654_3788)" stroke-width="2"/>
<path d="M133.676 88.5254L134.133 94.9179C134.339 97.808 131.583 100.007 128.811 99.1635C126.039 98.3203 124.974 94.9594 126.755 92.6737L130.694 87.6182C131.634 86.4113 133.567 86.9994 133.676 88.5254Z" fill="url(#paint6_linear_654_3788)" stroke="url(#paint7_linear_654_3788)" stroke-width="2"/>
<path d="M156.047 88.5254L156.503 94.9179C156.71 97.808 153.954 100.007 151.182 99.1635C148.41 98.3203 147.345 94.9594 149.126 92.6737L153.064 87.6182C154.005 86.4113 155.938 86.9994 156.047 88.5254Z" fill="url(#paint8_linear_654_3788)" stroke="url(#paint9_linear_654_3788)" stroke-width="2"/>
</g>
<g filter="url(#filter3_bdd_654_3788)">
<path d="M117.208 106.233L117.665 112.625C117.871 115.515 115.115 117.714 112.343 116.871C109.571 116.028 108.506 112.667 110.287 110.381L114.226 105.326C115.166 104.119 117.099 104.707 117.208 106.233Z" fill="url(#paint10_linear_654_3788)" stroke="url(#paint11_linear_654_3788)" stroke-width="2"/>
<path d="M136.109 106.233L136.565 112.625C136.771 115.515 134.015 117.714 131.243 116.871C128.471 116.028 127.407 112.667 129.187 110.381L133.126 105.326C134.066 104.119 136 104.707 136.109 106.233Z" fill="url(#paint12_linear_654_3788)" stroke="url(#paint13_linear_654_3788)" stroke-width="2"/>
</g>
<defs>
<filter id="filter0_bd_654_3788" x="0" y="0" width="192.582" height="162.629" filterUnits="userSpaceOnUse" color-interpolation-filters="sRGB">
<feFlood flood-opacity="0" result="BackgroundImageFix"/>
<feGaussianBlur in="BackgroundImageFix" stdDeviation="7"/>
<feComposite in2="SourceAlpha" operator="in" result="effect1_backgroundBlur_654_3788"/>
<feColorMatrix in="SourceAlpha" type="matrix" values="0 0 0 0 0 0 0 0 0 0 0 0 0 0 0 0 0 0 127 0" result="hardAlpha"/>
<feOffset dx="-21" dy="15"/>
<feGaussianBlur stdDeviation="25"/>
<feComposite in2="hardAlpha" operator="out"/>
<feColorMatrix type="matrix" values="0 0 0 0 0.113725 0 0 0 0 0.14902 0 0 0 0 0.27451 0 0 0 0.25 0"/>
<feBlend mode="normal" in2="effect1_backgroundBlur_654_3788" result="effect2_dropShadow_654_3788"/>
<feBlend mode="normal" in="SourceGraphic" in2="effect2_dropShadow_654_3788" result="shape"/>
</filter>
<filter id="filter1_bd_654_3788" x="51.3479" y="0" width="166.908" height="145.261" filterUnits="userSpaceOnUse" color-interpolation-filters="sRGB">
<feFlood flood-opacity="0" result="BackgroundImageFix"/>
<feGaussianBlur in="BackgroundImageFix" stdDeviation="7"/>
<feComposite in2="SourceAlpha" operator="in" result="effect1_backgroundBlur_654_3788"/>
<feColorMatrix in="SourceAlpha" type="matrix" values="0 0 0 0 0 0 0 0 0 0 0 0 0 0 0 0 0 0 127 0" result="hardAlpha"/>
<feOffset dx="-21" dy="15"/>
<feGaussianBlur stdDeviation="25"/>
<feComposite in2="hardAlpha" operator="out"/>
<feColorMatrix type="matrix" values="0 0 0 0 0.113438 0 0 0 0 0.148981 0 0 0 0 0.275 0 0 0 0.25 0"/>
<feBlend mode="normal" in2="effect1_backgroundBlur_654_3788" result="effect2_dropShadow_654_3788"/>
<feBlend mode="normal" in="SourceGraphic" in2="effect2_dropShadow_654_3788" result="shape"/>
</filter>
<filter id="filter2_bdd_654_3788" x="31.5098" y="37.9709" width="167.005" height="127.375" filterUnits="userSpaceOnUse" color-interpolation-filters="sRGB">
<feFlood flood-opacity="0" result="BackgroundImageFix"/>
<feGaussianBlur in="BackgroundImageFix" stdDeviation="7"/>
<feComposite in2="SourceAlpha" operator="in" result="effect1_backgroundBlur_654_3788"/>
<feColorMatrix in="SourceAlpha" type="matrix" values="0 0 0 0 0 0 0 0 0 0 0 0 0 0 0 0 0 0 127 0" result="hardAlpha"/>
<feOffset dx="-21" dy="15"/>
<feGaussianBlur stdDeviation="25"/>
<feComposite in2="hardAlpha" operator="out"/>
<feColorMatrix type="matrix" values="0 0 0 0 0.113438 0 0 0 0 0.148981 0 0 0 0 0.275 0 0 0 0.25 0"/>
<feBlend mode="normal" in2="effect1_backgroundBlur_654_3788" result="effect2_dropShadow_654_3788"/>
<feColorMatrix in="SourceAlpha" type="matrix" values="0 0 0 0 0 0 0 0 0 0 0 0 0 0 0 0 0 0 127 0" result="hardAlpha"/>
<feOffset dy="-7"/>
<feGaussianBlur stdDeviation="20.5"/>
<feComposite in2="hardAlpha" operator="out"/>
<feColorMatrix type="matrix" values="0 0 0 0 0.1375 0 0 0 0 0.74125 0 0 0 0 1 0 0 0 0.3 0"/>
<feBlend mode="normal" in2="effect2_dropShadow_654_3788" result="effect3_dropShadow_654_3788"/>
<feBlend mode="normal" in="SourceGraphic" in2="effect3_dropShadow_654_3788" result="shape"/>
</filter>
<filter id="filter3_bdd_654_3788" x="37.4124" y="55.6783" width="141.164" height="127.375" filterUnits="userSpaceOnUse" color-interpolation-filters="sRGB">
<feFlood flood-opacity="0" result="BackgroundImageFix"/>
<feGaussianBlur in="BackgroundImageFix" stdDeviation="7"/>
<feComposite in2="SourceAlpha" operator="in" result="effect1_backgroundBlur_654_3788"/>
<feColorMatrix in="SourceAlpha" type="matrix" values="0 0 0 0 0 0 0 0 0 0 0 0 0 0 0 0 0 0 127 0" result="hardAlpha"/>
<feOffset dx="-21" dy="15"/>
<feGaussianBlur stdDeviation="25"/>
<feComposite in2="hardAlpha" operator="out"/>
<feColorMatrix type="matrix" values="0 0 0 0 0.113438 0 0 0 0 0.148981 0 0 0 0 0.275 0 0 0 0.25 0"/>
<feBlend mode="normal" in2="effect1_backgroundBlur_654_3788" result="effect2_dropShadow_654_3788"/>
<feColorMatrix in="SourceAlpha" type="matrix" values="0 0 0 0 0 0 0 0 0 0 0 0 0 0 0 0 0 0 127 0" result="hardAlpha"/>
<feOffset dy="-7"/>
<feGaussianBlur stdDeviation="20.5"/>
<feComposite in2="hardAlpha" operator="out"/>
<feColorMatrix type="matrix" values="0 0 0 0 0.1375 0 0 0 0 0.74125 0 0 0 0 1 0 0 0 0.3 0"/>
<feBlend mode="normal" in2="effect2_dropShadow_654_3788" result="effect3_dropShadow_654_3788"/>
<feBlend mode="normal" in="SourceGraphic" in2="effect3_dropShadow_654_3788" result="shape"/>
</filter>
<linearGradient id="paint0_linear_654_3788" x1="117.291" y1="14.9665" x2="117.291" y2="106.381" gradientUnits="userSpaceOnUse">
<stop stop-color="white"/>
<stop offset="1" stop-color="white" stop-opacity="0"/>
</linearGradient>
<linearGradient id="paint1_linear_654_3788" x1="117.291" y1="35" x2="117.291" y2="97.629" gradientUnits="userSpaceOnUse">
<stop stop-color="white"/>
<stop offset="1" stop-color="white" stop-opacity="0"/>
</linearGradient>
<linearGradient id="paint2_linear_654_3788" x1="158.914" y1="36.3615" x2="158.914" y2="85.3755" gradientUnits="userSpaceOnUse">
<stop stop-color="white"/>
<stop offset="1" stop-color="white" stop-opacity="0"/>
</linearGradient>
<linearGradient id="paint3_linear_654_3788" x1="155.802" y1="35" x2="155.802" y2="80.2613" gradientUnits="userSpaceOnUse">
<stop stop-color="white"/>
<stop offset="1" stop-color="white" stop-opacity="0"/>
</linearGradient>
<linearGradient id="paint4_linear_654_3788" x1="111.808" y1="81.5183" x2="106.15" y2="100.12" gradientUnits="userSpaceOnUse">
<stop stop-color="#138EFF"/>
<stop offset="1" stop-color="#00E0FF"/>
</linearGradient>
<linearGradient id="paint5_linear_654_3788" x1="111.808" y1="81.5183" x2="106.15" y2="100.12" gradientUnits="userSpaceOnUse">
<stop stop-color="white"/>
<stop offset="1" stop-color="white" stop-opacity="0"/>
</linearGradient>
<linearGradient id="paint6_linear_654_3788" x1="134.179" y1="81.5183" x2="128.52" y2="100.12" gradientUnits="userSpaceOnUse">
<stop stop-color="#138EFF"/>
<stop offset="1" stop-color="#00E0FF"/>
</linearGradient>
<linearGradient id="paint7_linear_654_3788" x1="134.179" y1="81.5183" x2="128.52" y2="100.12" gradientUnits="userSpaceOnUse">
<stop stop-color="white"/>
<stop offset="1" stop-color="white" stop-opacity="0"/>
</linearGradient>
<linearGradient id="paint8_linear_654_3788" x1="156.549" y1="81.5183" x2="150.891" y2="100.12" gradientUnits="userSpaceOnUse">
<stop stop-color="#138EFF"/>
<stop offset="1" stop-color="#00E0FF"/>
</linearGradient>
<linearGradient id="paint9_linear_654_3788" x1="156.549" y1="81.5183" x2="150.891" y2="100.12" gradientUnits="userSpaceOnUse">
<stop stop-color="white"/>
<stop offset="1" stop-color="white" stop-opacity="0"/>
</linearGradient>
<linearGradient id="paint10_linear_654_3788" x1="117.711" y1="99.2257" x2="112.052" y2="117.828" gradientUnits="userSpaceOnUse">
<stop stop-color="#138EFF"/>
<stop offset="1" stop-color="#00E0FF"/>
</linearGradient>
<linearGradient id="paint11_linear_654_3788" x1="117.711" y1="99.2257" x2="112.052" y2="117.828" gradientUnits="userSpaceOnUse">
<stop stop-color="white"/>
<stop offset="1" stop-color="white" stop-opacity="0"/>
</linearGradient>
<linearGradient id="paint12_linear_654_3788" x1="136.611" y1="99.2257" x2="130.952" y2="117.828" gradientUnits="userSpaceOnUse">
<stop stop-color="#138EFF"/>
<stop offset="1" stop-color="#00E0FF"/>
</linearGradient>
<linearGradient id="paint13_linear_654_3788" x1="136.611" y1="99.2257" x2="130.952" y2="117.828" gradientUnits="userSpaceOnUse">
<stop stop-color="white"/>
<stop offset="1" stop-color="white" stop-opacity="0"/>
</linearGradient>
</defs>
</svg>
