<svg width="219" height="195" viewBox="0 0 219 195" fill="none" xmlns="http://www.w3.org/2000/svg">
<g filter="url(#filter0_f_1340_3612)">
<circle cx="138.272" cy="67.7201" r="23.7201" fill="#FFC701" fill-opacity="0.5"/>
</g>
<circle cx="138.272" cy="68.4978" r="21.9424" fill="url(#paint0_linear_1340_3612)" stroke="url(#paint1_linear_1340_3612)" stroke-width="2"/>
<mask id="mask0_1340_3612" style="mask-type:alpha" maskUnits="userSpaceOnUse" x="115" y="58" width="47" height="34">
<path d="M161.214 68.4978C161.214 81.1685 150.943 91.4402 138.272 91.4402C125.601 91.4402 115.329 81.1685 115.329 68.4978C115.329 55.8271 123.851 58.7764 136.522 58.7764C149.193 58.7764 161.214 55.8271 161.214 68.4978Z" fill="url(#paint2_linear_1340_3612)"/>
</mask>
<g mask="url(#mask0_1340_3612)">
<g filter="url(#filter1_f_1340_3612)">
<path fill-rule="evenodd" clip-rule="evenodd" d="M156.353 127.214C156.418 127.214 156.483 127.215 156.548 127.215C165.782 127.215 173.269 119.729 173.269 110.494C173.269 101.259 165.782 93.7733 156.548 93.7733C156.483 93.7733 156.418 93.7737 156.353 93.7745V93.7733H145.694C145.927 92.3823 146.049 90.9533 146.049 89.4959C146.049 75.3219 134.558 63.8315 120.384 63.8315C106.21 63.8315 94.7199 75.3219 94.7199 89.4959C94.7199 91.0101 94.8511 92.4936 95.1026 93.9357C86.9754 95.0735 80.7212 102.053 80.7212 110.494C80.7212 119.729 88.2073 127.215 97.4419 127.215C97.5071 127.215 97.5722 127.214 97.6372 127.214L97.6364 127.215H156.353V127.214Z" fill="#E18700"/>
</g>
</g>
<g filter="url(#filter2_bd_1340_3612)">
<mask id="path-5-inside-1_1340_3612" fill="white">
<path fill-rule="evenodd" clip-rule="evenodd" d="M146.632 129.158C146.697 129.159 146.762 129.159 146.827 129.159C156.061 129.159 163.547 121.673 163.547 112.438C163.547 103.204 156.061 95.7176 146.827 95.7176C146.762 95.7176 146.697 95.718 146.632 95.7187V95.7176H142.313C142.469 94.5733 142.549 93.405 142.549 92.2179C142.549 78.0439 131.059 66.5535 116.885 66.5535C102.711 66.5535 91.2204 78.0439 91.2204 92.2179C91.2204 93.5554 91.3228 94.8689 91.52 96.1511C90.2994 95.8675 89.0276 95.7176 87.7207 95.7176C78.4861 95.7176 71 103.204 71 112.438C71 121.673 78.4861 129.159 87.7207 129.159C87.7859 129.159 87.851 129.159 87.916 129.158L87.9152 129.159H146.632V129.158Z"/>
</mask>
<path fill-rule="evenodd" clip-rule="evenodd" d="M146.632 129.158C146.697 129.159 146.762 129.159 146.827 129.159C156.061 129.159 163.547 121.673 163.547 112.438C163.547 103.204 156.061 95.7176 146.827 95.7176C146.762 95.7176 146.697 95.718 146.632 95.7187V95.7176H142.313C142.469 94.5733 142.549 93.405 142.549 92.2179C142.549 78.0439 131.059 66.5535 116.885 66.5535C102.711 66.5535 91.2204 78.0439 91.2204 92.2179C91.2204 93.5554 91.3228 94.8689 91.52 96.1511C90.2994 95.8675 89.0276 95.7176 87.7207 95.7176C78.4861 95.7176 71 103.204 71 112.438C71 121.673 78.4861 129.159 87.7207 129.159C87.7859 129.159 87.851 129.159 87.916 129.158L87.9152 129.159H146.632V129.158Z" fill="url(#paint3_linear_1340_3612)" shape-rendering="crispEdges"/>
<path d="M146.632 129.158L146.655 127.158C146.121 127.152 145.606 127.36 145.226 127.736C144.846 128.111 144.632 128.624 144.632 129.158H146.632ZM146.632 95.7187H144.632C144.632 96.2531 144.846 96.7653 145.226 97.141C145.606 97.5167 146.121 97.7247 146.655 97.7186L146.632 95.7187ZM146.632 95.7176H148.632C148.632 94.613 147.737 93.7176 146.632 93.7176V95.7176ZM142.313 95.7176L140.331 95.4474C140.253 96.0197 140.426 96.5977 140.806 97.0328C141.186 97.4679 141.735 97.7176 142.313 97.7176V95.7176ZM91.52 96.1511L91.0673 98.0992C91.7139 98.2494 92.3929 98.0691 92.8796 97.6178C93.3664 97.1666 93.5976 96.5032 93.4967 95.8471L91.52 96.1511ZM87.916 129.158L89.4866 130.396C89.9636 129.791 90.0507 128.966 89.7105 128.275C89.3704 127.584 88.6635 127.149 87.8932 127.158L87.916 129.158ZM87.9152 129.159L86.3446 127.921C85.8702 128.523 85.7813 129.342 86.1157 130.032C86.45 130.721 87.1489 131.159 87.9152 131.159V129.159ZM146.632 129.159V131.159C147.737 131.159 148.632 130.264 148.632 129.159H146.632ZM146.609 131.158C146.682 131.159 146.754 131.159 146.827 131.159V127.159C146.769 127.159 146.712 127.159 146.655 127.158L146.609 131.158ZM146.827 131.159C157.166 131.159 165.547 122.778 165.547 112.438H161.547C161.547 120.568 154.957 127.159 146.827 127.159V131.159ZM165.547 112.438C165.547 102.099 157.166 93.7176 146.827 93.7176V97.7176C154.957 97.7176 161.547 104.308 161.547 112.438H165.547ZM146.827 93.7176C146.754 93.7176 146.682 93.718 146.609 93.7188L146.655 97.7186C146.712 97.7179 146.769 97.7176 146.827 97.7176V93.7176ZM144.632 95.7176V95.7187H148.632V95.7176H144.632ZM142.313 97.7176H146.632V93.7176H142.313V97.7176ZM144.294 95.9878C144.462 94.7542 144.549 93.4957 144.549 92.2179H140.549C140.549 93.3144 140.475 94.3924 140.331 95.4474L144.294 95.9878ZM144.549 92.2179C144.549 76.9393 132.163 64.5535 116.885 64.5535V68.5535C129.954 68.5535 140.549 79.1484 140.549 92.2179H144.549ZM116.885 64.5535C101.606 64.5535 89.2204 76.9393 89.2204 92.2179H93.2204C93.2204 79.1484 103.815 68.5535 116.885 68.5535V64.5535ZM89.2204 92.2179C89.2204 93.6575 89.3306 95.0726 89.5432 96.4551L93.4967 95.8471C93.3149 94.6651 93.2204 93.4532 93.2204 92.2179H89.2204ZM91.9726 94.203C90.6047 93.8852 89.181 93.7176 87.7207 93.7176V97.7176C88.8741 97.7176 89.9941 97.8499 91.0673 98.0992L91.9726 94.203ZM87.7207 93.7176C77.3816 93.7176 69 102.099 69 112.438H73C73 104.308 79.5907 97.7176 87.7207 97.7176V93.7176ZM69 112.438C69 122.778 77.3816 131.159 87.7207 131.159V127.159C79.5907 127.159 73 120.568 73 112.438H69ZM87.7207 131.159C87.7936 131.159 87.8663 131.159 87.9389 131.158L87.8932 127.158C87.8358 127.159 87.7783 127.159 87.7207 127.159V131.159ZM89.4858 130.397L89.4866 130.396L86.3455 127.92L86.3446 127.921L89.4858 130.397ZM146.632 127.159H87.9152V131.159H146.632V127.159ZM144.632 129.158V129.159H148.632V129.158H144.632Z" fill="url(#paint4_linear_1340_3612)" mask="url(#path-5-inside-1_1340_3612)"/>
</g>
<g filter="url(#filter3_bd_1340_3612)">
<mask id="path-7-inside-2_1340_3612" fill="white">
<path fill-rule="evenodd" clip-rule="evenodd" d="M176.987 111.797C177.034 111.798 177.081 111.798 177.128 111.798C183.802 111.798 189.212 106.388 189.212 99.714C189.212 93.0402 183.802 87.6301 177.128 87.6301C177.081 87.6301 177.034 87.6304 176.987 87.6309V87.6301H173.866C173.978 86.8031 174.037 85.9588 174.037 85.1009C174.037 74.8575 165.733 66.5535 155.489 66.5535C145.246 66.5535 136.942 74.8575 136.942 85.1009C136.942 86.0675 137.016 87.0167 137.158 87.9434C136.276 87.7384 135.357 87.6301 134.413 87.6301C127.739 87.6301 122.329 93.0402 122.329 99.714C122.329 106.388 127.739 111.798 134.413 111.798C134.46 111.798 134.507 111.798 134.554 111.797L134.553 111.798H176.987V111.797Z"/>
</mask>
<path fill-rule="evenodd" clip-rule="evenodd" d="M176.987 111.797C177.034 111.798 177.081 111.798 177.128 111.798C183.802 111.798 189.212 106.388 189.212 99.714C189.212 93.0402 183.802 87.6301 177.128 87.6301C177.081 87.6301 177.034 87.6304 176.987 87.6309V87.6301H173.866C173.978 86.8031 174.037 85.9588 174.037 85.1009C174.037 74.8575 165.733 66.5535 155.489 66.5535C145.246 66.5535 136.942 74.8575 136.942 85.1009C136.942 86.0675 137.016 87.0167 137.158 87.9434C136.276 87.7384 135.357 87.6301 134.413 87.6301C127.739 87.6301 122.329 93.0402 122.329 99.714C122.329 106.388 127.739 111.798 134.413 111.798C134.46 111.798 134.507 111.798 134.554 111.797L134.553 111.798H176.987V111.797Z" fill="url(#paint5_linear_1340_3612)" shape-rendering="crispEdges"/>
<path d="M176.987 111.797L177.01 109.797C176.476 109.791 175.961 109.999 175.581 110.375C175.201 110.751 174.987 111.263 174.987 111.797H176.987ZM176.987 87.6309H174.987C174.987 88.1653 175.201 88.6774 175.581 89.0531C175.961 89.4288 176.476 89.6368 177.01 89.6308L176.987 87.6309ZM176.987 87.6301H178.987C178.987 86.5255 178.092 85.6301 176.987 85.6301V87.6301ZM173.866 87.6301L171.884 87.3599C171.806 87.9322 171.979 88.5102 172.359 88.9453C172.739 89.3804 173.288 89.6301 173.866 89.6301V87.6301ZM137.158 87.9434L136.706 89.8915C137.352 90.0417 138.031 89.8614 138.518 89.4101C139.005 88.9588 139.236 88.2954 139.135 87.6394L137.158 87.9434ZM134.554 111.797L136.125 113.035C136.602 112.429 136.688 111.605 136.348 110.914C136.008 110.223 135.301 109.788 134.531 109.797L134.554 111.797ZM134.553 111.798L132.982 110.56C132.508 111.162 132.419 111.982 132.754 112.671C133.088 113.36 133.787 113.798 134.553 113.798V111.798ZM176.987 111.798V113.798C178.092 113.798 178.987 112.902 178.987 111.798H176.987ZM176.965 113.797C177.019 113.798 177.073 113.798 177.128 113.798V109.798C177.089 109.798 177.049 109.798 177.01 109.797L176.965 113.797ZM177.128 113.798C184.906 113.798 191.212 107.492 191.212 99.714H187.212C187.212 105.283 182.697 109.798 177.128 109.798V113.798ZM191.212 99.714C191.212 91.9357 184.906 85.6301 177.128 85.6301V89.6301C182.697 89.6301 187.212 94.1448 187.212 99.714H191.212ZM177.128 85.6301C177.073 85.6301 177.019 85.6304 176.965 85.631L177.01 89.6308C177.049 89.6303 177.089 89.6301 177.128 89.6301V85.6301ZM174.987 87.6301V87.6309H178.987V87.6301H174.987ZM173.866 89.6301H176.987V85.6301H173.866V89.6301ZM175.847 87.9003C175.972 86.984 176.037 86.0494 176.037 85.1009H172.037C172.037 85.8682 171.985 86.6222 171.884 87.3599L175.847 87.9003ZM176.037 85.1009C176.037 73.7529 166.837 64.5535 155.489 64.5535V68.5535C164.628 68.5535 172.037 75.962 172.037 85.1009H176.037ZM155.489 64.5535C144.141 64.5535 134.942 73.7529 134.942 85.1009H138.942C138.942 75.962 146.35 68.5535 155.489 68.5535V64.5535ZM134.942 85.1009C134.942 86.1696 135.024 87.2205 135.182 88.2474L139.135 87.6394C139.008 86.813 138.942 85.9653 138.942 85.1009H134.942ZM137.611 85.9953C136.582 85.7561 135.511 85.6301 134.413 85.6301V89.6301C135.204 89.6301 135.971 89.7208 136.706 89.8915L137.611 85.9953ZM134.413 85.6301C126.634 85.6301 120.329 91.9357 120.329 99.714H124.329C124.329 94.1448 128.844 89.6301 134.413 89.6301V85.6301ZM120.329 99.714C120.329 107.492 126.634 113.798 134.413 113.798V109.798C128.844 109.798 124.329 105.283 124.329 99.714H120.329ZM134.413 113.798C134.468 113.798 134.522 113.798 134.577 113.797L134.531 109.797C134.492 109.798 134.452 109.798 134.413 109.798V113.798ZM136.124 113.035L136.125 113.035L132.983 110.56L132.982 110.56L136.124 113.035ZM176.987 109.798H134.553V113.798H176.987V109.798ZM174.987 111.797V111.798H178.987V111.797H174.987Z" fill="url(#paint6_linear_1340_3612)" mask="url(#path-7-inside-2_1340_3612)"/>
</g>
<circle cx="123" cy="127.889" r="4.5" fill="url(#paint7_radial_1340_3612)" fill-opacity="0.9" stroke="#94D3E1"/>
<circle cx="141" cy="127.889" r="4.5" fill="url(#paint8_radial_1340_3612)" fill-opacity="0.9" stroke="#94D3E1"/>
<circle cx="115" cy="143.889" r="4.5" fill="url(#paint9_radial_1340_3612)" fill-opacity="0.9" stroke="#94D3E1"/>
<circle cx="158" cy="127.889" r="4.5" fill="url(#paint10_radial_1340_3612)" fill-opacity="0.9" stroke="#94D3E1"/>
<circle cx="133" cy="143.889" r="4.5" fill="url(#paint11_radial_1340_3612)" fill-opacity="0.9" stroke="#94D3E1"/>
<circle cx="151" cy="143.889" r="4.5" fill="url(#paint12_radial_1340_3612)" fill-opacity="0.9" stroke="#94D3E1"/>
<defs>
<filter id="filter0_f_1340_3612" x="70.5518" y="0" width="135.44" height="135.44" filterUnits="userSpaceOnUse" color-interpolation-filters="sRGB">
<feFlood flood-opacity="0" result="BackgroundImageFix"/>
<feBlend mode="normal" in="SourceGraphic" in2="BackgroundImageFix" result="shape"/>
<feGaussianBlur stdDeviation="22" result="effect1_foregroundBlur_1340_3612"/>
</filter>
<filter id="filter1_f_1340_3612" x="66.7212" y="49.8315" width="120.547" height="91.3833" filterUnits="userSpaceOnUse" color-interpolation-filters="sRGB">
<feFlood flood-opacity="0" result="BackgroundImageFix"/>
<feBlend mode="normal" in="SourceGraphic" in2="BackgroundImageFix" result="shape"/>
<feGaussianBlur stdDeviation="7" result="effect1_foregroundBlur_1340_3612"/>
</filter>
<filter id="filter2_bd_1340_3612" x="0" y="31.5535" width="192.547" height="162.606" filterUnits="userSpaceOnUse" color-interpolation-filters="sRGB">
<feFlood flood-opacity="0" result="BackgroundImageFix"/>
<feGaussianBlur in="BackgroundImageFix" stdDeviation="7"/>
<feComposite in2="SourceAlpha" operator="in" result="effect1_backgroundBlur_1340_3612"/>
<feColorMatrix in="SourceAlpha" type="matrix" values="0 0 0 0 0 0 0 0 0 0 0 0 0 0 0 0 0 0 127 0" result="hardAlpha"/>
<feOffset dx="-21" dy="15"/>
<feGaussianBlur stdDeviation="25"/>
<feComposite in2="hardAlpha" operator="out"/>
<feColorMatrix type="matrix" values="0 0 0 0 0.113725 0 0 0 0 0.14902 0 0 0 0 0.27451 0 0 0 0.25 0"/>
<feBlend mode="normal" in2="effect1_backgroundBlur_1340_3612" result="effect2_dropShadow_1340_3612"/>
<feBlend mode="normal" in="SourceGraphic" in2="effect2_dropShadow_1340_3612" result="shape"/>
</filter>
<filter id="filter3_bd_1340_3612" x="51.3289" y="31.5535" width="166.883" height="145.244" filterUnits="userSpaceOnUse" color-interpolation-filters="sRGB">
<feFlood flood-opacity="0" result="BackgroundImageFix"/>
<feGaussianBlur in="BackgroundImageFix" stdDeviation="7"/>
<feComposite in2="SourceAlpha" operator="in" result="effect1_backgroundBlur_1340_3612"/>
<feColorMatrix in="SourceAlpha" type="matrix" values="0 0 0 0 0 0 0 0 0 0 0 0 0 0 0 0 0 0 127 0" result="hardAlpha"/>
<feOffset dx="-21" dy="15"/>
<feGaussianBlur stdDeviation="25"/>
<feComposite in2="hardAlpha" operator="out"/>
<feColorMatrix type="matrix" values="0 0 0 0 0.113438 0 0 0 0 0.148981 0 0 0 0 0.275 0 0 0 0.25 0"/>
<feBlend mode="normal" in2="effect1_backgroundBlur_1340_3612" result="effect2_dropShadow_1340_3612"/>
<feBlend mode="normal" in="SourceGraphic" in2="effect2_dropShadow_1340_3612" result="shape"/>
</filter>
<linearGradient id="paint0_linear_1340_3612" x1="138.272" y1="45.5554" x2="138.272" y2="91.4402" gradientUnits="userSpaceOnUse">
<stop stop-color="#FFE600"/>
<stop offset="1" stop-color="#FF7A00"/>
</linearGradient>
<linearGradient id="paint1_linear_1340_3612" x1="138.272" y1="45.5554" x2="138.272" y2="91.4402" gradientUnits="userSpaceOnUse">
<stop stop-color="white"/>
<stop offset="1" stop-color="white" stop-opacity="0"/>
</linearGradient>
<linearGradient id="paint2_linear_1340_3612" x1="138.272" y1="45.5554" x2="138.272" y2="91.4402" gradientUnits="userSpaceOnUse">
<stop stop-color="#FFD600"/>
<stop offset="1" stop-color="#FF7A00"/>
</linearGradient>
<linearGradient id="paint3_linear_1340_3612" x1="117.274" y1="46.5275" x2="117.274" y2="137.908" gradientUnits="userSpaceOnUse">
<stop stop-color="white"/>
<stop offset="1" stop-color="white" stop-opacity="0"/>
</linearGradient>
<linearGradient id="paint4_linear_1340_3612" x1="117.274" y1="66.5535" x2="117.274" y2="129.159" gradientUnits="userSpaceOnUse">
<stop stop-color="white"/>
<stop offset="1" stop-color="white" stop-opacity="0"/>
</linearGradient>
<linearGradient id="paint5_linear_1340_3612" x1="158.881" y1="67.9145" x2="158.881" y2="116.91" gradientUnits="userSpaceOnUse">
<stop stop-color="white"/>
<stop offset="1" stop-color="white" stop-opacity="0"/>
</linearGradient>
<linearGradient id="paint6_linear_1340_3612" x1="155.77" y1="66.5535" x2="155.77" y2="111.798" gradientUnits="userSpaceOnUse">
<stop stop-color="white"/>
<stop offset="1" stop-color="white" stop-opacity="0"/>
</linearGradient>
<radialGradient id="paint7_radial_1340_3612" cx="0" cy="0" r="1" gradientUnits="userSpaceOnUse" gradientTransform="translate(123 127.889) rotate(90) scale(5)">
<stop stop-color="#EEFCFF"/>
<stop offset="1" stop-color="#C7F5FF" stop-opacity="0.8"/>
</radialGradient>
<radialGradient id="paint8_radial_1340_3612" cx="0" cy="0" r="1" gradientUnits="userSpaceOnUse" gradientTransform="translate(141 127.889) rotate(90) scale(5)">
<stop stop-color="#EEFCFF"/>
<stop offset="1" stop-color="#C7F5FF" stop-opacity="0.8"/>
</radialGradient>
<radialGradient id="paint9_radial_1340_3612" cx="0" cy="0" r="1" gradientUnits="userSpaceOnUse" gradientTransform="translate(115 143.889) rotate(90) scale(5)">
<stop stop-color="#EEFCFF"/>
<stop offset="1" stop-color="#C7F5FF" stop-opacity="0.8"/>
</radialGradient>
<radialGradient id="paint10_radial_1340_3612" cx="0" cy="0" r="1" gradientUnits="userSpaceOnUse" gradientTransform="translate(158 127.889) rotate(90) scale(5)">
<stop stop-color="#EEFCFF"/>
<stop offset="1" stop-color="#C7F5FF" stop-opacity="0.8"/>
</radialGradient>
<radialGradient id="paint11_radial_1340_3612" cx="0" cy="0" r="1" gradientUnits="userSpaceOnUse" gradientTransform="translate(133 143.889) rotate(90) scale(5)">
<stop stop-color="#EEFCFF"/>
<stop offset="1" stop-color="#C7F5FF" stop-opacity="0.8"/>
</radialGradient>
<radialGradient id="paint12_radial_1340_3612" cx="0" cy="0" r="1" gradientUnits="userSpaceOnUse" gradientTransform="translate(151 143.889) rotate(90) scale(5)">
<stop stop-color="#EEFCFF"/>
<stop offset="1" stop-color="#C7F5FF" stop-opacity="0.8"/>
</radialGradient>
</defs>
</svg>
