<svg width="38" height="32" viewBox="0 0 38 32" fill="none" xmlns="http://www.w3.org/2000/svg">
<path d="M13.8182 16.2484C14.7337 16.4759 15.2864 17.3696 15.0446 18.2307L12.7991 26.0787C12.5573 26.9561 11.6073 27.4598 10.6918 27.2324C10.4722 27.1806 10.266 27.0874 10.0859 26.9583C9.9057 26.8293 9.75532 26.6671 9.64384 26.4817C9.53237 26.2963 9.46214 26.0915 9.43741 25.8798C9.41269 25.6681 9.43399 25.4538 9.50002 25.2501L11.7109 17.4021C11.9527 16.5246 12.9027 16.0209 13.8182 16.2484ZM20.7273 16.2484C21.6427 16.4759 22.1955 17.3696 21.9536 18.2307L18.3782 30.7908C18.1364 31.6844 17.1864 32.1719 16.2536 31.9444C15.3382 31.6844 14.7855 30.8233 15.0273 29.9458L18.62 17.4021C18.8618 16.5246 19.8118 16.0209 20.7273 16.2484ZM27.6364 16.2484C28.5518 16.4759 29.1045 17.3696 28.8627 18.2307L26.6173 26.0787C26.3755 26.9561 25.4255 27.4598 24.51 27.2324C24.2904 27.1806 24.0842 27.0874 23.904 26.9583C23.7239 26.8293 23.5735 26.6671 23.462 26.4817C23.3505 26.2963 23.2803 26.0915 23.2556 25.8798C23.2309 25.6681 23.2522 25.4538 23.3182 25.2501L25.5291 17.4021C25.7709 16.5246 26.7209 16.0209 27.6364 16.2484ZM27.6364 12.9987V11.3739C27.6364 9.21922 26.7265 7.1528 25.1068 5.62921C23.4872 4.10563 21.2905 3.24969 19 3.24969C14.6818 3.24969 11.1409 6.2069 10.4673 10.0578C9.89729 9.86279 9.27547 9.74905 8.63638 9.74905C7.26208 9.74905 5.94406 10.2626 4.97228 11.1768C4.00051 12.0909 3.45457 13.3308 3.45457 14.6236C3.45457 16.4272 4.49093 18.0033 6.04547 18.8482V18.8319C6.90911 19.2869 7.15093 20.3105 6.68456 21.058C6.20093 21.8216 5.18184 22.0979 4.3182 21.6429V21.6591C3.00298 20.9487 1.91083 19.9237 1.15248 18.6881C0.39413 17.4525 -0.00345772 16.0503 2.26547e-05 14.6236C2.26547e-05 12.4689 0.909922 10.4025 2.52955 8.8789C4.14918 7.35531 6.34588 6.49937 8.63638 6.49937C10.3637 2.68099 14.3364 0 19 0C24.9246 0 29.7782 4.32208 30.2273 9.7978L31.0909 9.74905C32.9233 9.74905 34.6807 10.4338 35.9764 11.6527C37.2721 12.8715 38 14.5247 38 16.2484C38 18.6857 36.6182 20.7492 34.5455 21.8704C33.6818 22.3091 32.6627 22.0491 32.1791 21.2692C31.7127 20.4893 31.9546 19.4981 32.8182 19.0432V19.0594C33.8545 18.507 34.5455 17.4508 34.5455 16.2484C34.5455 15.3866 34.1815 14.56 33.5336 13.9506C32.8858 13.3411 32.0071 12.9987 31.0909 12.9987H27.6364Z" fill="white"/>
</svg>
