<svg width="11" height="19" viewBox="0 0 11 19" fill="none" xmlns="http://www.w3.org/2000/svg">
<path d="M2.14998 0.374952L10.575 8.77495C10.675 8.87495 10.7456 8.98328 10.787 9.09995C10.829 9.21662 10.85 9.34162 10.85 9.47495C10.85 9.60828 10.829 9.73328 10.787 9.84995C10.7456 9.96662 10.675 10.075 10.575 10.175L2.14997 18.6C1.91664 18.8333 1.62497 18.95 1.27497 18.95C0.924974 18.95 0.624975 18.825 0.374975 18.575C0.124975 18.325 -2.47154e-05 18.0333 -2.46863e-05 17.7C-2.46571e-05 17.3666 0.124975 17.075 0.374975 16.825L7.72498 9.47495L0.374977 2.12495C0.141643 1.89162 0.0249763 1.60429 0.0249764 1.26295C0.0249764 0.920953 0.149976 0.624951 0.399976 0.374951C0.649976 0.124951 0.941643 -4.85499e-05 1.27498 -4.85208e-05C1.60831 -4.84916e-05 1.89998 0.124952 2.14998 0.374952Z" fill="white"/>
</svg>
