<svg width="12" height="12" viewBox="0 0 12 12" fill="none" xmlns="http://www.w3.org/2000/svg">
<path d="M5.9971 12C9.28565 12 12 9.28433 12 6C12 2.71567 9.27985 0 5.9913 0C2.70855 0 0 2.71567 0 6C0 9.28433 2.71435 12 5.9971 12ZM5.9971 6.99226C5.65491 6.99226 5.45771 6.80077 5.44611 6.45261L5.36491 3.55706C5.35331 3.19729 5.60851 2.94778 5.9913 2.94778C6.36249 2.94778 6.63509 3.20309 6.62349 3.56286L6.53069 6.45261C6.51909 6.80658 6.32769 6.99226 5.9971 6.99226ZM5.9971 9C5.60271 9 5.27791 8.71567 5.27791 8.33269C5.27791 7.94971 5.59691 7.66538 5.9971 7.66538C6.39149 7.66538 6.71049 7.94971 6.71049 8.33269C6.71049 8.72147 6.38569 9 5.9971 9Z" fill="#FF4E00"/>
</svg>
