<svg width="16" height="19" viewBox="0 0 16 19" fill="none" xmlns="http://www.w3.org/2000/svg">
<path d="M8.22278 4.38461C9.05481 4.38461 10.0978 3.80483 10.7189 3.03179C11.2814 2.33121 11.6915 1.35283 11.6915 0.374443C11.6915 0.241576 11.6798 0.108709 11.6564 0C10.7306 0.0362365 9.61731 0.640177 8.94934 1.44946C8.422 2.06548 7.94153 3.03179 7.94153 4.02225C7.94153 4.1672 7.96497 4.31214 7.97668 4.36046C8.03528 4.37254 8.12903 4.38461 8.22278 4.38461ZM5.29309 19C6.42981 19 6.93372 18.2149 8.35168 18.2149C9.79309 18.2149 10.1095 18.9758 11.3751 18.9758C12.6173 18.9758 13.4493 17.7921 14.2345 16.6325C15.1134 15.3039 15.4767 13.9994 15.5001 13.939C15.4181 13.9148 13.0392 12.9123 13.0392 10.0979C13.0392 7.65798 14.9142 6.5588 15.0197 6.47425C13.7775 4.63827 11.8907 4.58996 11.3751 4.58996C9.98059 4.58996 8.84387 5.45963 8.12903 5.45963C7.35559 5.45963 6.33606 4.63827 5.12903 4.63827C2.83215 4.63827 0.500122 6.59504 0.500122 10.2912C0.500122 12.5861 1.36731 15.014 2.43372 16.5842C3.34778 17.9129 4.14465 19 5.29309 19Z" fill="white"/>
</svg>
