<svg width="44" height="44" viewBox="0 0 44 44" fill="none" xmlns="http://www.w3.org/2000/svg">
<path d="M21.5294 32C30.2043 32 36.0588 24.7434 36.0588 22.4945C36.0588 20.2566 30.1936 13 21.5294 13C12.9827 13 7 20.2566 7 22.4945C7 24.7434 12.972 32 21.5294 32ZM21.5401 28.5434C18.2817 28.5434 15.6856 25.7848 15.6749 22.5055C15.6642 19.1155 18.2817 16.4566 21.5401 16.4566C24.7772 16.4566 27.3946 19.1265 27.3946 22.5055C27.3946 25.7848 24.7772 28.5434 21.5401 28.5434ZM21.5401 24.7545C22.7366 24.7545 23.7302 23.7353 23.7302 22.5055C23.7302 21.2647 22.7366 20.2344 21.5401 20.2344C20.3222 20.2344 19.3393 21.2647 19.3393 22.5055C19.3393 23.7353 20.3222 24.7545 21.5401 24.7545Z" fill="#5189F6"/>
</svg>
