<svg width="375" height="167" viewBox="0 0 375 167" fill="none" xmlns="http://www.w3.org/2000/svg">
<g filter="url(#filter0_d_1190_3443)">
<path fill-rule="evenodd" clip-rule="evenodd" d="M314.131 62.821C315.106 63.7953 316.429 64.3427 317.808 64.3427C319.187 64.3427 320.509 63.7953 321.484 62.821C322.459 61.8467 323.007 60.5253 323.007 59.1474V38.3666C323.007 36.9887 322.459 35.6673 321.484 34.693C320.509 33.7187 319.187 33.1713 317.808 33.1713C316.429 33.1713 315.106 33.7187 314.131 34.693C313.156 35.6673 312.608 36.9887 312.608 38.3666V59.1474C312.608 60.5253 313.156 61.8467 314.131 62.821ZM340.128 62.821C341.103 63.7953 342.425 64.3427 343.804 64.3427C345.183 64.3427 346.506 63.7953 347.481 62.821C348.456 61.8467 349.003 60.5253 349.003 59.1474V7.19522C349.003 5.81736 348.456 4.49594 347.481 3.52165C346.506 2.54735 345.183 2 343.804 2C342.425 2 341.103 2.54735 340.128 3.52165C339.153 4.49594 338.605 5.81736 338.605 7.19522V59.1474C338.605 60.5253 339.153 61.8467 340.128 62.821ZM366.124 62.821C367.099 63.7953 368.422 64.3427 369.801 64.3427C371.18 64.3427 372.502 63.7953 373.477 62.821C374.452 61.8467 375 60.5253 375 59.1474V27.9761C375 26.5983 374.452 25.2768 373.477 24.3025C372.502 23.3282 371.18 22.7809 369.801 22.7809C368.422 22.7809 367.099 23.3282 366.124 24.3025C365.149 25.2768 364.601 26.5983 364.601 27.9761V59.1474C364.601 60.5253 365.149 61.8467 366.124 62.821ZM213.748 107.764C215.157 109.172 217.068 109.963 219.061 109.963C221.054 109.963 222.966 109.172 224.375 107.764C225.784 106.356 226.576 104.446 226.576 102.454V72.4196C226.576 70.4281 225.784 68.5183 224.375 67.1101C222.966 65.7019 221.054 64.9108 219.061 64.9108C217.068 64.9108 215.157 65.7019 213.748 67.1101C212.339 68.5183 211.547 70.4281 211.547 72.4196V102.454C211.547 104.446 212.339 106.356 213.748 107.764ZM251.321 107.764C252.73 109.172 254.642 109.963 256.635 109.963C258.628 109.963 260.539 109.172 261.948 107.764C263.357 106.356 264.149 104.446 264.149 102.454V27.3672C264.149 25.3758 263.357 23.4659 261.948 22.0578C260.539 20.6496 258.628 19.8585 256.635 19.8585C254.642 19.8585 252.73 20.6496 251.321 22.0578C249.912 23.4659 249.12 25.3758 249.12 27.3672V102.454C249.12 104.446 249.912 106.356 251.321 107.764ZM288.894 107.764C290.303 109.172 292.215 109.963 294.208 109.963C296.201 109.963 298.112 109.172 299.521 107.764C300.931 106.356 301.722 104.446 301.722 102.454V57.4021C301.722 55.4107 300.931 53.5008 299.521 52.0927C298.112 50.6845 296.201 49.8934 294.208 49.8934C292.215 49.8934 290.303 50.6845 288.894 52.0927C287.485 53.5008 286.693 55.4107 286.693 57.4021V102.454C286.693 104.446 287.485 106.356 288.894 107.764ZM1.80838 163.193C2.96626 164.35 4.53668 165 6.17418 165C7.81167 165 9.3821 164.35 10.54 163.193C11.6979 162.036 12.3484 160.467 12.3484 158.831V134.153C12.3484 132.517 11.6979 130.948 10.54 129.791C9.3821 128.634 7.81167 127.984 6.17418 127.984C4.53668 127.984 2.96626 128.634 1.80838 129.791C0.650493 130.948 0 132.517 0 134.153V158.831C0 160.467 0.650493 162.036 1.80838 163.193ZM32.6793 163.193C33.8371 164.35 35.4076 165 37.0451 165C38.6826 165 40.253 164.35 41.4109 163.193C42.5688 162.036 43.2192 160.467 43.2192 158.831V97.1374C43.2192 95.5012 42.5688 93.932 41.4109 92.775C40.253 91.6181 38.6826 90.9681 37.0451 90.9681C35.4076 90.9681 33.8371 91.6181 32.6793 92.775C31.5214 93.932 30.8709 95.5012 30.8709 97.1374V158.831C30.8709 160.467 31.5214 162.036 32.6793 163.193ZM63.5501 163.193C64.708 164.35 66.2785 165 67.916 165C69.5535 165 71.1239 164.35 72.2818 163.193C73.4396 162.036 74.0901 160.467 74.0901 158.831V121.815C74.0901 120.179 73.4396 118.609 72.2818 117.452C71.1239 116.295 69.5535 115.645 67.916 115.645C66.2785 115.645 64.708 116.295 63.5501 117.452C62.3923 118.609 61.7418 120.179 61.7418 121.815V158.831C61.7418 160.467 62.3923 162.036 63.5501 163.193ZM98.1776 138.212C96.1845 138.212 94.2732 137.421 92.8639 136.013C91.4546 134.605 90.6629 132.695 90.6629 130.703V100.669C90.6629 98.6771 91.4546 96.7673 92.8639 95.3591C94.2732 93.951 96.1845 93.1599 98.1776 93.1599C100.171 93.1599 102.082 93.951 103.491 95.3591C104.9 96.7673 105.692 98.6771 105.692 100.669V130.703C105.692 132.695 104.9 134.605 103.491 136.013C102.082 137.421 100.171 138.212 98.1776 138.212ZM135.751 138.212C133.758 138.212 131.846 137.421 130.437 136.013C129.028 134.605 128.236 132.695 128.236 130.703V55.6163C128.236 53.6248 129.028 51.715 130.437 50.3068C131.846 48.8986 133.758 48.1075 135.751 48.1075C137.744 48.1075 139.655 48.8986 141.064 50.3068C142.474 51.715 143.265 53.6248 143.265 55.6163V130.703C143.265 132.695 142.474 134.605 141.064 136.013C139.655 137.421 137.744 138.212 135.751 138.212ZM173.324 138.212C171.331 138.212 169.419 137.421 168.01 136.013C166.601 134.605 165.809 132.695 165.809 130.703V85.6511C165.809 83.6597 166.601 81.7498 168.01 80.3417C169.419 78.9335 171.331 78.1424 173.324 78.1424C175.317 78.1424 177.228 78.9335 178.637 80.3417C180.047 81.7498 180.838 83.6597 180.838 85.6511V130.703C180.838 132.695 180.047 134.605 178.637 136.013C177.228 137.421 175.317 138.212 173.324 138.212Z" fill="url(#paint0_linear_1190_3443)"/>
</g>
<defs>
<filter id="filter0_d_1190_3443" x="-2" y="0" width="379" height="167" filterUnits="userSpaceOnUse" color-interpolation-filters="sRGB">
<feFlood flood-opacity="0" result="BackgroundImageFix"/>
<feColorMatrix in="SourceAlpha" type="matrix" values="0 0 0 0 0 0 0 0 0 0 0 0 0 0 0 0 0 0 127 0" result="hardAlpha"/>
<feOffset/>
<feGaussianBlur stdDeviation="1"/>
<feComposite in2="hardAlpha" operator="out"/>
<feColorMatrix type="matrix" values="0 0 0 0 0.12549 0 0 0 0 0.447059 0 0 0 0 0.996078 0 0 0 0.5 0"/>
<feBlend mode="normal" in2="BackgroundImageFix" result="effect1_dropShadow_1190_3443"/>
<feBlend mode="normal" in="SourceGraphic" in2="effect1_dropShadow_1190_3443" result="shape"/>
</filter>
<linearGradient id="paint0_linear_1190_3443" x1="178.401" y1="-9.36462" x2="217.825" y2="143.098" gradientUnits="userSpaceOnUse">
<stop offset="0.451042" stop-color="#D6C2FF"/>
<stop offset="0.973729" stop-color="#5189F6"/>
</linearGradient>
</defs>
</svg>
