<svg width="209" height="211" viewBox="0 0 209 211" fill="none" xmlns="http://www.w3.org/2000/svg">
<g filter="url(#filter0_bdd_654_3830)">
<mask id="path-1-inside-1_654_3830" fill="white">
<path fill-rule="evenodd" clip-rule="evenodd" d="M125.63 38.5613C128.807 37.1153 131.16 41.1451 130.319 44.5272C129.225 48.9297 129.666 53.7339 131.916 58.0877C135.248 64.5387 141.697 68.3492 148.481 68.6277C151.975 68.7711 155.211 72.1478 152.933 74.7893C151.037 76.9863 148.693 78.8622 145.948 80.2681C134.537 86.1122 120.519 81.6198 114.637 70.2339C108.755 58.848 113.237 44.8803 124.648 39.0362C124.974 38.8695 125.301 38.7113 125.63 38.5613Z"/>
</mask>
<path fill-rule="evenodd" clip-rule="evenodd" d="M125.63 38.5613C128.807 37.1153 131.16 41.1451 130.319 44.5272C129.225 48.9297 129.666 53.7339 131.916 58.0877C135.248 64.5387 141.697 68.3492 148.481 68.6277C151.975 68.7711 155.211 72.1478 152.933 74.7893C151.037 76.9863 148.693 78.8622 145.948 80.2681C134.537 86.1122 120.519 81.6198 114.637 70.2339C108.755 58.848 113.237 44.8803 124.648 39.0362C124.974 38.8695 125.301 38.7113 125.63 38.5613Z" fill="url(#paint0_linear_654_3830)"/>
<path d="M131.916 58.0877L130.136 59.0004L130.136 59.0004L131.916 58.0877ZM145.948 80.2681L146.865 82.0455L145.948 80.2681ZM114.637 70.2339L112.857 71.1466L114.637 70.2339ZM124.648 39.0362L123.731 37.2588L124.648 39.0362ZM148.481 68.6277L148.402 70.6236L148.481 68.6277ZM152.933 74.7893L151.414 73.4848L152.933 74.7893ZM125.63 38.5613L126.464 40.379L125.63 38.5613ZM133.695 57.175C131.677 53.268 131.281 48.9617 132.263 45.0109L128.376 44.0435C127.17 48.8976 127.656 54.1999 130.136 59.0004L133.695 57.175ZM148.56 66.6318C142.467 66.3817 136.684 62.96 133.695 57.175L130.136 59.0004C133.813 66.1174 140.928 70.3168 148.402 70.6236L148.56 66.6318ZM151.414 73.4848C149.684 75.4902 147.543 77.2042 145.031 78.4906L146.865 82.0455C149.843 80.5202 152.391 78.4824 154.451 76.0938L151.414 73.4848ZM145.031 78.4906C134.602 83.8318 121.791 79.7255 116.416 69.3212L112.857 71.1466C119.246 83.5141 134.472 88.3926 146.865 82.0455L145.031 78.4906ZM116.416 69.3212C111.042 58.9178 115.137 46.1544 125.565 40.8136L123.731 37.2588C111.337 43.6063 106.468 58.7783 112.857 71.1466L116.416 69.3212ZM125.565 40.8136C125.863 40.661 126.163 40.5161 126.464 40.379L124.797 36.7437C124.439 36.9064 124.084 37.0781 123.731 37.2588L125.565 40.8136ZM148.402 70.6236C149.584 70.6721 150.722 71.29 151.312 72.0219C151.593 72.3713 151.68 72.6568 151.69 72.8372C151.698 72.9773 151.671 73.1864 151.414 73.4848L154.451 76.0938C155.333 75.0714 155.757 73.8679 155.689 72.6274C155.624 71.4273 155.11 70.3644 154.431 69.5216C153.099 67.8688 150.871 66.7267 148.56 66.6318L148.402 70.6236ZM132.263 45.0109C132.819 42.7713 132.341 40.3214 131.119 38.5871C130.496 37.7026 129.615 36.9168 128.477 36.5215C127.302 36.1131 126.026 36.1843 124.797 36.7437L126.464 40.379C126.824 40.2154 127.033 40.248 127.166 40.2942C127.337 40.3535 127.587 40.5154 127.844 40.8804C128.382 41.645 128.66 42.901 128.376 44.0435L132.263 45.0109Z" fill="url(#paint1_linear_654_3830)" mask="url(#path-1-inside-1_654_3830)"/>
</g>
<g filter="url(#filter1_bd_654_3830)">
<mask id="path-3-inside-2_654_3830" fill="white">
<path fill-rule="evenodd" clip-rule="evenodd" d="M140.738 120.738C140.798 120.738 140.858 120.739 140.918 120.739C149.433 120.739 156.335 113.861 156.335 105.377C156.335 96.893 149.433 90.0153 140.918 90.0153C140.858 90.0153 140.798 90.0157 140.738 90.0163V90.0153H136.755C136.899 88.9641 136.974 87.8907 136.974 86.8001C136.974 73.7781 126.379 63.2216 113.309 63.2216C100.24 63.2216 89.6447 73.7781 89.6447 86.8001C89.6447 88.0288 89.739 89.2356 89.9208 90.4136C88.7954 90.1531 87.6227 90.0153 86.4177 90.0153C77.9027 90.0153 71 96.893 71 105.377C71 113.861 77.9027 120.739 86.4177 120.739C86.4778 120.739 86.5379 120.738 86.5978 120.738L86.597 120.739H140.738V120.738Z"/>
</mask>
<path fill-rule="evenodd" clip-rule="evenodd" d="M140.738 120.738C140.798 120.738 140.858 120.739 140.918 120.739C149.433 120.739 156.335 113.861 156.335 105.377C156.335 96.893 149.433 90.0153 140.918 90.0153C140.858 90.0153 140.798 90.0157 140.738 90.0163V90.0153H136.755C136.899 88.9641 136.974 87.8907 136.974 86.8001C136.974 73.7781 126.379 63.2216 113.309 63.2216C100.24 63.2216 89.6447 73.7781 89.6447 86.8001C89.6447 88.0288 89.739 89.2356 89.9208 90.4136C88.7954 90.1531 87.6227 90.0153 86.4177 90.0153C77.9027 90.0153 71 96.893 71 105.377C71 113.861 77.9027 120.739 86.4177 120.739C86.4778 120.739 86.5379 120.738 86.5978 120.738L86.597 120.739H140.738V120.738Z" fill="url(#paint2_linear_654_3830)" shape-rendering="crispEdges"/>
<path d="M140.738 120.738L140.761 118.738C140.227 118.732 139.712 118.94 139.332 119.316C138.952 119.691 138.738 120.203 138.738 120.738H140.738ZM140.738 90.0163H138.738C138.738 90.5507 138.952 91.0628 139.332 91.4385C139.712 91.8142 140.227 92.0223 140.761 92.0162L140.738 90.0163ZM140.738 90.0153H142.738C142.738 88.9107 141.843 88.0153 140.738 88.0153V90.0153ZM136.755 90.0153L134.774 89.7441C134.696 90.3165 134.869 90.8948 135.248 91.3302C135.628 91.7655 136.178 92.0153 136.755 92.0153V90.0153ZM89.9208 90.4136L89.4698 92.362C90.1164 92.5117 90.7951 92.3309 91.2815 91.8794C91.7679 91.4278 91.9987 90.7644 91.8974 90.1085L89.9208 90.4136ZM86.5978 120.738L88.1658 121.979C88.6445 121.375 88.733 120.549 88.3933 119.857C88.0535 119.164 87.3461 118.729 86.575 118.738L86.5978 120.738ZM86.597 120.739L85.029 119.497C84.5529 120.099 84.4626 120.919 84.7966 121.61C85.1306 122.3 85.83 122.739 86.597 122.739V120.739ZM140.738 120.739V122.739C141.843 122.739 142.738 121.843 142.738 120.739H140.738ZM140.716 122.738C140.783 122.738 140.85 122.739 140.918 122.739V118.739C140.865 118.739 140.813 118.739 140.761 118.738L140.716 122.738ZM140.918 122.739C150.53 122.739 158.335 114.973 158.335 105.377H154.335C154.335 112.75 148.335 118.739 140.918 118.739V122.739ZM158.335 105.377C158.335 95.7816 150.53 88.0153 140.918 88.0153V92.0153C148.335 92.0153 154.335 98.0044 154.335 105.377H158.335ZM140.918 88.0153C140.85 88.0153 140.783 88.0157 140.716 88.0165L140.761 92.0162C140.813 92.0156 140.865 92.0153 140.918 92.0153V88.0153ZM138.738 90.0153V90.0163H142.738V90.0153H138.738ZM136.755 92.0153H140.738V88.0153H136.755V92.0153ZM138.737 90.2865C138.893 89.1456 138.974 87.9817 138.974 86.8001H134.974C134.974 87.7998 134.906 88.7825 134.774 89.7441L138.737 90.2865ZM138.974 86.8001C138.974 72.6666 127.476 61.2216 113.309 61.2216V65.2216C125.281 65.2216 134.974 74.8895 134.974 86.8001H138.974ZM113.309 61.2216C99.1419 61.2216 87.6447 72.6666 87.6447 86.8001H91.6447C91.6447 74.8895 101.337 65.2216 113.309 65.2216V61.2216ZM87.6447 86.8001C87.6447 88.1313 87.7469 89.4401 87.9443 90.7187L91.8974 90.1085C91.7311 89.0311 91.6447 87.9263 91.6447 86.8001H87.6447ZM90.3719 88.4651C89.0996 88.1706 87.7756 88.0153 86.4178 88.0153V92.0153C87.4699 92.0153 88.4913 92.1355 89.4698 92.362L90.3719 88.4651ZM86.4178 88.0153C76.8051 88.0153 69 95.7816 69 105.377H73C73 98.0044 79.0005 92.0153 86.4178 92.0153V88.0153ZM69 105.377C69 114.973 76.8051 122.739 86.4178 122.739V118.739C79.0005 118.739 73 112.75 73 105.377H69ZM86.4178 122.739C86.4855 122.739 86.5531 122.738 86.6206 122.738L86.575 118.738C86.5227 118.739 86.4702 118.739 86.4178 118.739V122.739ZM88.165 121.98L88.1658 121.979L85.0298 119.496L85.029 119.497L88.165 121.98ZM140.738 118.739H86.597V122.739H140.738V118.739ZM138.738 120.738V120.739H142.738V120.738H138.738Z" fill="url(#paint3_linear_654_3830)" mask="url(#path-3-inside-2_654_3830)"/>
</g>
<g filter="url(#filter2_bd_654_3830)">
<mask id="path-5-inside-3_654_3830" fill="white">
<path fill-rule="evenodd" clip-rule="evenodd" d="M168.728 104.788C168.771 104.789 168.814 104.789 168.858 104.789C175.011 104.789 180 99.8183 180 93.687C180 87.5556 175.011 82.5852 168.858 82.5852C168.814 82.5852 168.771 82.5855 168.728 82.5859V82.5852H165.85C165.954 81.8255 166.007 81.0498 166.007 80.2616C166.007 70.8507 158.35 63.2216 148.905 63.2216C139.46 63.2216 131.803 70.8507 131.803 80.2616C131.803 81.1496 131.871 82.0217 132.003 82.873C131.189 82.6848 130.342 82.5852 129.471 82.5852C123.317 82.5852 118.329 87.5556 118.329 93.687C118.329 99.8183 123.317 104.789 129.471 104.789C129.515 104.789 129.558 104.789 129.601 104.788L129.601 104.789H168.728V104.788Z"/>
</mask>
<path fill-rule="evenodd" clip-rule="evenodd" d="M168.728 104.788C168.771 104.789 168.814 104.789 168.858 104.789C175.011 104.789 180 99.8183 180 93.687C180 87.5556 175.011 82.5852 168.858 82.5852C168.814 82.5852 168.771 82.5855 168.728 82.5859V82.5852H165.85C165.954 81.8255 166.007 81.0498 166.007 80.2616C166.007 70.8507 158.35 63.2216 148.905 63.2216C139.46 63.2216 131.803 70.8507 131.803 80.2616C131.803 81.1496 131.871 82.0217 132.003 82.873C131.189 82.6848 130.342 82.5852 129.471 82.5852C123.317 82.5852 118.329 87.5556 118.329 93.687C118.329 99.8183 123.317 104.789 129.471 104.789C129.515 104.789 129.558 104.789 129.601 104.788L129.601 104.789H168.728V104.788Z" fill="url(#paint4_linear_654_3830)" shape-rendering="crispEdges"/>
<path d="M168.728 104.788L168.751 102.788C168.216 102.782 167.702 102.99 167.322 103.366C166.942 103.742 166.728 104.254 166.728 104.788H168.728ZM168.728 82.5859H166.728C166.728 83.1203 166.942 83.6324 167.322 84.0082C167.702 84.3839 168.216 84.5919 168.751 84.5858L168.728 82.5859ZM168.728 82.5852H170.728C170.728 81.4806 169.833 80.5852 168.728 80.5852V82.5852ZM165.85 82.5852L163.868 82.314C163.79 82.8864 163.963 83.4647 164.343 83.9C164.722 84.3354 165.272 84.5852 165.85 84.5852V82.5852ZM132.003 82.873L131.552 84.8215C132.198 84.9712 132.877 84.7904 133.364 84.3388C133.85 83.8873 134.081 83.2238 133.979 82.5679L132.003 82.873ZM129.601 104.788L131.169 106.03C131.648 105.426 131.736 104.6 131.397 103.907C131.057 103.215 130.35 102.779 129.578 102.788L129.601 104.788ZM129.601 104.789L128.033 103.546C127.557 104.148 127.466 104.969 127.8 105.659C128.134 106.35 128.833 106.789 129.601 106.789V104.789ZM168.728 104.789V106.789C169.833 106.789 170.728 105.893 170.728 104.789H168.728ZM168.705 106.788C168.756 106.788 168.807 106.789 168.858 106.789V102.789C168.822 102.789 168.786 102.789 168.751 102.788L168.705 106.788ZM168.858 106.789C176.109 106.789 182 100.93 182 93.687H178C178 98.7069 173.914 102.789 168.858 102.789V106.789ZM182 93.687C182 86.4442 176.109 80.5852 168.858 80.5852V84.5852C173.914 84.5852 178 88.667 178 93.687H182ZM168.858 80.5852C168.807 80.5852 168.756 80.5855 168.705 80.5861L168.751 84.5858C168.786 84.5854 168.822 84.5852 168.858 84.5852V80.5852ZM166.728 82.5852V82.5859H170.728V82.5852H166.728ZM165.85 84.5852H168.728V80.5852H165.85V84.5852ZM167.831 82.8564C167.947 82.007 168.007 81.1407 168.007 80.2615H164.007C164.007 80.9588 163.96 81.6439 163.868 82.314L167.831 82.8564ZM168.007 80.2615C168.007 69.7392 159.448 61.2216 148.905 61.2216V65.2216C157.253 65.2216 164.007 71.9621 164.007 80.2615H168.007ZM148.905 61.2216C138.362 61.2216 129.803 69.7392 129.803 80.2615H133.803C133.803 71.9621 140.558 65.2216 148.905 65.2216V61.2216ZM129.803 80.2615C129.803 81.2521 129.879 82.2262 130.026 83.1781L133.979 82.5679C133.864 81.8172 133.803 81.047 133.803 80.2615H129.803ZM132.454 80.9246C131.494 80.7023 130.495 80.5852 129.471 80.5852V84.5852C130.189 84.5852 130.885 84.6672 131.552 84.8215L132.454 80.9246ZM129.471 80.5852C122.22 80.5852 116.329 86.4442 116.329 93.687H120.329C120.329 88.667 124.415 84.5852 129.471 84.5852V80.5852ZM116.329 93.687C116.329 100.93 122.22 106.789 129.471 106.789V102.789C124.415 102.789 120.329 98.7069 120.329 93.687H116.329ZM129.471 106.789C129.522 106.789 129.573 106.788 129.624 106.788L129.578 102.788C129.543 102.789 129.507 102.789 129.471 102.789V106.789ZM131.168 106.031L131.169 106.03L128.034 103.546L128.033 103.546L131.168 106.031ZM168.728 102.789H129.601V106.789H168.728V102.789ZM166.728 104.788V104.789H170.728V104.788H166.728Z" fill="url(#paint5_linear_654_3830)" mask="url(#path-5-inside-3_654_3830)"/>
</g>
<g filter="url(#filter3_bdd_654_3830)">
<path d="M95.1633 118.085L95.584 123.955C95.7707 126.559 93.283 128.544 90.7826 127.786C88.2822 127.029 87.3254 123.999 88.9359 121.94L92.5659 117.297C93.3864 116.248 95.0683 116.758 95.1633 118.085Z" fill="url(#paint6_linear_654_3830)" stroke="url(#paint7_linear_654_3830)" stroke-width="2"/>
<path d="M115.783 118.085L116.203 123.955C116.39 126.559 113.902 128.544 111.402 127.786C108.902 127.029 107.945 123.999 109.555 121.94L113.185 117.297C114.006 116.248 115.688 116.758 115.783 118.085Z" fill="url(#paint8_linear_654_3830)" stroke="url(#paint9_linear_654_3830)" stroke-width="2"/>
<path d="M136.402 118.085L136.823 123.955C137.01 126.559 134.522 128.544 132.022 127.786C129.521 127.029 128.564 123.999 130.175 121.94L133.805 117.297C134.625 116.248 136.307 116.758 136.402 118.085Z" fill="url(#paint10_linear_654_3830)" stroke="url(#paint11_linear_654_3830)" stroke-width="2"/>
</g>
<g filter="url(#filter4_bdd_654_3830)">
<path d="M100.604 134.347L101.025 140.217C101.211 142.821 98.7237 144.806 96.2233 144.048C93.7229 143.291 92.7661 140.261 94.3765 138.202L98.0066 133.559C98.8271 132.51 100.509 133.02 100.604 134.347Z" fill="url(#paint12_linear_654_3830)" stroke="url(#paint13_linear_654_3830)" stroke-width="2"/>
<path d="M118.025 134.347L118.446 140.217C118.632 142.821 116.145 144.806 113.644 144.048C111.144 143.291 110.187 140.261 111.797 138.202L115.428 133.559C116.248 132.51 117.93 133.02 118.025 134.347Z" fill="url(#paint14_linear_654_3830)" stroke="url(#paint15_linear_654_3830)" stroke-width="2"/>
</g>
<defs>
<filter id="filter0_bdd_654_3830" x="41.0486" y="0.259033" width="150.645" height="147.571" filterUnits="userSpaceOnUse" color-interpolation-filters="sRGB">
<feFlood flood-opacity="0" result="BackgroundImageFix"/>
<feGaussianBlur in="BackgroundImageFix" stdDeviation="7"/>
<feComposite in2="SourceAlpha" operator="in" result="effect1_backgroundBlur_654_3830"/>
<feColorMatrix in="SourceAlpha" type="matrix" values="0 0 0 0 0 0 0 0 0 0 0 0 0 0 0 0 0 0 127 0" result="hardAlpha"/>
<feOffset dx="-21" dy="15"/>
<feGaussianBlur stdDeviation="25"/>
<feComposite in2="hardAlpha" operator="out"/>
<feColorMatrix type="matrix" values="0 0 0 0 0.113438 0 0 0 0 0.148981 0 0 0 0 0.275 0 0 0 0.25 0"/>
<feBlend mode="normal" in2="effect1_backgroundBlur_654_3830" result="effect2_dropShadow_654_3830"/>
<feColorMatrix in="SourceAlpha" type="matrix" values="0 0 0 0 0 0 0 0 0 0 0 0 0 0 0 0 0 0 127 0" result="hardAlpha"/>
<feOffset/>
<feGaussianBlur stdDeviation="19"/>
<feComposite in2="hardAlpha" operator="out"/>
<feColorMatrix type="matrix" values="0 0 0 0 0.619608 0 0 0 0 0.423529 0 0 0 0 1 0 0 0 0.4 0"/>
<feBlend mode="normal" in2="effect2_dropShadow_654_3830" result="effect3_dropShadow_654_3830"/>
<feBlend mode="normal" in="SourceGraphic" in2="effect3_dropShadow_654_3830" result="shape"/>
</filter>
<filter id="filter1_bd_654_3830" x="0" y="28.2216" width="185.335" height="157.517" filterUnits="userSpaceOnUse" color-interpolation-filters="sRGB">
<feFlood flood-opacity="0" result="BackgroundImageFix"/>
<feGaussianBlur in="BackgroundImageFix" stdDeviation="7"/>
<feComposite in2="SourceAlpha" operator="in" result="effect1_backgroundBlur_654_3830"/>
<feColorMatrix in="SourceAlpha" type="matrix" values="0 0 0 0 0 0 0 0 0 0 0 0 0 0 0 0 0 0 127 0" result="hardAlpha"/>
<feOffset dx="-21" dy="15"/>
<feGaussianBlur stdDeviation="25"/>
<feComposite in2="hardAlpha" operator="out"/>
<feColorMatrix type="matrix" values="0 0 0 0 0.113725 0 0 0 0 0.14902 0 0 0 0 0.27451 0 0 0 0.25 0"/>
<feBlend mode="normal" in2="effect1_backgroundBlur_654_3830" result="effect2_dropShadow_654_3830"/>
<feBlend mode="normal" in="SourceGraphic" in2="effect2_dropShadow_654_3830" result="shape"/>
</filter>
<filter id="filter2_bd_654_3830" x="47.3289" y="28.2216" width="161.671" height="141.567" filterUnits="userSpaceOnUse" color-interpolation-filters="sRGB">
<feFlood flood-opacity="0" result="BackgroundImageFix"/>
<feGaussianBlur in="BackgroundImageFix" stdDeviation="7"/>
<feComposite in2="SourceAlpha" operator="in" result="effect1_backgroundBlur_654_3830"/>
<feColorMatrix in="SourceAlpha" type="matrix" values="0 0 0 0 0 0 0 0 0 0 0 0 0 0 0 0 0 0 127 0" result="hardAlpha"/>
<feOffset dx="-21" dy="15"/>
<feGaussianBlur stdDeviation="25"/>
<feComposite in2="hardAlpha" operator="out"/>
<feColorMatrix type="matrix" values="0 0 0 0 0.113438 0 0 0 0 0.148981 0 0 0 0 0.275 0 0 0 0.25 0"/>
<feBlend mode="normal" in2="effect1_backgroundBlur_654_3830" result="effect2_dropShadow_654_3830"/>
<feBlend mode="normal" in="SourceGraphic" in2="effect2_dropShadow_654_3830" result="shape"/>
</filter>
<filter id="filter3_bdd_654_3830" x="16.1421" y="67.7346" width="162.691" height="126.215" filterUnits="userSpaceOnUse" color-interpolation-filters="sRGB">
<feFlood flood-opacity="0" result="BackgroundImageFix"/>
<feGaussianBlur in="BackgroundImageFix" stdDeviation="7"/>
<feComposite in2="SourceAlpha" operator="in" result="effect1_backgroundBlur_654_3830"/>
<feColorMatrix in="SourceAlpha" type="matrix" values="0 0 0 0 0 0 0 0 0 0 0 0 0 0 0 0 0 0 127 0" result="hardAlpha"/>
<feOffset dx="-21" dy="15"/>
<feGaussianBlur stdDeviation="25"/>
<feComposite in2="hardAlpha" operator="out"/>
<feColorMatrix type="matrix" values="0 0 0 0 0.113438 0 0 0 0 0.148981 0 0 0 0 0.275 0 0 0 0.25 0"/>
<feBlend mode="normal" in2="effect1_backgroundBlur_654_3830" result="effect2_dropShadow_654_3830"/>
<feColorMatrix in="SourceAlpha" type="matrix" values="0 0 0 0 0 0 0 0 0 0 0 0 0 0 0 0 0 0 127 0" result="hardAlpha"/>
<feOffset dy="-7"/>
<feGaussianBlur stdDeviation="20.5"/>
<feComposite in2="hardAlpha" operator="out"/>
<feColorMatrix type="matrix" values="0 0 0 0 0.1375 0 0 0 0 0.74125 0 0 0 0 1 0 0 0 0.3 0"/>
<feBlend mode="normal" in2="effect2_dropShadow_654_3830" result="effect3_dropShadow_654_3830"/>
<feBlend mode="normal" in="SourceGraphic" in2="effect3_dropShadow_654_3830" result="shape"/>
</filter>
<filter id="filter4_bdd_654_3830" x="21.5828" y="83.9966" width="138.873" height="126.215" filterUnits="userSpaceOnUse" color-interpolation-filters="sRGB">
<feFlood flood-opacity="0" result="BackgroundImageFix"/>
<feGaussianBlur in="BackgroundImageFix" stdDeviation="7"/>
<feComposite in2="SourceAlpha" operator="in" result="effect1_backgroundBlur_654_3830"/>
<feColorMatrix in="SourceAlpha" type="matrix" values="0 0 0 0 0 0 0 0 0 0 0 0 0 0 0 0 0 0 127 0" result="hardAlpha"/>
<feOffset dx="-21" dy="15"/>
<feGaussianBlur stdDeviation="25"/>
<feComposite in2="hardAlpha" operator="out"/>
<feColorMatrix type="matrix" values="0 0 0 0 0.113438 0 0 0 0 0.148981 0 0 0 0 0.275 0 0 0 0.25 0"/>
<feBlend mode="normal" in2="effect1_backgroundBlur_654_3830" result="effect2_dropShadow_654_3830"/>
<feColorMatrix in="SourceAlpha" type="matrix" values="0 0 0 0 0 0 0 0 0 0 0 0 0 0 0 0 0 0 127 0" result="hardAlpha"/>
<feOffset dy="-7"/>
<feGaussianBlur stdDeviation="20.5"/>
<feComposite in2="hardAlpha" operator="out"/>
<feColorMatrix type="matrix" values="0 0 0 0 0.1375 0 0 0 0 0.74125 0 0 0 0 1 0 0 0 0.3 0"/>
<feBlend mode="normal" in2="effect2_dropShadow_654_3830" result="effect3_dropShadow_654_3830"/>
<feBlend mode="normal" in="SourceGraphic" in2="effect3_dropShadow_654_3830" result="shape"/>
</filter>
<linearGradient id="paint0_linear_654_3830" x1="118.546" y1="42.6227" x2="139.713" y2="83.9231" gradientUnits="userSpaceOnUse">
<stop offset="0.0001" stop-color="#5189F6"/>
<stop offset="1" stop-color="#7E2FFF"/>
</linearGradient>
<linearGradient id="paint1_linear_654_3830" x1="119.633" y1="20.5784" x2="131.173" y2="74.6766" gradientUnits="userSpaceOnUse">
<stop stop-color="white"/>
<stop offset="1" stop-color="white" stop-opacity="0"/>
</linearGradient>
<linearGradient id="paint2_linear_654_3830" x1="113.668" y1="44.8232" x2="113.668" y2="128.777" gradientUnits="userSpaceOnUse">
<stop stop-color="white"/>
<stop offset="1" stop-color="white" stop-opacity="0"/>
</linearGradient>
<linearGradient id="paint3_linear_654_3830" x1="113.668" y1="63.2216" x2="113.668" y2="120.739" gradientUnits="userSpaceOnUse">
<stop stop-color="white"/>
<stop offset="1" stop-color="white" stop-opacity="0"/>
</linearGradient>
<linearGradient id="paint4_linear_654_3830" x1="152.033" y1="64.472" x2="152.033" y2="109.485" gradientUnits="userSpaceOnUse">
<stop stop-color="white"/>
<stop offset="1" stop-color="white" stop-opacity="0"/>
</linearGradient>
<linearGradient id="paint5_linear_654_3830" x1="149.164" y1="63.2216" x2="149.164" y2="104.789" gradientUnits="userSpaceOnUse">
<stop stop-color="white"/>
<stop offset="1" stop-color="white" stop-opacity="0"/>
</linearGradient>
<linearGradient id="paint6_linear_654_3830" x1="95.7061" y1="111.659" x2="90.5253" y2="128.753" gradientUnits="userSpaceOnUse">
<stop stop-color="#138EFF"/>
<stop offset="1" stop-color="#00E0FF"/>
</linearGradient>
<linearGradient id="paint7_linear_654_3830" x1="95.7061" y1="111.659" x2="90.5253" y2="128.753" gradientUnits="userSpaceOnUse">
<stop stop-color="white"/>
<stop offset="1" stop-color="white" stop-opacity="0"/>
</linearGradient>
<linearGradient id="paint8_linear_654_3830" x1="116.325" y1="111.659" x2="111.145" y2="128.753" gradientUnits="userSpaceOnUse">
<stop stop-color="#138EFF"/>
<stop offset="1" stop-color="#00E0FF"/>
</linearGradient>
<linearGradient id="paint9_linear_654_3830" x1="116.325" y1="111.659" x2="111.145" y2="128.753" gradientUnits="userSpaceOnUse">
<stop stop-color="white"/>
<stop offset="1" stop-color="white" stop-opacity="0"/>
</linearGradient>
<linearGradient id="paint10_linear_654_3830" x1="136.945" y1="111.659" x2="131.764" y2="128.753" gradientUnits="userSpaceOnUse">
<stop stop-color="#138EFF"/>
<stop offset="1" stop-color="#00E0FF"/>
</linearGradient>
<linearGradient id="paint11_linear_654_3830" x1="136.945" y1="111.659" x2="131.764" y2="128.753" gradientUnits="userSpaceOnUse">
<stop stop-color="white"/>
<stop offset="1" stop-color="white" stop-opacity="0"/>
</linearGradient>
<linearGradient id="paint12_linear_654_3830" x1="101.147" y1="127.921" x2="95.9659" y2="145.015" gradientUnits="userSpaceOnUse">
<stop stop-color="#138EFF"/>
<stop offset="1" stop-color="#00E0FF"/>
</linearGradient>
<linearGradient id="paint13_linear_654_3830" x1="101.147" y1="127.921" x2="95.9659" y2="145.015" gradientUnits="userSpaceOnUse">
<stop stop-color="white"/>
<stop offset="1" stop-color="white" stop-opacity="0"/>
</linearGradient>
<linearGradient id="paint14_linear_654_3830" x1="118.568" y1="127.921" x2="113.387" y2="145.015" gradientUnits="userSpaceOnUse">
<stop stop-color="#138EFF"/>
<stop offset="1" stop-color="#00E0FF"/>
</linearGradient>
<linearGradient id="paint15_linear_654_3830" x1="118.568" y1="127.921" x2="113.387" y2="145.015" gradientUnits="userSpaceOnUse">
<stop stop-color="white"/>
<stop offset="1" stop-color="white" stop-opacity="0"/>
</linearGradient>
</defs>
</svg>
