<svg width="25" height="25" viewBox="0 0 25 25" fill="none" xmlns="http://www.w3.org/2000/svg">
<path d="M19.4792 8.20005C19.7841 7.91821 20.1559 7.71196 20.5626 7.59917C20.9692 7.48637 21.3984 7.47043 21.8128 7.55272C22.2273 7.63501 22.6147 7.81306 22.9414 8.07144C23.2681 8.32982 23.5242 8.66075 23.6876 9.03557C23.8511 9.4104 23.9169 9.81781 23.8794 10.2226C23.8418 10.6273 23.7021 11.0171 23.4723 11.3584C23.2425 11.6996 22.9295 11.9819 22.5604 12.1808C22.1913 12.3798 21.7773 12.4893 21.3542 12.5H3.125M11.0417 5.10005C11.283 4.86375 11.5816 4.68864 11.9108 4.5904C12.24 4.49216 12.5894 4.47387 12.9278 4.53717C13.2661 4.60047 13.5828 4.74338 13.8495 4.95309C14.1161 5.16279 14.3244 5.43275 14.4557 5.73874C14.5869 6.04474 14.637 6.37723 14.6015 6.70639C14.566 7.03555 14.4459 7.35111 14.2521 7.62477C14.0583 7.89843 13.7968 8.12164 13.491 8.2744C13.1852 8.42716 12.8447 8.5047 12.5 8.50005H3.125M14.1667 19.9C14.408 20.1363 14.7066 20.3115 15.0358 20.4097C15.365 20.5079 15.7144 20.5262 16.0528 20.4629C16.3911 20.3996 16.7078 20.2567 16.9745 20.047C17.2411 19.8373 17.4494 19.5673 17.5807 19.2613C17.7119 18.9554 17.762 18.6229 17.7265 18.2937C17.691 17.9645 17.5709 17.649 17.3771 17.3753C17.1833 17.1017 16.9218 16.8785 16.616 16.7257C16.3102 16.5729 15.9697 16.4954 15.625 16.5H3.125" stroke="#5189F6" stroke-width="2" stroke-linecap="round" stroke-linejoin="round"/>
<circle cx="6" cy="18.5" r="5" fill="#FF4E00"/>
<path d="M5.49959 20.304L5.31059 15.723H6.65159L6.50759 20.304H5.49959ZM5.40059 22.257V21.114H6.60659V22.257H5.40059Z" fill="white"/>
</svg>
